<svg width="709" height="499" viewBox="0 0 709 499" fill="none" xmlns="http://www.w3.org/2000/svg">
<rect width="709" height="499" fill="#F9F9F9"/>
<path d="M66 256.649C196.5 238.706 497.7 177.984 658.5 78.6436" stroke="#FB534A"/>
<path opacity="0.5" d="M65 45H664" stroke="black" stroke-width="0.5"/>
<path opacity="0.5" d="M65 102H664" stroke="black" stroke-width="0.5"/>
<path opacity="0.5" d="M65 160H664" stroke="black" stroke-width="0.5"/>
<path opacity="0.5" d="M65 217H664" stroke="black" stroke-width="0.5"/>
<path opacity="0.5" d="M65 275H664" stroke="black" stroke-width="0.5"/>
<circle cx="100" cy="258.037" r="2" fill="#FB534A"/>
<circle cx="100" cy="201" r="2" fill="#0072FF"/>
<circle cx="67" cy="240.91" r="2" fill="#FB534A"/>
<circle cx="67" cy="259" r="2" fill="#0072FF"/>
<circle cx="133" cy="227.452" r="2" fill="#FB534A"/>
<circle cx="133" cy="259" r="2" fill="#0072FF"/>
<circle cx="166" cy="255.59" r="2" fill="#FB534A"/>
<circle cx="166" cy="243" r="2" fill="#0072FF"/>
<circle cx="199" cy="190.75" r="2" fill="#FB534A"/>
<circle cx="199" cy="201" r="2" fill="#0072FF"/>
<circle cx="232" cy="195" r="2" fill="#FB534A"/>
<circle cx="232" cy="182" r="2" fill="#0072FF"/>
<circle cx="265" cy="236.016" r="2" fill="#FB534A"/>
<circle cx="265" cy="197" r="2" fill="#0072FF"/>
<circle cx="298" cy="225.005" r="2" fill="#FB534A"/>
<circle cx="298" cy="151" r="2" fill="#0072FF"/>
<circle cx="331" cy="222.559" r="2" fill="#FB534A"/>
<circle cx="331" cy="230" r="2" fill="#0072FF"/>
<circle cx="364" cy="178" r="2" fill="#FB534A"/>
<circle cx="364" cy="217" r="2" fill="#0072FF"/>
<circle cx="397" cy="146.708" r="2" fill="#FB534A"/>
<circle cx="397" cy="178" r="2" fill="#0072FF"/>
<circle cx="430" cy="173.623" r="2" fill="#FB534A"/>
<circle cx="430" cy="186" r="2" fill="#0072FF"/>
<circle cx="463" cy="155.271" r="2" fill="#FB534A"/>
<circle cx="463" cy="160" r="2" fill="#0072FF"/>
<circle cx="496" cy="113.676" r="2" fill="#FB534A"/>
<circle cx="496" cy="164" r="2" fill="#0072FF"/>
<circle cx="529" cy="96.5479" r="2" fill="#FB534A"/>
<circle cx="529" cy="145" r="2" fill="#0072FF"/>
<circle cx="562" cy="79.4204" r="2" fill="#FB534A"/>
<circle cx="562" cy="113" r="2" fill="#0072FF"/>
<circle cx="595" cy="103.888" r="2" fill="#FB534A"/>
<circle cx="595" cy="128" r="2" fill="#0072FF"/>
<circle cx="628" cy="113.676" r="2" fill="#FB534A"/>
<circle cx="628" cy="105" r="2" fill="#0072FF"/>
<circle cx="661" cy="90" r="2" fill="#FB534A"/>
<circle cx="661" cy="56" r="2" fill="#0072FF"/>
<path d="M66 240C195.239 222.315 495.573 162.356 663 64" stroke="#0072FF"/>
<path d="M35.1266 45.02H38.2266V47H38.8266V45.02H39.7566V44.52H38.8266V39.86H38.3066L35.1266 44.59V45.02ZM35.7866 44.52L38.1966 40.93H38.2266V44.52H35.7866ZM43.7139 39.82C41.8739 39.82 41.2139 41.61 41.2139 43.43C41.2139 45.26 41.8739 47.12 43.7139 47.12C45.5539 47.12 46.2039 45.25 46.2039 43.43C46.2039 41.61 45.5539 39.82 43.7139 39.82ZM43.7139 46.6C42.3139 46.6 41.8139 44.88 41.8139 43.42C41.8139 41.97 42.3139 40.34 43.7139 40.34C45.1139 40.34 45.6039 41.99 45.6039 43.42C45.6039 44.88 45.1139 46.6 43.7139 46.6ZM49.1321 43.82C48.1121 43.82 47.6621 42.82 47.6621 41.82C47.6621 40.83 48.1121 39.86 49.1321 39.86C50.1521 39.86 50.5921 40.83 50.5921 41.82C50.5921 42.81 50.1521 43.82 49.1321 43.82ZM53.1821 39.87H52.6321L49.8821 46.98H50.4321L53.1821 39.87ZM49.1321 43.36C49.7721 43.36 50.0521 42.58 50.0521 41.81C50.0521 41.06 49.7721 40.32 49.1321 40.32C48.5021 40.32 48.2121 41.06 48.2121 41.81C48.2121 42.58 48.5021 43.36 49.1321 43.36ZM54.0321 47.04C53.0121 47.04 52.5721 46.03 52.5721 45.04C52.5721 44.05 53.0121 43.08 54.0321 43.08C55.0521 43.08 55.5021 44.05 55.5021 45.04C55.5021 46.03 55.0521 47.04 54.0321 47.04ZM54.0321 46.58C54.6721 46.58 54.9521 45.8 54.9521 45.03C54.9521 44.28 54.6721 43.54 54.0321 43.54C53.4021 43.54 53.1121 44.27 53.1121 45.03C53.1121 45.8 53.4021 46.58 54.0321 46.58Z" fill="black"/>
<path d="M36.0359 162.5C36.2359 161.48 37.2559 160.92 38.1459 160.22C38.8759 159.65 39.7659 159.09 39.7659 157.79C39.7659 156.67 39.0059 155.82 37.6159 155.82C36.1759 155.82 35.3859 156.72 35.3659 158.09H35.9659C35.9959 157.03 36.5559 156.32 37.5959 156.32C38.6659 156.32 39.1659 157 39.1659 157.81C39.1659 158.8 38.5659 159.23 37.5359 159.97C36.5659 160.67 35.3959 161.43 35.2959 163H39.8659V162.5H36.0359ZM43.7139 155.82C41.8739 155.82 41.2139 157.61 41.2139 159.43C41.2139 161.26 41.8739 163.12 43.7139 163.12C45.5539 163.12 46.2039 161.25 46.2039 159.43C46.2039 157.61 45.5539 155.82 43.7139 155.82ZM43.7139 162.6C42.3139 162.6 41.8139 160.88 41.8139 159.42C41.8139 157.97 42.3139 156.34 43.7139 156.34C45.1139 156.34 45.6039 157.99 45.6039 159.42C45.6039 160.88 45.1139 162.6 43.7139 162.6ZM49.1321 159.82C48.1121 159.82 47.6621 158.82 47.6621 157.82C47.6621 156.83 48.1121 155.86 49.1321 155.86C50.1521 155.86 50.5921 156.83 50.5921 157.82C50.5921 158.81 50.1521 159.82 49.1321 159.82ZM53.1821 155.87H52.6321L49.8821 162.98H50.4321L53.1821 155.87ZM49.1321 159.36C49.7721 159.36 50.0521 158.58 50.0521 157.81C50.0521 157.06 49.7721 156.32 49.1321 156.32C48.5021 156.32 48.2121 157.06 48.2121 157.81C48.2121 158.58 48.5021 159.36 49.1321 159.36ZM54.0321 163.04C53.0121 163.04 52.5721 162.03 52.5721 161.04C52.5721 160.05 53.0121 159.08 54.0321 159.08C55.0521 159.08 55.5021 160.05 55.5021 161.04C55.5021 162.03 55.0521 163.04 54.0321 163.04ZM54.0321 162.58C54.6721 162.58 54.9521 161.8 54.9521 161.03C54.9521 160.28 54.6721 159.54 54.0321 159.54C53.4021 159.54 53.1121 160.27 53.1121 161.03C53.1121 161.8 53.4021 162.58 54.0321 162.58Z" fill="black"/>
<path d="M35.4498 99.67H36.0498L36.0598 99.53C36.1298 98.83 36.6398 98.32 37.5098 98.32C38.3598 98.32 38.8698 98.78 38.8698 99.53C38.8698 100.36 38.3098 100.83 37.5298 100.89C37.3998 100.9 37.2698 100.91 37.1198 100.91V101.45H37.3398C38.2798 101.45 39.2398 101.8 39.2398 103.03C39.2398 104 38.4898 104.61 37.4998 104.61C36.5598 104.61 35.8698 104.18 35.7698 103.11L35.7498 102.96H35.1298L35.1398 103.07C35.2698 104.35 36.0198 105.11 37.4898 105.11C38.9898 105.11 39.8398 104.24 39.8398 103.04C39.8398 101.91 39.2298 101.37 38.4098 101.15C39.0098 100.86 39.4698 100.42 39.4698 99.48C39.4698 98.53 38.7698 97.82 37.5198 97.82C36.2098 97.82 35.4898 98.63 35.4498 99.67ZM43.7139 97.82C41.8739 97.82 41.2139 99.61 41.2139 101.43C41.2139 103.26 41.8739 105.12 43.7139 105.12C45.5539 105.12 46.2039 103.25 46.2039 101.43C46.2039 99.61 45.5539 97.82 43.7139 97.82ZM43.7139 104.6C42.3139 104.6 41.8139 102.88 41.8139 101.42C41.8139 99.97 42.3139 98.34 43.7139 98.34C45.1139 98.34 45.6039 99.99 45.6039 101.42C45.6039 102.88 45.1139 104.6 43.7139 104.6ZM49.1321 101.82C48.1121 101.82 47.6621 100.82 47.6621 99.82C47.6621 98.83 48.1121 97.86 49.1321 97.86C50.1521 97.86 50.5921 98.83 50.5921 99.82C50.5921 100.81 50.1521 101.82 49.1321 101.82ZM53.1821 97.87H52.6321L49.8821 104.98H50.4321L53.1821 97.87ZM49.1321 101.36C49.7721 101.36 50.0521 100.58 50.0521 99.81C50.0521 99.06 49.7721 98.32 49.1321 98.32C48.5021 98.32 48.2121 99.06 48.2121 99.81C48.2121 100.58 48.5021 101.36 49.1321 101.36ZM54.0321 105.04C53.0121 105.04 52.5721 104.03 52.5721 103.04C52.5721 102.05 53.0121 101.08 54.0321 101.08C55.0521 101.08 55.5021 102.05 55.5021 103.04C55.5021 104.03 55.0521 105.04 54.0321 105.04ZM54.0321 104.58C54.6721 104.58 54.9521 103.8 54.9521 103.03C54.9521 102.28 54.6721 101.54 54.0321 101.54C53.4021 101.54 53.1121 102.27 53.1121 103.03C53.1121 103.8 53.4021 104.58 54.0321 104.58Z" fill="black"/>
<path d="M38.7586 213.86C38.5986 215.07 38.3286 215.13 37.0286 215.13V215.58H38.6286V221H39.2286V213.86H38.7586ZM43.7139 213.82C41.8739 213.82 41.2139 215.61 41.2139 217.43C41.2139 219.26 41.8739 221.12 43.7139 221.12C45.5539 221.12 46.2039 219.25 46.2039 217.43C46.2039 215.61 45.5539 213.82 43.7139 213.82ZM43.7139 220.6C42.3139 220.6 41.8139 218.88 41.8139 217.42C41.8139 215.97 42.3139 214.34 43.7139 214.34C45.1139 214.34 45.6039 215.99 45.6039 217.42C45.6039 218.88 45.1139 220.6 43.7139 220.6ZM49.1321 217.82C48.1121 217.82 47.6621 216.82 47.6621 215.82C47.6621 214.83 48.1121 213.86 49.1321 213.86C50.1521 213.86 50.5921 214.83 50.5921 215.82C50.5921 216.81 50.1521 217.82 49.1321 217.82ZM53.1821 213.87H52.6321L49.8821 220.98H50.4321L53.1821 213.87ZM49.1321 217.36C49.7721 217.36 50.0521 216.58 50.0521 215.81C50.0521 215.06 49.7721 214.32 49.1321 214.32C48.5021 214.32 48.2121 215.06 48.2121 215.81C48.2121 216.58 48.5021 217.36 49.1321 217.36ZM54.0321 221.04C53.0121 221.04 52.5721 220.03 52.5721 219.04C52.5721 218.05 53.0121 217.08 54.0321 217.08C55.0521 217.08 55.5021 218.05 55.5021 219.04C55.5021 220.03 55.0521 221.04 54.0321 221.04ZM54.0321 220.58C54.6721 220.58 54.9521 219.8 54.9521 219.03C54.9521 218.28 54.6721 217.54 54.0321 217.54C53.4021 217.54 53.1121 218.27 53.1121 219.03C53.1121 219.8 53.4021 220.58 54.0321 220.58Z" fill="black"/>
<path d="M43.7139 271.82C41.8739 271.82 41.2139 273.61 41.2139 275.43C41.2139 277.26 41.8739 279.12 43.7139 279.12C45.5539 279.12 46.2039 277.25 46.2039 275.43C46.2039 273.61 45.5539 271.82 43.7139 271.82ZM43.7139 278.6C42.3139 278.6 41.8139 276.88 41.8139 275.42C41.8139 273.97 42.3139 272.34 43.7139 272.34C45.1139 272.34 45.6039 273.99 45.6039 275.42C45.6039 276.88 45.1139 278.6 43.7139 278.6ZM49.1321 275.82C48.1121 275.82 47.6621 274.82 47.6621 273.82C47.6621 272.83 48.1121 271.86 49.1321 271.86C50.1521 271.86 50.5921 272.83 50.5921 273.82C50.5921 274.81 50.1521 275.82 49.1321 275.82ZM53.1821 271.87H52.6321L49.8821 278.98H50.4321L53.1821 271.87ZM49.1321 275.36C49.7721 275.36 50.0521 274.58 50.0521 273.81C50.0521 273.06 49.7721 272.32 49.1321 272.32C48.5021 272.32 48.2121 273.06 48.2121 273.81C48.2121 274.58 48.5021 275.36 49.1321 275.36ZM54.0321 279.04C53.0121 279.04 52.5721 278.03 52.5721 277.04C52.5721 276.05 53.0121 275.08 54.0321 275.08C55.0521 275.08 55.5021 276.05 55.5021 277.04C55.5021 278.03 55.0521 279.04 54.0321 279.04ZM54.0321 278.58C54.6721 278.58 54.9521 277.8 54.9521 277.03C54.9521 276.28 54.6721 275.54 54.0321 275.54C53.4021 275.54 53.1121 276.27 53.1121 277.03C53.1121 277.8 53.4021 278.58 54.0321 278.58Z" fill="black"/>
<path d="M656.979 310.835C658.203 309.612 659.172 309.59 660.458 310.877C661.526 311.945 661.809 313.105 660.579 314.335L659.433 315.481L655.883 311.931L656.979 310.835ZM659.384 316.223L660.96 314.646C662.17 313.437 662.269 311.896 660.854 310.481C659.398 309.025 658.09 309.032 656.682 310.439L655.141 311.98L659.384 316.223ZM664.46 311.146L667.232 308.374L666.893 308.035L664.517 310.411L662.862 308.756L664.977 306.642L664.63 306.295L662.516 308.41L660.953 306.847L663.35 304.45L663.011 304.111L660.218 306.904L664.46 311.146ZM670.472 305.29C671.583 304.18 671.597 303.119 670.868 302.051L670.416 302.334C671.024 303.338 671.003 304.067 670.14 304.929C669.086 305.983 668.012 305.757 666.81 304.554C665.629 303.374 665.374 302.299 666.463 301.21C667.234 300.439 667.976 300.361 668.945 300.962L669.228 300.51C668.188 299.796 667.114 299.852 666.102 300.863C664.851 302.115 665.021 303.557 666.414 304.95C667.807 306.343 669.185 306.577 670.472 305.29Z" fill="black"/>
<path d="M590.441 314.322C591.805 312.957 591.572 311.437 590.243 310.107C588.913 308.778 587.393 308.573 586.042 309.923C584.692 311.274 584.897 312.794 586.226 314.124C587.556 315.453 589.076 315.686 590.441 314.322ZM590.094 313.975C588.927 315.142 587.739 314.845 586.622 313.728C585.498 312.603 585.243 311.43 586.396 310.277C587.549 309.124 588.722 309.379 589.847 310.503C590.964 311.621 591.261 312.808 590.094 313.975ZM595.438 309.324C596.548 308.214 596.563 307.153 595.834 306.085L595.382 306.368C595.99 307.372 595.969 308.101 595.106 308.963C594.052 310.017 592.978 309.791 591.775 308.589C590.595 307.408 590.34 306.333 591.429 305.244C592.2 304.473 592.942 304.395 593.911 304.996L594.194 304.544C593.154 303.83 592.08 303.886 591.068 304.897C589.817 306.149 589.987 307.592 591.38 308.985C592.773 310.378 594.151 310.611 595.438 309.324ZM594.187 302.642L595.658 301.171L599.547 305.06L599.943 304.664L596.054 300.775L597.532 299.297L597.178 298.943L593.833 302.288L594.187 302.642Z" fill="black"/>
<path d="M517.709 313.605L518.126 313.188L512.179 310.649L511.6 311.229L514.138 317.176L514.548 316.766L513.742 314.955L515.885 312.813L517.709 313.605ZM513.191 313.711C512.851 312.933 512.406 312.021 512.073 311.406L512.363 311.116C512.936 311.448 513.862 311.936 514.633 312.268L515.46 312.629L513.558 314.531L513.191 313.711ZM520.747 310.03C519.7 311.076 518.838 310.751 518.081 309.994L515.458 307.371L515.062 307.767L517.728 310.433C518.873 311.578 520.019 311.437 521.086 310.369C522.133 309.322 522.175 308.219 521.058 307.102L518.392 304.436L518.003 304.825L520.669 307.491C521.489 308.311 521.673 309.103 520.747 310.03ZM525.97 305.485C526.861 304.594 526.798 303.724 526.479 302.996L526.564 302.911L527.484 303.83L527.851 303.463L525.772 301.384L524.019 303.137L524.358 303.477L525.737 302.098L525.751 302.112L525.737 302.098C526.501 302.862 526.918 303.859 525.709 305.068C524.648 306.128 523.623 306.022 522.385 304.785C521.169 303.569 520.879 302.501 522.053 301.327C522.838 300.542 523.58 300.493 524.584 301.101L524.86 300.641C523.792 299.927 522.725 299.962 521.685 301.002C520.384 302.303 520.575 303.767 521.989 305.181C523.594 306.786 524.888 306.567 525.97 305.485Z" fill="black"/>
<path d="M446.724 313.446C447.198 313.92 447.283 314.316 446.83 314.768C446.653 314.945 446.448 315.094 446.243 315.242L446.597 315.596C446.837 315.426 447.035 315.271 447.212 315.094C447.912 314.394 447.799 313.729 447.106 313.036L443.888 309.819L443.493 310.215L446.724 313.446ZM451.398 310.257C450.351 311.304 449.488 310.979 448.732 310.222L446.109 307.599L445.713 307.995L448.378 310.66C449.524 311.806 450.669 311.665 451.737 310.597C452.784 309.55 452.826 308.447 451.709 307.33L449.043 304.664L448.654 305.053L451.32 307.719C452.14 308.539 452.324 309.331 451.398 310.257ZM457.844 304.348L458.481 303.712L454.238 299.469L453.856 299.851L455.122 301.117C455.999 301.993 457.151 303.019 457.873 303.613L457.569 303.931C456.932 303.648 455.921 303.287 454.938 303.026L451.558 302.149L450.865 302.842L455.108 307.085L455.49 306.703L454.217 305.43C453.376 304.588 452.287 303.556 451.495 302.92L451.82 302.58C452.47 302.849 453.241 303.153 454.019 303.365L457.844 304.348Z" fill="black"/>
<path d="M380.365 312.535L380.782 312.117L374.835 309.579L374.256 310.159L376.794 316.105L377.204 315.695L376.398 313.885L378.541 311.743L380.365 312.535ZM375.847 312.641C375.507 311.863 375.062 310.951 374.729 310.335L375.019 310.046C375.592 310.378 376.518 310.866 377.289 311.198L378.116 311.559L376.214 313.461L375.847 312.641ZM379.668 305.425C380.53 304.563 381.082 304.619 381.782 305.319C382.461 305.998 382.475 306.606 381.669 307.412L380.516 308.565L378.522 306.571L379.668 305.425ZM382.044 307.702C383.012 306.733 382.97 305.729 382.164 304.923C381.266 304.025 380.354 304.061 379.371 305.043L377.787 306.627L382.03 310.87L382.426 310.474L380.849 308.897L382.044 307.702ZM383.914 301.179C384.812 300.281 385.35 300.267 385.951 300.868C386.587 301.504 386.453 302.247 385.732 302.968L384.643 304.057L382.84 302.254L383.914 301.179ZM386.078 303.3C386.092 303.286 386.113 303.265 386.128 303.251L389.203 303.696L389.599 303.3L389.458 303.159L386.481 302.826C387.082 301.971 387.011 301.136 386.347 300.472C385.576 299.701 384.713 299.701 383.624 300.79L382.104 302.31L386.347 306.553L386.743 306.157L384.982 304.396L386.078 303.3Z" fill="black"/>
<path d="M306.883 310.83L306.544 310.491L304.557 312.478L302.747 310.667L305.003 308.412L304.649 308.058L301.997 310.71L306.24 314.952L306.636 314.556L304.897 312.817L306.883 310.83ZM310.253 310.939L313.025 308.167L312.686 307.828L310.31 310.204L308.655 308.549L310.77 306.435L310.423 306.088L308.309 308.203L306.746 306.64L309.143 304.243L308.804 303.903L306.011 306.696L310.253 310.939ZM314.349 302.912C315.254 302.007 315.763 302.049 316.308 302.594C316.824 303.11 316.789 303.767 316.053 304.503L314.745 305.811L313.098 304.163L314.349 302.912ZM312.419 300.939C313.076 300.281 313.543 300.281 314.102 300.84C314.71 301.448 314.519 302.106 314.003 302.622L312.779 303.845L311.146 302.212L312.419 300.939ZM314.667 306.525L316.378 304.814C317.439 303.753 317.397 302.905 316.704 302.212C316.06 301.568 315.396 301.752 314.568 302.481L314.441 302.353C314.908 301.703 315.056 301.017 314.455 300.416C313.713 299.673 312.977 299.73 312.058 300.649L310.425 302.283L314.667 306.525Z" fill="black"/>
<path d="M234.979 310.835C236.203 309.612 237.172 309.59 238.458 310.877C239.526 311.945 239.809 313.105 238.579 314.335L237.433 315.481L233.883 311.931L234.979 310.835ZM237.384 316.223L238.96 314.646C240.17 313.437 240.269 311.896 238.854 310.481C237.398 309.025 236.09 309.032 234.682 310.439L233.141 311.98L237.384 316.223ZM242.46 311.146L245.232 308.374L244.893 308.035L242.517 310.411L240.862 308.756L242.977 306.642L242.63 306.296L240.516 308.41L238.953 306.847L241.35 304.45L241.011 304.111L238.218 306.904L242.46 311.146ZM248.472 305.29C249.583 304.18 249.597 303.119 248.868 302.051L248.416 302.334C249.024 303.338 249.003 304.067 248.14 304.929C247.086 305.983 246.012 305.757 244.81 304.554C243.629 303.374 243.374 302.299 244.463 301.21C245.234 300.439 245.976 300.361 246.945 300.962L247.228 300.51C246.188 299.796 245.114 299.852 244.102 300.863C242.851 302.115 243.021 303.557 244.414 304.95C245.807 306.343 247.185 306.577 248.472 305.29Z" fill="black"/>
<path d="M168.441 314.322C169.805 312.957 169.572 311.437 168.243 310.107C166.913 308.778 165.393 308.573 164.042 309.923C162.692 311.274 162.897 312.794 164.226 314.124C165.556 315.453 167.076 315.686 168.441 314.322ZM168.094 313.975C166.927 315.142 165.739 314.845 164.622 313.728C163.498 312.603 163.243 311.43 164.396 310.277C165.549 309.124 166.722 309.379 167.847 310.503C168.964 311.621 169.261 312.808 168.094 313.975ZM173.438 309.324C174.548 308.214 174.563 307.153 173.834 306.085L173.382 306.368C173.99 307.372 173.969 308.101 173.106 308.963C172.052 310.017 170.978 309.791 169.775 308.589C168.595 307.408 168.34 306.333 169.429 305.244C170.2 304.473 170.942 304.395 171.911 304.996L172.194 304.544C171.154 303.83 170.08 303.886 169.068 304.897C167.817 306.149 167.987 307.592 169.38 308.985C170.773 310.378 172.151 310.611 173.438 309.324ZM172.187 302.642L173.658 301.171L177.547 305.06L177.943 304.664L174.054 300.775L175.532 299.297L175.178 298.943L171.833 302.288L172.187 302.642Z" fill="black"/>
<path d="M99.7089 313.605L100.126 313.188L94.1793 310.649L93.5995 311.229L96.138 317.176L96.5482 316.766L95.742 314.955L97.8846 312.813L99.7089 313.605ZM95.1905 313.711C94.8511 312.933 94.4056 312.021 94.0733 311.406L94.3632 311.116C94.9359 311.448 95.8623 311.936 96.633 312.268L97.4603 312.629L95.5582 314.531L95.1905 313.711ZM102.747 310.03C101.7 311.076 100.838 310.751 100.081 309.994L97.4577 307.371L97.0617 307.767L99.7275 310.433C100.873 311.578 102.019 311.437 103.086 310.369C104.133 309.322 104.175 308.219 103.058 307.102L100.392 304.436L100.003 304.825L102.669 307.491C103.489 308.311 103.673 309.103 102.747 310.03ZM107.97 305.485C108.861 304.594 108.798 303.724 108.479 302.996L108.564 302.911L109.484 303.83L109.851 303.463L107.772 301.384L106.019 303.137L106.358 303.477L107.737 302.098L107.751 302.112L107.737 302.098C108.501 302.862 108.918 303.859 107.709 305.068C106.648 306.128 105.623 306.022 104.385 304.785C103.169 303.569 102.879 302.501 104.053 301.327C104.838 300.542 105.58 300.493 106.584 301.101L106.86 300.641C105.792 299.927 104.725 299.962 103.685 301.002C102.384 302.303 102.575 303.767 103.989 305.181C105.594 306.786 106.888 306.567 107.97 305.485Z" fill="black"/>
<path d="M626.24 314.074L626.877 313.437L622.634 309.194L622.252 309.576L623.518 310.842C624.395 311.719 625.547 312.744 626.269 313.338L625.965 313.656C625.328 313.373 624.317 313.013 623.334 312.751L619.954 311.874L619.261 312.567L623.504 316.81L623.886 316.428L622.613 315.155C621.771 314.314 620.682 313.282 619.89 312.645L620.216 312.306C620.866 312.574 621.637 312.879 622.415 313.091L626.24 314.074ZM630.43 310.039C631.795 308.674 631.562 307.154 630.232 305.825C628.903 304.495 627.383 304.29 626.032 305.641C624.682 306.991 624.887 308.512 626.216 309.841C627.545 311.17 629.066 311.404 630.43 310.039ZM630.084 309.693C628.917 310.859 627.729 310.562 626.612 309.445C625.488 308.321 625.233 307.147 626.386 305.994C627.538 304.842 628.712 305.096 629.836 306.221C630.954 307.338 631.251 308.526 630.084 309.693ZM635.472 304.842L632.933 298.895L632.523 299.305L633.881 302.36C634.22 303.124 634.673 304.043 634.998 304.665L634.722 304.941C634.142 304.616 633.209 304.135 632.438 303.803L629.37 302.459L628.952 302.876L634.899 305.415L635.472 304.842Z" fill="black"/>
<path d="M551.76 317.831C552.898 316.692 552.814 315.815 552.099 315.101C551.534 314.536 550.841 314.465 549.419 315.391C548.232 316.169 547.694 316.155 547.256 315.716C546.796 315.257 546.803 314.656 547.609 313.85C548.352 313.107 548.875 313.15 549.639 313.588L549.936 313.121C549.016 312.57 548.239 312.556 547.291 313.503C546.245 314.55 546.245 315.455 546.909 316.119C547.51 316.721 548.295 316.77 549.653 315.851C550.721 315.137 551.265 315.045 551.753 315.533C552.234 316.013 552.276 316.636 551.421 317.491C550.551 318.361 549.844 318.389 548.974 317.788L548.684 318.248C549.688 318.955 550.664 318.927 551.76 317.831ZM554.704 314.732L557.475 311.96L557.136 311.62L554.76 313.996L553.106 312.341L555.22 310.227L554.873 309.881L552.759 311.995L551.196 310.432L553.593 308.035L553.254 307.696L550.461 310.489L554.704 314.732ZM556.756 304.873C557.618 304.01 558.17 304.067 558.87 304.767C559.549 305.446 559.563 306.054 558.757 306.86L557.604 308.012L555.61 306.018L556.756 304.873ZM559.132 307.15C560.1 306.181 560.058 305.177 559.252 304.371C558.354 303.473 557.442 303.508 556.459 304.491L554.875 306.075L559.118 310.318L559.513 309.922L557.937 308.345L559.132 307.15ZM559.015 302.642L560.486 301.171L564.375 305.06L564.771 304.664L560.882 300.775L562.36 299.297L562.006 298.943L558.662 302.288L559.015 302.642Z" fill="black"/>
<path d="M481.391 312.072C481.865 312.546 481.95 312.942 481.497 313.394C481.32 313.571 481.115 313.72 480.91 313.868L481.264 314.222C481.504 314.052 481.702 313.896 481.879 313.72C482.579 313.02 482.466 312.355 481.773 311.662L478.556 308.445L478.16 308.841L481.391 312.072ZM486.065 308.883C485.018 309.93 484.156 309.605 483.399 308.848L480.776 306.225L480.38 306.621L483.045 309.286C484.191 310.432 485.336 310.29 486.404 309.223C487.451 308.176 487.493 307.073 486.376 305.956L483.71 303.29L483.321 303.679L485.987 306.345C486.807 307.165 486.991 307.957 486.065 308.883ZM485.928 301.072L485.532 301.468L489.775 305.71L492.264 303.221L491.918 302.875L489.825 304.968L485.928 301.072Z" fill="black"/>
<path d="M409.601 314.074C409.12 313.594 408.462 312.922 407.996 312.483L408.243 312.236C408.809 312.547 409.551 312.936 410.266 313.24L412.889 314.322L413.419 313.792L412.387 311.161C412.118 310.482 411.736 309.719 411.404 309.075L411.68 308.799C412.111 309.259 412.783 309.945 413.257 310.419L415.576 312.738L415.965 312.349L411.722 308.106L410.944 308.884L412.111 311.79C412.309 312.257 412.691 313.007 412.967 313.551L412.705 313.813C412.189 313.551 411.362 313.134 410.958 312.957L408.102 311.727L407.296 312.533L411.538 316.776L411.92 316.394L409.601 314.074ZM420.787 307.527L421.204 307.11L415.257 304.571L414.678 305.151L417.216 311.098L417.626 310.688L416.82 308.877L418.963 306.735L420.787 307.527ZM416.269 307.633C415.929 306.855 415.484 305.943 415.151 305.328L415.441 305.038C416.014 305.37 416.94 305.858 417.711 306.19L418.538 306.551L416.636 308.453L416.269 307.633ZM423.596 304.718L422.281 303.403L421.121 298.99L420.98 298.849L420.605 299.224L421.835 303.197L421.687 303.346L417.706 302.123L417.331 302.497L417.473 302.639L421.871 303.784L423.2 305.114L423.596 304.718Z" fill="black"/>
<path d="M338.617 314.765C338.137 314.284 337.479 313.612 337.012 313.174L337.26 312.926C337.825 313.238 338.568 313.626 339.282 313.93L341.905 315.012L342.436 314.482L341.403 311.852C341.135 311.173 340.753 310.409 340.421 309.766L340.696 309.49C341.128 309.949 341.799 310.635 342.273 311.109L344.592 313.428L344.981 313.04L340.739 308.797L339.961 309.575L341.128 312.481C341.326 312.948 341.707 313.697 341.983 314.242L341.722 314.503C341.205 314.242 340.378 313.824 339.975 313.648L337.118 312.417L336.312 313.223L340.555 317.466L340.937 317.084L338.617 314.765ZM349.804 308.217L350.221 307.8L344.274 305.262L343.694 305.841L346.233 311.788L346.643 311.378L345.837 309.568L347.979 307.425L349.804 308.217ZM345.285 308.323C344.946 307.546 344.5 306.633 344.168 306.018L344.458 305.728C345.031 306.061 345.957 306.549 346.728 306.881L347.555 307.242L345.653 309.144L345.285 308.323ZM349.036 301.179C349.934 300.281 350.471 300.267 351.072 300.868C351.709 301.504 351.574 302.247 350.853 302.968L349.764 304.057L347.961 302.254L349.036 301.179ZM351.199 303.3C351.214 303.286 351.235 303.265 351.249 303.251L354.325 303.696L354.721 303.3L354.579 303.159L351.602 302.826C352.203 301.971 352.133 301.136 351.468 300.472C350.697 299.701 349.835 299.701 348.746 300.79L347.225 302.31L351.468 306.553L351.864 306.157L350.103 304.396L351.199 303.3Z" fill="black"/>
<path d="M272.297 312.873C272.771 313.347 272.856 313.743 272.403 314.195C272.226 314.372 272.021 314.521 271.816 314.669L272.17 315.023C272.41 314.853 272.608 314.697 272.785 314.521C273.485 313.821 273.372 313.156 272.679 312.463L269.462 309.246L269.066 309.642L272.297 312.873ZM278.443 308.749L278.861 308.332L272.914 305.793L272.334 306.373L274.873 312.32L275.283 311.91L274.477 310.1L276.619 307.957L278.443 308.749ZM273.925 308.855C273.586 308.077 273.14 307.165 272.808 306.55L273.098 306.26C273.67 306.592 274.597 307.08 275.368 307.413L276.195 307.773L274.293 309.675L273.925 308.855ZM282.844 304.348L283.481 303.712L279.238 299.469L278.856 299.851L280.122 301.117C280.999 301.993 282.151 303.019 282.873 303.613L282.569 303.931C281.932 303.648 280.921 303.287 279.938 303.026L276.558 302.149L275.865 302.842L280.108 307.085L280.49 306.703L279.217 305.43C278.376 304.588 277.287 303.556 276.495 302.92L276.82 302.58C277.47 302.849 278.241 303.153 279.019 303.365L282.844 304.348Z" fill="black"/>
<path d="M204.24 314.074L204.877 313.437L200.634 309.194L200.252 309.576L201.518 310.842C202.395 311.719 203.547 312.744 204.269 313.338L203.965 313.656C203.328 313.373 202.317 313.013 201.334 312.751L197.954 311.874L197.261 312.567L201.504 316.81L201.886 316.428L200.613 315.155C199.771 314.314 198.682 313.282 197.89 312.645L198.216 312.306C198.866 312.574 199.637 312.879 200.415 313.091L204.24 314.074ZM208.43 310.039C209.795 308.674 209.562 307.154 208.232 305.825C206.903 304.495 205.383 304.29 204.032 305.641C202.682 306.991 202.887 308.512 204.216 309.841C205.545 311.17 207.066 311.404 208.43 310.039ZM208.084 309.693C206.917 310.859 205.729 310.562 204.612 309.445C203.488 308.321 203.233 307.147 204.386 305.994C205.538 304.842 206.712 305.096 207.836 306.221C208.954 307.338 209.251 308.526 208.084 309.693ZM213.472 304.842L210.933 298.895L210.523 299.305L211.881 302.36C212.22 303.124 212.673 304.043 212.998 304.665L212.722 304.941C212.142 304.616 211.209 304.135 210.438 303.803L207.37 302.459L206.952 302.876L212.899 305.415L213.472 304.842Z" fill="black"/>
<path d="M134.335 313.721C135.473 312.582 135.388 311.705 134.674 310.991C134.108 310.426 133.415 310.355 131.994 311.281C130.806 312.059 130.269 312.045 129.83 311.606C129.371 311.147 129.378 310.546 130.184 309.74C130.926 308.997 131.45 309.04 132.213 309.478L132.51 309.011C131.591 308.46 130.813 308.446 129.866 309.393C128.819 310.44 128.819 311.345 129.484 312.009C130.085 312.61 130.87 312.66 132.227 311.741C133.295 311.027 133.84 310.935 134.327 311.423C134.808 311.903 134.851 312.526 133.995 313.381C133.125 314.251 132.418 314.279 131.549 313.678L131.259 314.138C132.263 314.845 133.239 314.817 134.335 313.721ZM137.278 310.621L140.05 307.85L139.711 307.51L137.335 309.886L135.68 308.231L137.794 306.117L137.448 305.771L135.334 307.885L133.771 306.322L136.168 303.925L135.829 303.586L133.036 306.379L137.278 310.621ZM139.33 300.763C140.193 299.9 140.745 299.957 141.445 300.657C142.123 301.336 142.138 301.944 141.331 302.75L140.179 303.902L138.185 301.908L139.33 300.763ZM141.706 303.04C142.675 302.071 142.632 301.067 141.826 300.261C140.928 299.363 140.016 299.398 139.033 300.381L137.449 301.965L141.692 306.208L142.088 305.812L140.511 304.235L141.706 303.04Z" fill="black"/>
<path d="M63.391 312.072C63.8648 312.546 63.9497 312.942 63.4971 313.394C63.3203 313.571 63.1153 313.72 62.9102 313.868L63.2638 314.222C63.5042 314.052 63.7022 313.896 63.8789 313.72C64.579 313.02 64.4658 312.355 63.7729 311.662L60.5555 308.445L60.1596 308.841L63.391 312.072ZM68.0647 308.883C67.0182 309.93 66.1556 309.605 65.3989 308.848L62.7756 306.225L62.3796 306.621L65.0454 309.286C66.1909 310.432 67.3364 310.29 68.4042 309.223C69.4507 308.176 69.4931 307.073 68.3759 305.956L65.7101 303.29L65.3212 303.679L67.987 306.345C68.8072 307.165 68.9911 307.957 68.0647 308.883ZM67.9283 301.072L67.5324 301.468L71.775 305.71L74.264 303.221L73.9175 302.875L71.8245 304.968L67.9283 301.072Z" fill="black"/>
<path d="M684.852 51.164V50.612H683.664V45.8H682.932L678.54 50.648V51.164H683.004V53H683.664V51.164H684.852ZM681.924 50.612C681.324 50.612 680.16 50.696 679.344 50.804L679.212 50.588L682.908 46.496L683.004 46.532V50.612H681.924Z" fill="black"/>
<path d="M681.768 109.12C683.712 109.12 684.492 108.316 684.492 107.08C684.492 106.072 684.036 105.592 682.572 105.472V105.256C683.58 105.04 684.132 104.512 684.132 103.576C684.132 102.268 683.388 101.68 681.792 101.68C680.22 101.68 679.404 102.496 679.128 103.78L679.74 103.9C680.004 102.832 680.604 102.244 681.804 102.244C682.992 102.244 683.484 102.64 683.484 103.672C683.484 104.692 682.728 105.1 681.864 105.1H680.688V105.64H681.912C683.436 105.64 683.832 106.108 683.832 107.044C683.832 107.992 683.16 108.568 681.768 108.568C680.352 108.568 679.644 107.908 679.332 106.72L678.696 106.864C679.068 108.364 680.1 109.12 681.768 109.12Z" fill="black"/>
<path d="M681.924 158.244C683.196 158.244 683.688 158.82 683.688 159.696C683.688 160.668 683.04 161.172 681.36 161.712C679.608 162.276 678.84 162.912 678.84 164.532V165H684.48V164.424H682.38C681.396 164.424 680.16 164.496 679.404 164.568C679.44 163.224 679.908 162.756 681.72 162.168C683.304 161.652 684.348 161.064 684.348 159.72C684.348 158.376 683.52 157.68 681.924 157.68C680.232 157.68 679.428 158.616 679.104 159.96L679.728 160.104C679.98 158.94 680.604 158.244 681.924 158.244Z" fill="black"/>
<path d="M683.496 221V220.424H681.72V213.8H681.36L678.732 214.7L678.96 215.276C679.644 215.012 680.424 214.664 681.06 214.304V220.424H678.828V221H683.496Z" fill="black"/>
<path d="M681.588 270.268C683.208 270.268 683.856 271.48 683.856 273.388C683.856 275.284 683.22 276.544 681.588 276.544C679.944 276.544 679.32 275.284 679.32 273.388C679.32 271.48 679.968 270.268 681.588 270.268ZM681.588 269.668C679.608 269.668 678.648 271.132 678.648 273.388C678.648 275.644 679.584 277.132 681.588 277.132C683.58 277.132 684.516 275.644 684.516 273.388C684.516 271.132 683.568 269.668 681.588 269.668Z" fill="black"/>
<path d="M26.97 390.82C25.95 390.82 25.5 389.82 25.5 388.82C25.5 387.83 25.95 386.86 26.97 386.86C27.99 386.86 28.43 387.83 28.43 388.82C28.43 389.81 27.99 390.82 26.97 390.82ZM31.02 386.87H30.47L27.72 393.98H28.27L31.02 386.87ZM26.97 390.36C27.61 390.36 27.89 389.58 27.89 388.81C27.89 388.06 27.61 387.32 26.97 387.32C26.34 387.32 26.05 388.06 26.05 388.81C26.05 389.58 26.34 390.36 26.97 390.36ZM31.87 394.04C30.85 394.04 30.41 393.03 30.41 392.04C30.41 391.05 30.85 390.08 31.87 390.08C32.89 390.08 33.34 391.05 33.34 392.04C33.34 393.03 32.89 394.04 31.87 394.04ZM31.87 393.58C32.51 393.58 32.79 392.8 32.79 392.03C32.79 391.28 32.51 390.54 31.87 390.54C31.24 390.54 30.95 391.27 30.95 392.03C30.95 392.8 31.24 393.58 31.87 393.58ZM41.163 386.74C38.883 386.74 37.523 388.42 37.523 390.44C37.523 392.45 38.883 394.13 41.163 394.13C43.433 394.13 44.803 392.45 44.803 390.44C44.803 388.42 43.433 386.74 41.163 386.74ZM41.163 393.6C39.143 393.6 38.163 392 38.163 390.44C38.163 388.87 39.143 387.26 41.163 387.26C43.183 387.26 44.173 388.87 44.173 390.44C44.173 392 43.183 393.6 41.163 393.6ZM46.4792 394H47.1192V390.61H50.3992V390.09H47.1192V387.38H50.6992V386.86H46.4792V394ZM59.6869 386.86H54.4969V387.38H56.7769V394H57.4069V387.38H59.6869V386.86ZM63.8564 386.74C61.5764 386.74 60.2164 388.42 60.2164 390.44C60.2164 392.45 61.5764 394.13 63.8564 394.13C66.1264 394.13 67.4964 392.45 67.4964 390.44C67.4964 388.42 66.1264 386.74 63.8564 386.74ZM63.8564 393.6C61.8364 393.6 60.8564 392 60.8564 390.44C60.8564 388.87 61.8364 387.26 63.8564 387.26C65.8764 387.26 66.8664 388.87 66.8664 390.44C66.8664 392 65.8764 393.6 63.8564 393.6ZM73.2357 386.86H68.0457V387.38H70.3257V394H70.9557V387.38H73.2357V386.86ZM78.6663 394H79.3263L76.6463 386.86H75.7863L73.1063 394H73.7663L74.6063 391.73H77.8263L78.6663 394ZM76.2063 387.4H76.2263L77.6363 391.21H74.7963L76.2063 387.4ZM81.4473 393.48V386.86H80.8073V394H85.0473V393.48H81.4473ZM91.5962 386.86H89.3562V394H89.9962V390.99H91.5162C92.8962 390.99 93.8862 390.18 93.8862 388.88C93.8862 387.62 92.8962 386.86 91.5962 386.86ZM91.4162 390.46H89.9962V387.38H91.4962C92.6562 387.38 93.2562 387.97 93.2562 388.88C93.2562 389.93 92.5762 390.46 91.4162 390.46ZM99.8752 394H100.535L97.8552 386.86H96.9952L94.3152 394H94.9752L95.8152 391.73H99.0352L99.8752 394ZM97.4152 387.4H97.4352L98.8452 391.21H96.0052L97.4152 387.4ZM100.449 386.86L102.899 391.1V394H103.529V391.1L105.979 386.86H105.259C104.589 388.07 103.899 389.28 103.229 390.48H103.209C102.529 389.28 101.839 388.07 101.169 386.86H100.449ZM110.639 393.48V386.86H109.999V394H114.239V393.48H110.639ZM115.723 386.86V394H116.363V386.86H115.723ZM118.421 386.86V394H119.061V389.23C119.061 388.76 119.051 388.26 119.051 387.8C119.311 388.18 119.561 388.62 119.821 389.01L123.091 394H123.841V386.86H123.201V391.8C123.201 392.21 123.211 392.67 123.211 393.08C122.981 392.73 122.731 392.31 122.501 391.95L119.161 386.86H118.421ZM130.383 394H131.133L128.133 389.8L130.913 386.86H130.103L126.543 390.7V386.86H125.903V394H126.543V391.5L127.733 390.22L130.383 394ZM132.75 391.84H132.12C132.21 393.43 133.43 394.11 134.75 394.11C135.96 394.11 137.15 393.62 137.15 392.17C137.15 390.79 136.05 390.46 134.93 390.14C133.61 389.76 133.02 389.44 133.02 388.61C133.02 387.72 133.75 387.27 134.64 387.27C135.59 387.27 136.27 387.76 136.4 388.78H137.04C136.89 387.39 135.91 386.75 134.64 386.75C133.43 386.75 132.37 387.4 132.38 388.63C132.4 389.84 133.28 390.23 134.79 390.67C135.78 390.97 136.52 391.22 136.52 392.18C136.52 393.21 135.66 393.59 134.75 393.59C133.76 393.59 132.83 393 132.75 391.84ZM143.94 386.86H141.7V394H142.34V390.99H143.86C145.24 390.99 146.23 390.18 146.23 388.88C146.23 387.62 145.24 386.86 143.94 386.86ZM143.76 390.46H142.34V387.38H143.84C145 387.38 145.6 387.97 145.6 388.88C145.6 389.93 144.92 390.46 143.76 390.46ZM152.219 394H152.879L150.199 386.86H149.339L146.659 394H147.319L148.159 391.73H151.379L152.219 394ZM149.759 387.4H149.779L151.189 391.21H148.349L149.759 387.4ZM154.36 386.86V394H155V386.86H154.36ZM159.097 386.86H157.057V394H159.177C161.367 394 162.687 392.35 162.687 390.29C162.687 388.2 161.367 386.86 159.097 386.86ZM159.217 393.48H157.697V387.38H159.157C160.707 387.38 162.057 388.27 162.057 390.29C162.057 392.39 160.707 393.48 159.217 393.48Z" fill="black"/>
<path d="M32.11 455.99H31.48C31.17 456.9 30.37 457.58 29.01 457.58C27 457.58 26.04 456.02 26.04 454.44C26.04 452.85 27 451.3 29.01 451.3C30.35 451.3 31.11 451.93 31.46 452.85H32.1C31.67 451.63 30.68 450.77 29.01 450.77C26.72 450.77 25.4 452.42 25.4 454.44C25.4 456.45 26.72 458.1 29.01 458.1C30.7 458.1 31.8 457.19 32.11 455.99ZM33.9167 458.01H34.5567V454.9H36.1867C37.1467 454.9 37.4167 455.41 37.7067 456.25C37.9067 456.8 38.0867 457.47 38.3367 458H39.0167V457.95C38.7567 457.47 38.6167 457.08 38.4167 456.41C38.0767 455.33 37.8167 454.85 37.1767 454.69C38.0667 454.47 38.7067 453.83 38.7067 452.81C38.7067 451.72 37.9867 450.86 36.3667 450.86H33.9167V458.01ZM34.5567 454.38V451.38H36.3067C37.6767 451.38 38.0767 452.07 38.0767 452.81C38.0767 453.75 37.5167 454.38 36.3767 454.38H34.5567ZM41.3263 457.48V454.61H44.7663V454.09H41.3263V451.38H44.9763V450.86H40.6863V458H45.0063V457.48H41.3263ZM51.8694 458H52.5294L49.8494 450.86H48.9894L46.3094 458H46.9694L47.8094 455.73H51.0294L51.8694 458ZM49.4094 451.4H49.4294L50.8394 455.21H47.9994L49.4094 451.4ZM57.5951 450.86H52.4051V451.38H54.6851V458H55.3151V451.38H57.5951V450.86ZM59.711 457.48V454.61H63.151V454.09H59.711V451.38H63.361V450.86H59.071V458H63.391V457.48H59.711ZM67.1774 450.86H65.1374V458H67.2574C69.4474 458 70.7674 456.35 70.7674 454.29C70.7674 452.2 69.4474 450.86 67.1774 450.86ZM67.2974 457.48H65.7774V451.38H67.2374C68.7874 451.38 70.1374 452.27 70.1374 454.29C70.1374 456.39 68.7874 457.48 67.2974 457.48ZM77.479 450.86H75.239V458H75.879V454.99H77.399C78.779 454.99 79.769 454.18 79.769 452.88C79.769 451.62 78.779 450.86 77.479 450.86ZM77.299 454.46H75.879V451.38H77.379C78.539 451.38 79.139 451.97 79.139 452.88C79.139 453.93 78.459 454.46 77.299 454.46ZM85.758 458H86.418L83.738 450.86H82.878L80.198 458H80.858L81.698 455.73H84.918L85.758 458ZM83.298 451.4H83.318L84.728 455.21H81.888L83.298 451.4ZM86.3321 450.86L88.7821 455.1V458H89.4121V455.1L91.8621 450.86H91.1421C90.4721 452.07 89.7821 453.28 89.1121 454.48H89.0921C88.4121 453.28 87.7221 452.07 87.0521 450.86H86.3321ZM93.9513 457.48V450.86H93.3113V458H97.5513V457.48H93.9513ZM99.0359 450.86V458H99.6759V450.86H99.0359ZM101.733 450.86V458H102.373V453.23C102.373 452.76 102.363 452.26 102.363 451.8C102.623 452.18 102.873 452.62 103.133 453.01L106.403 458H107.153V450.86H106.513V455.8C106.513 456.21 106.523 456.67 106.523 457.08C106.293 456.73 106.043 456.31 105.813 455.95L102.473 450.86H101.733ZM113.696 458H114.446L111.446 453.8L114.226 450.86H113.416L109.856 454.7V450.86H109.216V458H109.856V455.5L111.046 454.22L113.696 458ZM116.062 455.84H115.432C115.522 457.43 116.742 458.11 118.062 458.11C119.272 458.11 120.462 457.62 120.462 456.17C120.462 454.79 119.362 454.46 118.242 454.14C116.922 453.76 116.332 453.44 116.332 452.61C116.332 451.72 117.062 451.27 117.952 451.27C118.902 451.27 119.582 451.76 119.712 452.78H120.352C120.202 451.39 119.222 450.75 117.952 450.75C116.742 450.75 115.682 451.4 115.692 452.63C115.712 453.84 116.592 454.23 118.102 454.67C119.092 454.97 119.832 455.22 119.832 456.18C119.832 457.21 118.972 457.59 118.062 457.59C117.072 457.59 116.142 457 116.062 455.84ZM127.252 450.86H125.012V458H125.652V454.99H127.172C128.552 454.99 129.542 454.18 129.542 452.88C129.542 451.62 128.552 450.86 127.252 450.86ZM127.072 454.46H125.652V451.38H127.152C128.312 451.38 128.912 451.97 128.912 452.88C128.912 453.93 128.232 454.46 127.072 454.46ZM131.719 457.48V454.61H135.159V454.09H131.719V451.38H135.369V450.86H131.079V458H135.399V457.48H131.719ZM137.214 458.01H137.854V454.9H139.484C140.444 454.9 140.714 455.41 141.004 456.25C141.204 456.8 141.384 457.47 141.634 458H142.314V457.95C142.054 457.47 141.914 457.08 141.714 456.41C141.374 455.33 141.114 454.85 140.474 454.69C141.364 454.47 142.004 453.83 142.004 452.81C142.004 451.72 141.284 450.86 139.664 450.86H137.214V458.01ZM137.854 454.38V451.38H139.604C140.974 451.38 141.374 452.07 141.374 452.81C141.374 453.75 140.814 454.38 139.674 454.38H137.854ZM151.719 458H152.379L149.699 450.86H148.839L146.159 458H146.819L147.659 455.73H150.879L151.719 458ZM149.259 451.4H149.279L150.689 455.21H147.849L149.259 451.4ZM159.946 455.99H159.316C159.006 456.9 158.206 457.58 156.846 457.58C154.836 457.58 153.876 456.02 153.876 454.44C153.876 452.85 154.836 451.3 156.846 451.3C158.186 451.3 158.946 451.93 159.296 452.85H159.936C159.506 451.63 158.516 450.77 156.846 450.77C154.556 450.77 153.236 452.42 153.236 454.44C153.236 456.45 154.556 458.1 156.846 458.1C158.536 458.1 159.636 457.19 159.946 455.99ZM165.816 450.86H160.626V451.38H162.906V458H163.536V451.38H165.816V450.86ZM167.292 450.86V458H167.932V450.86H167.292ZM169.329 450.86L171.999 458H172.809L175.479 450.86H174.789L172.419 457.35H172.389L170.029 450.86H169.329ZM177.525 457.48V454.61H180.965V454.09H177.525V451.38H181.175V450.86H176.885V458H181.205V457.48H177.525ZM186.215 455.84H185.585C185.675 457.43 186.895 458.11 188.215 458.11C189.425 458.11 190.615 457.62 190.615 456.17C190.615 454.79 189.515 454.46 188.395 454.14C187.075 453.76 186.485 453.44 186.485 452.61C186.485 451.72 187.215 451.27 188.105 451.27C189.055 451.27 189.735 451.76 189.865 452.78H190.505C190.355 451.39 189.375 450.75 188.105 450.75C186.895 450.75 185.835 451.4 185.845 452.63C185.865 453.84 186.745 454.23 188.255 454.67C189.245 454.97 189.985 455.22 189.985 456.18C189.985 457.21 189.125 457.59 188.215 457.59C187.225 457.59 186.295 457 186.215 455.84ZM193.049 457.48V454.61H196.489V454.09H193.049V451.38H196.699V450.86H192.409V458H196.729V457.48H193.049ZM199.115 457.48V450.86H198.475V458H202.715V457.48H199.115ZM204.84 457.48V450.86H204.2V458L208.44 458V457.48L204.84 457.48ZM210.565 457.48V454.61H214.005V454.09H210.565V451.38H214.215V450.86H209.925V458H214.245V457.48H210.565ZM216.059 458.01H216.699V454.9H218.329C219.289 454.9 219.559 455.41 219.849 456.25C220.049 456.8 220.229 457.47 220.479 458H221.159V457.95C220.899 457.47 220.759 457.08 220.559 456.41C220.219 455.33 219.959 454.85 219.319 454.69C220.209 454.47 220.849 453.83 220.849 452.81C220.849 451.72 220.129 450.86 218.509 450.86H216.059V458.01ZM216.699 454.38V451.38H218.449C219.819 451.38 220.219 452.07 220.219 452.81C220.219 453.75 219.659 454.38 218.519 454.38H216.699Z" fill="black"/>
<path d="M25 367H86.5" stroke="#0072FF"/>
<path d="M25 431H86.5" stroke="#FB534A"/>
</svg>
