<svg width="586" height="471" viewBox="0 0 586 471" fill="none" xmlns="http://www.w3.org/2000/svg">
<rect width="586" height="471" fill="#F9F9F9"/>
<path opacity="0.3" d="M75.9845 116C54.454 116 37 133.454 37 154.985C37 176.515 54.454 193.969 75.9845 193.969L75.9845 116Z" fill="#0072FF"/>
<path opacity="0.5" d="M429.5 153C429.5 139.636 440.2 128.771 453.5 128.505L453.5 177.495C440.2 177.229 429.5 166.364 429.5 153Z" stroke="black"/>
<path opacity="0.3" d="M33 391C33 414.748 52.2518 434 76 434V348C52.2518 348 33 367.252 33 391Z" fill="#0072FF"/>
<path d="M72 383C72 385.209 73.7909 387 76 387V379C73.7909 379 72 380.791 72 383Z" fill="#FB534A"/>
<path opacity="0.3" d="M76 253C43.4152 253 17 279.415 17 312C17 344.585 43.4152 371 76 371L76 253Z" fill="#0072FF"/>
<path d="M65.4353 303.689C65.4353 309.561 70.1955 314.321 76.0674 314.321V293.057C70.1955 293.057 65.4353 297.817 65.4353 303.689Z" fill="#FB534A"/>
<path opacity="0.3" d="M29.9949 233C29.9949 258.405 50.5898 279 75.9949 279V187C50.5898 187 29.9949 207.595 29.9949 233Z" fill="#0072FF"/>
<path d="M60.7098 225.72C60.7098 234.202 67.5856 241.078 76.0674 241.078V210.363C67.5856 210.363 60.7098 217.239 60.7098 225.72Z" fill="#FB534A"/>
<path opacity="0.3" d="M76 43C58.3269 43 44 57.3269 44 75C44 92.6731 58.3269 107 76 107L76 43Z" fill="#0072FF"/>
<path d="M432.02 39.86H429.78V47H430.42V43.99H431.94C433.32 43.99 434.31 43.18 434.31 41.88C434.31 40.62 433.32 39.86 432.02 39.86ZM431.84 43.46H430.42V40.38H431.92C433.08 40.38 433.68 40.97 433.68 41.88C433.68 42.93 433 43.46 431.84 43.46ZM440.299 47H440.959L438.279 39.86H437.419L434.739 47H435.399L436.239 44.73H439.459L440.299 47ZM437.839 40.4H437.859L439.269 44.21H436.429L437.839 40.4ZM440.873 39.86L443.323 44.1V47H443.953V44.1L446.403 39.86H445.683C445.013 41.07 444.323 42.28 443.653 43.48H443.633C442.953 42.28 442.263 41.07 441.593 39.86H440.873ZM451.063 46.48V39.86H450.423V47H454.663V46.48H451.063ZM461.42 47H462.08L459.4 39.86H458.54L455.86 47H456.52L457.36 44.73H460.58L461.42 47ZM458.96 40.4H458.98L460.39 44.21H457.55L458.96 40.4ZM467.146 39.86H461.956V40.38H464.236V47H464.866V40.38H467.146V39.86ZM469.262 46.48V43.61H472.702V43.09H469.262V40.38H472.912V39.86H468.622V47H472.942V46.48H469.262ZM474.757 47.01H475.397V43.9H477.027C477.987 43.9 478.257 44.41 478.547 45.25C478.747 45.8 478.927 46.47 479.177 47H479.857V46.95C479.597 46.47 479.457 46.08 479.257 45.41C478.917 44.33 478.657 43.85 478.017 43.69C478.907 43.47 479.547 42.83 479.547 41.81C479.547 40.72 478.827 39.86 477.207 39.86H474.757V47.01ZM475.397 43.38V40.38H477.147C478.517 40.38 478.917 41.07 478.917 41.81C478.917 42.75 478.357 43.38 477.217 43.38H475.397ZM488.892 39.86H483.702V40.38H485.982V47H486.612V40.38H488.892V39.86ZM490.368 47.01H491.008V43.9L492.638 43.9C493.598 43.9 493.868 44.41 494.158 45.25C494.358 45.8 494.538 46.47 494.788 47H495.468V46.95C495.208 46.47 495.068 46.08 494.868 45.41C494.528 44.33 494.268 43.85 493.628 43.69C494.518 43.47 495.158 42.83 495.158 41.81C495.158 40.72 494.438 39.86 492.818 39.86H490.368V47.01ZM491.008 43.38V40.38L492.758 40.38C494.128 40.38 494.528 41.07 494.528 41.81C494.528 42.75 493.968 43.38 492.828 43.38L491.008 43.38ZM502.215 47H502.875L500.195 39.86H499.335L496.655 47H497.315L498.155 44.73H501.375L502.215 47ZM499.755 40.4H499.775L501.185 44.21H498.345L499.755 40.4ZM504.356 39.86V47H504.996V42.23C504.996 41.76 504.986 41.26 504.986 40.8C505.246 41.18 505.496 41.62 505.756 42.01L509.026 47H509.776V39.86H509.136V44.8C509.136 45.21 509.146 45.67 509.146 46.08C508.916 45.73 508.666 45.31 508.436 44.95L505.096 39.86H504.356ZM512.219 44.84H511.589C511.679 46.43 512.899 47.11 514.219 47.11C515.429 47.11 516.619 46.62 516.619 45.17C516.619 43.79 515.519 43.46 514.399 43.14C513.079 42.76 512.489 42.44 512.489 41.61C512.489 40.72 513.219 40.27 514.109 40.27C515.059 40.27 515.739 40.76 515.869 41.78H516.509C516.359 40.39 515.379 39.75 514.109 39.75C512.899 39.75 511.839 40.4 511.849 41.63C511.869 42.84 512.749 43.23 514.259 43.67C515.249 43.97 515.989 44.22 515.989 45.18C515.989 46.21 515.129 46.59 514.219 46.59C513.229 46.59 512.299 46 512.219 44.84ZM523.295 47H523.955L521.275 39.86H520.415L517.735 47H518.395L519.235 44.73H522.455L523.295 47ZM520.835 40.4H520.855L522.265 44.21H519.425L520.835 40.4ZM531.522 44.99H530.892C530.582 45.9 529.782 46.58 528.422 46.58C526.412 46.58 525.452 45.02 525.452 43.44C525.452 41.85 526.412 40.3 528.422 40.3C529.762 40.3 530.522 40.93 530.872 41.85H531.512C531.082 40.63 530.092 39.77 528.422 39.77C526.132 39.77 524.812 41.42 524.812 43.44C524.812 45.45 526.132 47.1 528.422 47.1C530.112 47.1 531.212 46.19 531.522 44.99ZM537.392 39.86H532.202V40.38H534.482V47H535.112V40.38H537.392V39.86ZM538.868 39.86V47H539.508V39.86H538.868ZM544.835 39.74C542.555 39.74 541.195 41.42 541.195 43.44C541.195 45.45 542.555 47.13 544.835 47.13C547.105 47.13 548.475 45.45 548.475 43.44C548.475 41.42 547.105 39.74 544.835 39.74ZM544.835 46.6C542.815 46.6 541.835 45 541.835 43.44C541.835 41.87 542.815 40.26 544.835 40.26C546.855 40.26 547.845 41.87 547.845 43.44C547.845 45 546.855 46.6 544.835 46.6ZM550.161 39.86V47H550.801V42.23C550.801 41.76 550.791 41.26 550.791 40.8C551.051 41.18 551.301 41.62 551.561 42.01L554.831 47H555.581V39.86H554.941V44.8C554.941 45.21 554.951 45.67 554.951 46.08C554.721 45.73 554.471 45.31 554.241 44.95L550.901 39.86H550.161ZM558.023 44.84H557.393C557.483 46.43 558.703 47.11 560.023 47.11C561.233 47.11 562.423 46.62 562.423 45.17C562.423 43.79 561.323 43.46 560.203 43.14C558.883 42.76 558.293 42.44 558.293 41.61C558.293 40.72 559.023 40.27 559.913 40.27C560.863 40.27 561.543 40.76 561.673 41.78H562.313C562.163 40.39 561.183 39.75 559.913 39.75C558.703 39.75 557.643 40.4 557.653 41.63C557.673 42.84 558.553 43.23 560.063 43.67C561.053 43.97 561.793 44.22 561.793 45.18C561.793 46.21 560.933 46.59 560.023 46.59C559.033 46.59 558.103 46 558.023 44.84Z" fill="black"/>
<path d="M432.02 91.86H429.78V99H430.42V95.99H431.94C433.32 95.99 434.31 95.18 434.31 93.88C434.31 92.62 433.32 91.86 432.02 91.86ZM431.84 95.46H430.42V92.38H431.92C433.08 92.38 433.68 92.97 433.68 93.88C433.68 94.93 433 95.46 431.84 95.46ZM440.299 99H440.959L438.279 91.86H437.419L434.739 99H435.399L436.239 96.73H439.459L440.299 99ZM437.839 92.4H437.859L439.269 96.21H436.429L437.839 92.4ZM440.873 91.86L443.323 96.1V99H443.953V96.1L446.403 91.86H445.683C445.013 93.07 444.323 94.28 443.653 95.48H443.633C442.953 94.28 442.263 93.07 441.593 91.86H440.873ZM450.423 91.86V99H451.063V94.23C451.063 93.76 451.053 93.26 451.053 92.8C451.313 93.18 451.563 93.62 451.823 94.01L455.093 99H455.843V91.86H455.203V96.8C455.203 97.21 455.213 97.67 455.213 98.08C454.983 97.73 454.733 97.31 454.503 96.95L451.163 91.86H450.423ZM461.175 91.74C458.895 91.74 457.535 93.42 457.535 95.44C457.535 97.45 458.895 99.13 461.175 99.13C463.445 99.13 464.815 97.45 464.815 95.44C464.815 93.42 463.445 91.74 461.175 91.74ZM461.175 98.6C459.155 98.6 458.175 97 458.175 95.44C458.175 93.87 459.155 92.26 461.175 92.26C463.195 92.26 464.185 93.87 464.185 95.44C464.185 97 463.195 98.6 461.175 98.6ZM465.684 91.86L467.084 97.22L467.554 99H468.424L468.854 97.22L470.014 92.52H470.024L471.164 97.21L471.594 99H472.484L474.374 91.86H473.694L472.344 97.19L472.054 98.34H472.044L471.744 97.2L470.474 91.86H469.574L468.274 97.22L468.004 98.34H467.984L467.694 97.22L466.354 91.86H465.684ZM483.097 91.86H477.907V92.38H480.187V99H480.817V92.38H483.097V91.86ZM484.573 99.01H485.213V95.9H486.843C487.803 95.9 488.073 96.41 488.363 97.25C488.563 97.8 488.743 98.47 488.993 99H489.673V98.95C489.413 98.47 489.273 98.08 489.073 97.41C488.733 96.33 488.473 95.85 487.833 95.69C488.723 95.47 489.363 94.83 489.363 93.81C489.363 92.72 488.643 91.86 487.023 91.86H484.573V99.01ZM485.213 95.38V92.38H486.963C488.333 92.38 488.733 93.07 488.733 93.81C488.733 94.75 488.173 95.38 487.033 95.38H485.213ZM496.42 99H497.08L494.4 91.86H493.54L490.86 99H491.52L492.36 96.73H495.58L496.42 99ZM493.96 92.4H493.98L495.39 96.21H492.55L493.96 92.4ZM498.561 91.86V99H499.201V94.23C499.201 93.76 499.191 93.26 499.191 92.8C499.451 93.18 499.701 93.62 499.961 94.01L503.231 99H503.981V91.86H503.341V96.8C503.341 97.21 503.351 97.67 503.351 98.08C503.121 97.73 502.871 97.31 502.641 96.95L499.301 91.86H498.561ZM506.424 96.84H505.794C505.884 98.43 507.104 99.11 508.424 99.11C509.634 99.11 510.824 98.62 510.824 97.17C510.824 95.79 509.724 95.46 508.604 95.14C507.284 94.76 506.694 94.44 506.694 93.61C506.694 92.72 507.424 92.27 508.314 92.27C509.264 92.27 509.944 92.76 510.074 93.78H510.714C510.564 92.39 509.584 91.75 508.314 91.75C507.104 91.75 506.044 92.4 506.054 93.63C506.074 94.84 506.954 95.23 508.464 95.67C509.454 95.97 510.194 96.22 510.194 97.18C510.194 98.21 509.334 98.59 508.424 98.59C507.434 98.59 506.504 98 506.424 96.84ZM517.5 99H518.16L515.48 91.86H514.62L511.94 99H512.6L513.44 96.73H516.66L517.5 99ZM515.04 92.4H515.06L516.47 96.21H513.63L515.04 92.4ZM525.727 96.99H525.097C524.787 97.9 523.987 98.58 522.627 98.58C520.617 98.58 519.657 97.02 519.657 95.44C519.657 93.85 520.617 92.3 522.627 92.3C523.967 92.3 524.727 92.93 525.077 93.85H525.717C525.287 92.63 524.297 91.77 522.627 91.77C520.337 91.77 519.017 93.42 519.017 95.44C519.017 97.45 520.337 99.1 522.627 99.1C524.317 99.1 525.417 98.19 525.727 96.99ZM531.597 91.86H526.407V92.38H528.687V99H529.317V92.38H531.597V91.86ZM533.073 91.86V99H533.713V91.86H533.073ZM539.04 91.74C536.76 91.74 535.4 93.42 535.4 95.44C535.4 97.45 536.76 99.13 539.04 99.13C541.31 99.13 542.68 97.45 542.68 95.44C542.68 93.42 541.31 91.74 539.04 91.74ZM539.04 98.6C537.02 98.6 536.04 97 536.04 95.44C536.04 93.87 537.02 92.26 539.04 92.26C541.06 92.26 542.05 93.87 542.05 95.44C542.05 97 541.06 98.6 539.04 98.6ZM544.366 91.86V99H545.006V94.23C545.006 93.76 544.996 93.26 544.996 92.8C545.256 93.18 545.506 93.62 545.766 94.01L549.036 99H549.786V91.86H549.146V96.8C549.146 97.21 549.156 97.67 549.156 98.08C548.926 97.73 548.676 97.31 548.446 96.95L545.106 91.86H544.366ZM552.228 96.84H551.598C551.688 98.43 552.908 99.11 554.228 99.11C555.438 99.11 556.628 98.62 556.628 97.17C556.628 95.79 555.528 95.46 554.408 95.14C553.088 94.76 552.498 94.44 552.498 93.61C552.498 92.72 553.228 92.27 554.118 92.27C555.068 92.27 555.748 92.76 555.878 93.78H556.518C556.368 92.39 555.388 91.75 554.118 91.75C552.908 91.75 551.848 92.4 551.858 93.63C551.878 94.84 552.758 95.23 554.268 95.67C555.258 95.97 555.998 96.22 555.998 97.18C555.998 98.21 555.138 98.59 554.228 98.59C553.238 98.59 552.308 98 552.228 96.84Z" fill="black"/>
<path d="M480.45 152.871H481.58C481.66 153.051 481.71 153.251 481.71 153.461C481.71 154.611 481.09 155.031 480.5 155.631L480.88 156.161C481.19 155.951 481.5 155.821 481.89 155.821C482.28 155.821 482.68 155.911 483.01 156.001C483.35 156.101 483.78 156.191 484.11 156.191C484.64 156.191 485.23 156.041 485.63 155.731L485.34 155.291C485.09 155.491 484.63 155.651 484.3 155.671C483.97 155.681 483.63 155.601 483.36 155.531C483.09 155.461 482.7 155.331 482.26 155.321C481.94 155.321 481.65 155.351 481.21 155.551C481.79 155.061 482.35 154.441 482.35 153.461C482.35 153.261 482.31 153.061 482.24 152.871H484.02V152.391H482.01C481.7 151.831 481.29 151.321 481.29 150.721C481.29 149.811 482.04 149.261 483.01 149.261C484.12 149.261 484.62 149.891 484.76 150.891H485.38C485.28 149.641 484.51 148.721 483.01 148.721C481.68 148.721 480.66 149.531 480.67 150.751C480.67 151.451 481.02 151.931 481.3 152.391H480.45V152.871ZM489.702 151.261C488.922 151.261 488.322 151.591 487.982 152.051L488.382 149.411H491.462V148.891H487.902L487.352 152.721L487.972 152.791C488.212 152.361 488.752 151.791 489.642 151.791C490.782 151.791 491.422 152.521 491.422 153.711C491.422 154.981 490.522 155.631 489.582 155.631C488.652 155.631 487.902 155.031 487.802 154.121H487.202C487.292 155.381 488.342 156.151 489.582 156.151C491.102 156.151 492.022 155.041 492.022 153.711C492.022 152.151 491.132 151.261 489.702 151.261ZM493.791 154.881L493.301 157.191H493.801L494.471 154.881H493.791ZM498.317 148.851C496.477 148.851 495.817 150.641 495.817 152.461C495.817 154.291 496.477 156.151 498.317 156.151C500.157 156.151 500.807 154.281 500.807 152.461C500.807 150.641 500.157 148.851 498.317 148.851ZM498.317 155.631C496.917 155.631 496.417 153.911 496.417 152.451C496.417 151.001 496.917 149.371 498.317 149.371C499.717 149.371 500.207 151.021 500.207 152.451C500.207 153.911 499.717 155.631 498.317 155.631ZM504.726 148.851C502.886 148.851 502.226 150.641 502.226 152.461C502.226 154.291 502.886 156.151 504.726 156.151C506.566 156.151 507.216 154.281 507.216 152.461C507.216 150.641 506.566 148.851 504.726 148.851ZM504.726 155.631C503.326 155.631 502.826 153.911 502.826 152.451C502.826 151.001 503.326 149.371 504.726 149.371C506.126 149.371 506.616 151.021 506.616 152.451C506.616 153.911 506.126 155.631 504.726 155.631ZM511.134 148.851C509.294 148.851 508.634 150.641 508.634 152.461C508.634 154.291 509.294 156.151 511.134 156.151C512.974 156.151 513.624 154.281 513.624 152.461C513.624 150.641 512.974 148.851 511.134 148.851ZM511.134 155.631C509.734 155.631 509.234 153.911 509.234 152.451C509.234 151.001 509.734 149.371 511.134 149.371C512.534 149.371 513.024 151.021 513.024 152.451C513.024 153.911 512.534 155.631 511.134 155.631Z" fill="black"/>
<path opacity="0.2" fill-rule="evenodd" clip-rule="evenodd" d="M347 434L347 43L348 43L348 434L347 434Z" fill="black"/>
<path opacity="0.2" fill-rule="evenodd" clip-rule="evenodd" d="M280 434L280 43L281 43L281 434L280 434Z" fill="black"/>
<path opacity="0.2" fill-rule="evenodd" clip-rule="evenodd" d="M211 434L211 43L212 43L212 434L211 434Z" fill="black"/>
<path opacity="0.2" fill-rule="evenodd" clip-rule="evenodd" d="M144 434L144 43L145 43L145 434L144 434Z" fill="black"/>
<path d="M339.966 27.5C340.166 26.48 341.186 25.92 342.076 25.22C342.806 24.65 343.696 24.09 343.696 22.79C343.696 21.67 342.936 20.82 341.546 20.82C340.106 20.82 339.316 21.72 339.296 23.09H339.896C339.926 22.03 340.486 21.32 341.526 21.32C342.596 21.32 343.096 22 343.096 22.81C343.096 23.8 342.496 24.23 341.466 24.97C340.496 25.67 339.326 26.43 339.226 28H343.796V27.5H339.966ZM347.644 20.82C345.804 20.82 345.144 22.61 345.144 24.43C345.144 26.26 345.804 28.12 347.644 28.12C349.484 28.12 350.134 26.25 350.134 24.43C350.134 22.61 349.484 20.82 347.644 20.82ZM347.644 27.6C346.244 27.6 345.744 25.88 345.744 24.42C345.744 22.97 346.244 21.34 347.644 21.34C349.044 21.34 349.534 22.99 349.534 24.42C349.534 25.88 349.044 27.6 347.644 27.6ZM354.052 20.82C352.212 20.82 351.552 22.61 351.552 24.43C351.552 26.26 352.212 28.12 354.052 28.12C355.892 28.12 356.542 26.25 356.542 24.43C356.542 22.61 355.892 20.82 354.052 20.82ZM354.052 27.6C352.652 27.6 352.152 25.88 352.152 24.42C352.152 22.97 352.652 21.34 354.052 21.34C355.452 21.34 355.942 22.99 355.942 24.42C355.942 25.88 355.452 27.6 354.052 27.6Z" fill="black"/>
<path d="M205.688 20.86C205.528 22.07 205.258 22.13 203.958 22.13V22.58H205.558V28H206.158V20.86H205.688ZM210.644 20.82C208.804 20.82 208.144 22.61 208.144 24.43C208.144 26.26 208.804 28.12 210.644 28.12C212.484 28.12 213.134 26.25 213.134 24.43C213.134 22.61 212.484 20.82 210.644 20.82ZM210.644 27.6C209.244 27.6 208.744 25.88 208.744 24.42C208.744 22.97 209.244 21.34 210.644 21.34C212.044 21.34 212.534 22.99 212.534 24.42C212.534 25.88 212.044 27.6 210.644 27.6ZM217.052 20.82C215.212 20.82 214.552 22.61 214.552 24.43C214.552 26.26 215.212 28.12 217.052 28.12C218.892 28.12 219.542 26.25 219.542 24.43C219.542 22.61 218.892 20.82 217.052 20.82ZM217.052 27.6C215.652 27.6 215.152 25.88 215.152 24.42C215.152 22.97 215.652 21.34 217.052 21.34C218.452 21.34 218.942 22.99 218.942 24.42C218.942 25.88 218.452 27.6 217.052 27.6Z" fill="black"/>
<path d="M274.835 20.86C274.675 22.07 274.405 22.13 273.105 22.13V22.58H274.705V28H275.305V20.86H274.835ZM279.87 23.23C279.09 23.23 278.49 23.56 278.15 24.02L278.55 21.38H281.63V20.86H278.07L277.52 24.69L278.14 24.76C278.38 24.33 278.92 23.76 279.81 23.76C280.95 23.76 281.59 24.49 281.59 25.68C281.59 26.95 280.69 27.6 279.75 27.6C278.82 27.6 278.07 27 277.97 26.09H277.37C277.46 27.35 278.51 28.12 279.75 28.12C281.27 28.12 282.19 27.01 282.19 25.68C282.19 24.12 281.3 23.23 279.87 23.23ZM286.052 20.82C284.212 20.82 283.552 22.61 283.552 24.43C283.552 26.26 284.212 28.12 286.052 28.12C287.892 28.12 288.542 26.25 288.542 24.43C288.542 22.61 287.892 20.82 286.052 20.82ZM286.052 27.6C284.652 27.6 284.152 25.88 284.152 24.42C284.152 22.97 284.652 21.34 286.052 21.34C287.452 21.34 287.942 22.99 287.942 24.42C287.942 25.88 287.452 27.6 286.052 27.6Z" fill="black"/>
<path d="M141.87 23.23C141.09 23.23 140.49 23.56 140.15 24.02L140.55 21.38H143.63V20.86H140.07L139.52 24.69L140.14 24.76C140.38 24.33 140.92 23.76 141.81 23.76C142.95 23.76 143.59 24.49 143.59 25.68C143.59 26.95 142.69 27.6 141.75 27.6C140.82 27.6 140.07 27 139.97 26.09H139.37C139.46 27.35 140.51 28.12 141.75 28.12C143.27 28.12 144.19 27.01 144.19 25.68C144.19 24.12 143.3 23.23 141.87 23.23ZM148.052 20.82C146.212 20.82 145.552 22.61 145.552 24.43C145.552 26.26 146.212 28.12 148.052 28.12C149.892 28.12 150.542 26.25 150.542 24.43C150.542 22.61 149.892 20.82 148.052 20.82ZM148.052 27.6C146.652 27.6 146.152 25.88 146.152 24.42C146.152 22.97 146.652 21.34 148.052 21.34C149.452 21.34 149.942 22.99 149.942 24.42C149.942 25.88 149.452 27.6 148.052 27.6Z" fill="black"/>
<path d="M76.0518 20.82C74.2118 20.82 73.5518 22.61 73.5518 24.43C73.5518 26.26 74.2118 28.12 76.0518 28.12C77.8918 28.12 78.5418 26.25 78.5418 24.43C78.5418 22.61 77.8918 20.82 76.0518 20.82ZM76.0518 27.6C74.6518 27.6 74.1518 25.88 74.1518 24.42C74.1518 22.97 74.6518 21.34 76.0518 21.34C77.4518 21.34 77.9418 22.99 77.9418 24.42C77.9418 25.88 77.4518 27.6 76.0518 27.6Z" fill="black"/>
<path d="M361.92 382.715L360.478 381.273L355.429 386.321L356.928 387.82C358.477 389.369 360.577 389.136 362.033 387.679C363.511 386.201 363.525 384.32 361.92 382.715ZM357.324 387.481L356.249 386.406L360.563 382.093L361.595 383.125C362.691 384.221 363.016 385.805 361.588 387.233C360.103 388.718 358.378 388.535 357.324 387.481ZM361.423 391.58L363.452 389.55L365.885 391.983L366.252 391.615L363.82 389.183L365.736 387.266L368.317 389.847L368.685 389.479L365.651 386.446L360.602 391.495L363.657 394.549L364.025 394.182L361.423 391.58ZM370.72 398.77L370.275 398.325C369.412 398.749 368.366 398.664 367.404 397.702C365.983 396.281 366.407 394.499 367.524 393.382C368.648 392.258 370.423 391.84 371.845 393.262C372.792 394.209 372.884 395.192 372.481 396.09L372.934 396.543C373.492 395.376 373.4 394.068 372.219 392.887C370.6 391.268 368.5 391.501 367.072 392.929C365.65 394.351 365.417 396.451 367.036 398.07C368.231 399.265 369.653 399.399 370.72 398.77Z" fill="black"/>
<path d="M362.329 222.262C360.717 220.65 358.567 220.876 357.139 222.305C355.718 223.726 355.491 225.875 357.104 227.488C358.709 229.093 360.865 228.874 362.287 227.452C363.715 226.024 363.934 223.867 362.329 222.262ZM357.478 227.113C356.05 225.684 356.488 223.86 357.592 222.757C358.702 221.647 360.533 221.201 361.961 222.63C363.39 224.058 362.951 225.897 361.841 227.007C360.738 228.11 358.907 228.541 357.478 227.113ZM366.804 234.161L366.358 233.716C365.495 234.14 364.449 234.055 363.487 233.093C362.066 231.672 362.49 229.89 363.607 228.773C364.732 227.649 366.507 227.231 367.928 228.653C368.875 229.6 368.967 230.583 368.564 231.481L369.017 231.934C369.575 230.767 369.483 229.459 368.303 228.278C366.683 226.659 364.583 226.892 363.155 228.32C361.734 229.742 361.5 231.842 363.12 233.461C364.315 234.656 365.736 234.79 366.804 234.161ZM374.582 234.684L370.912 231.014L370.544 231.382L372.156 232.994L367.475 237.675L367.921 238.121L372.602 233.44L374.214 235.052L374.582 234.684Z" fill="black"/>
<path d="M358.495 68.0029L358.961 68.4696L362.115 61.5258L361.507 60.9177L354.563 64.0714L355.03 64.538L357.229 63.5269L359.506 65.8038L358.495 68.0029ZM361.422 61.5965L361.436 61.6106L359.739 65.3017L357.731 63.2935L361.422 61.5965ZM365.197 71.127L368.456 67.8672L368.011 67.4217L364.751 70.6815C363.917 71.5159 362.807 71.7351 361.88 70.8088C360.961 69.8895 361.18 68.7794 362.015 67.945L365.274 64.6852L364.822 64.2327L361.562 67.4924C360.501 68.5531 360.261 69.939 361.506 71.1835C362.757 72.4351 364.136 72.1876 365.197 71.127ZM369.617 74.1328L369.249 74.5005L370.967 76.2046C369.815 77.3572 368.372 77.3147 367.304 76.247C365.919 74.8611 366.442 73.1216 367.545 72.0185C368.655 70.9084 370.451 70.4417 371.837 71.8276C372.827 72.8175 372.777 73.8004 372.374 74.5995L372.82 75.0449C373.386 74.0126 373.428 72.6691 372.212 71.4528C370.628 69.8689 368.507 70.1518 367.092 71.566C365.685 72.9731 365.325 75.0167 366.93 76.6218C367.927 77.6188 368.987 77.7037 369.921 77.3077L368.881 78.3896L369.207 78.7148L371.773 76.2894L369.617 74.1328Z" fill="black"/>
<path d="M359.601 300.05L354.552 305.098L355.005 305.551L358.377 302.178C358.71 301.846 359.056 301.485 359.382 301.16C359.297 301.612 359.162 302.1 359.07 302.56L357.854 308.401L358.385 308.931L363.433 303.882L362.981 303.43L359.488 306.923C359.198 307.213 358.879 307.545 358.59 307.835C358.674 307.425 358.795 306.951 358.887 306.534L360.124 300.573L359.601 300.05ZM367.289 307.568C365.676 305.955 363.527 306.182 362.098 307.61C360.677 309.031 360.451 311.181 362.063 312.793C363.668 314.398 365.825 314.179 367.246 312.758C368.674 311.329 368.894 309.173 367.289 307.568ZM362.438 312.418C361.009 310.99 361.448 309.166 362.551 308.063C363.661 306.953 365.492 306.507 366.921 307.935C368.349 309.364 367.911 311.202 366.801 312.312C365.698 313.415 363.866 313.847 362.438 312.418ZM370.282 310.731L367.121 317.668L367.694 318.24L374.631 315.08L374.143 314.592L367.878 317.505L367.857 317.484L370.777 311.226L370.282 310.731Z" fill="black"/>
<path d="M354.779 141.579L354.334 141.133C353.273 142.321 353.655 143.665 354.588 144.598C355.444 145.454 356.632 145.949 357.657 144.923C358.633 143.947 358.088 142.936 357.523 141.918C356.858 140.716 356.667 140.073 357.254 139.486C357.883 138.856 358.718 139.054 359.347 139.684C360.019 140.355 360.153 141.183 359.524 141.996L359.976 142.448C360.853 141.359 360.613 140.214 359.715 139.316C358.859 138.46 357.65 138.17 356.787 139.047C355.946 139.917 356.292 140.815 357.049 142.194C357.537 143.106 357.883 143.806 357.205 144.485C356.476 145.213 355.599 144.874 354.956 144.23C354.256 143.53 354.015 142.455 354.779 141.579ZM358.452 147.571L360.481 145.541L362.914 147.974L363.282 147.606L360.849 145.174L362.765 143.257L365.346 145.838L365.714 145.471L362.681 142.437L357.632 147.486L360.686 150.541L361.054 150.173L358.452 147.571ZM368.554 148.311L366.97 146.727L361.921 151.776L362.374 152.228L364.502 150.1L365.577 151.175C366.553 152.15 367.826 152.278 368.745 151.358C369.636 150.467 369.473 149.23 368.554 148.311ZM365.881 150.729L364.877 149.725L367.055 147.547L368.116 148.608C368.936 149.428 368.943 150.269 368.299 150.913C367.557 151.655 366.701 151.549 365.881 150.729ZM374.582 154.338L370.912 150.668L370.544 151.036L372.156 152.648L367.475 157.329L367.921 157.775L372.602 153.094L374.214 154.706L374.582 154.338Z" fill="black"/>
<rect opacity="0.9" x="256" y="65" width="4" height="180" transform="rotate(90 256 65)" fill="#FB534A"/>
<rect x="113" y="73" width="4" height="37" transform="rotate(90 113 73)" fill="#0072FF"/>
<rect opacity="0.9" x="466" y="24" width="4" height="37" transform="rotate(90 466 24)" fill="#0072FF"/>
<rect x="466" y="76" width="4" height="37" transform="rotate(90 466 76)" fill="#FB534A"/>
<path d="M75.9949 134C68.818 134 63.0001 139.818 63.0001 146.995C63.0001 154.172 68.818 159.99 75.9949 159.99L75.9949 134Z" fill="#FB534A"/>
<rect x="113" y="152" width="4" height="37" transform="rotate(90 113 152)" fill="#0072FF"/>
<rect opacity="0.9" x="280" y="144" width="4" height="204" transform="rotate(90 280 144)" fill="#FB534A"/>
<rect opacity="0.9" x="302" y="223" width="4" height="226" transform="rotate(90 302 223)" fill="#FB534A"/>
<rect x="114" y="231" width="4" height="38" transform="rotate(90 114 231)" fill="#0072FF"/>
<rect opacity="0.9" x="308" y="381" width="4" height="232" transform="rotate(90 308 381)" fill="#FB534A"/>
<rect opacity="0.8" x="116" y="389" width="4" height="40" transform="rotate(90 116 389)" fill="#0072FF"/>
<rect opacity="0.9" x="321" y="302" width="4" height="245" transform="rotate(90 321 302)" fill="#FB534A"/>
<rect x="116" y="310" width="4" height="40" transform="rotate(90 116 310)" fill="#0072FF"/>
<path d="M76 60.8135C72.6863 60.8135 70 63.4998 70 66.8135C70 70.1272 72.6863 72.8135 76 72.8135L76 60.8135Z" fill="#FB534A"/>
<path d="M466 128.031L464.557 130.531L467.443 130.531L466 128.031ZM466 178.031L467.443 175.531L464.557 175.531L466 178.031ZM465.75 130.281L465.75 175.781L466.25 175.781L466.25 130.281L465.75 130.281Z" fill="black"/>
</svg>
