<svg width="233" height="100" viewBox="0 0 233 100" fill="none" xmlns="http://www.w3.org/2000/svg">
<path d="M5.39 3.86H0.2V4.38H2.48V11H3.11V4.38H5.39V3.86ZM7.50594 10.48V7.61H10.9459V7.09H7.50594V4.38H11.1559V3.86H6.86594V11H11.1859V10.48H7.50594ZM13.1854 8.84H12.5554C12.6454 10.43 13.8654 11.11 15.1854 11.11C16.3954 11.11 17.5854 10.62 17.5854 9.17C17.5854 7.79 16.4854 7.46 15.3654 7.14C14.0454 6.76 13.4554 6.44 13.4554 5.61C13.4554 4.72 14.1854 4.27 15.0754 4.27C16.0254 4.27 16.7054 4.76 16.8354 5.78H17.4754C17.3254 4.39 16.3454 3.75 15.0754 3.75C13.8654 3.75 12.8054 4.4 12.8154 5.63C12.8354 6.84 13.7154 7.23 15.2254 7.67C16.2154 7.97 16.9554 8.22 16.9554 9.18C16.9554 10.21 16.0954 10.59 15.1854 10.59C14.1954 10.59 13.2654 10 13.1854 8.84ZM24.0189 3.86H18.8289V4.38H21.1089V11H21.7389V4.38H24.0189V3.86ZM28.2116 11H28.8516V4.67H28.8616L31.2116 11H31.9116L34.2616 4.67H34.2716V11H34.9116V3.86H33.9116L31.5716 10.23H31.5616L29.2116 3.86H28.2116V11ZM37.6134 10.48V7.61H41.0534V7.09H37.6134V4.38H41.2634V3.86H36.9734V11H41.2934V10.48H37.6134ZM43.1081 11.01H43.7481V7.9H45.3781C46.3381 7.9 46.6081 8.41 46.8981 9.25C47.0981 9.8 47.2781 10.47 47.5281 11H48.2081V10.95C47.9481 10.47 47.8081 10.08 47.6081 9.41C47.2681 8.33 47.0081 7.85 46.3681 7.69C47.2581 7.47 47.8981 6.83 47.8981 5.81C47.8981 4.72 47.1781 3.86 45.5581 3.86H43.1081V11.01ZM43.7481 7.38V4.38H45.4981C46.8681 4.38 47.2681 5.07 47.2681 5.81C47.2681 6.75 46.7081 7.38 45.5681 7.38H43.7481ZM56.1295 8.99H55.4995C55.1895 9.9 54.3895 10.58 53.0295 10.58C51.0195 10.58 50.0595 9.02 50.0595 7.44C50.0595 5.85 51.0195 4.3 53.0295 4.3C54.3695 4.3 55.1295 4.93 55.4795 5.85H56.1195C55.6895 4.63 54.6995 3.77 53.0295 3.77C50.7395 3.77 49.4195 5.42 49.4195 7.44C49.4195 9.45 50.7395 11.1 53.0295 11.1C54.7195 11.1 55.8195 10.19 56.1295 8.99ZM62.436 3.86V7.11H58.586V3.86H57.946V11H58.586V7.63H62.436V11H63.066V3.86H62.436ZM70.1155 11H70.7755L68.0955 3.86H67.2355L64.5555 11H65.2155L66.0555 8.73H69.2755L70.1155 11ZM67.6555 4.4H67.6755L69.0855 8.21H66.2455L67.6555 4.4ZM72.2566 3.86V11H72.8966V6.23C72.8966 5.76 72.8866 5.26 72.8866 4.8C73.1466 5.18 73.3966 5.62 73.6566 6.01L76.9266 11H77.6766V3.86H77.0366V8.8C77.0366 9.21 77.0466 9.67 77.0466 10.08C76.8166 9.73 76.5666 9.31 76.3366 8.95L72.9966 3.86H72.2566ZM84.349 3.86H79.159V4.38H81.439V11H82.069V4.38H84.349V3.86ZM145.987 3.86L148.657 11H149.467L152.137 3.86H151.447L149.077 10.35H149.047L146.687 3.86H145.987ZM153.728 8.84H153.098C153.188 10.43 154.408 11.11 155.728 11.11C156.938 11.11 158.128 10.62 158.128 9.17C158.128 7.79 157.028 7.46 155.908 7.14C154.588 6.76 153.998 6.44 153.998 5.61C153.998 4.72 154.728 4.27 155.618 4.27C156.568 4.27 157.248 4.76 157.378 5.78H158.018C157.868 4.39 156.888 3.75 155.618 3.75C154.408 3.75 153.348 4.4 153.358 5.63C153.378 6.84 154.258 7.23 155.768 7.67C156.758 7.97 157.498 8.22 157.498 9.18C157.498 10.21 156.638 10.59 155.728 10.59C154.738 10.59 153.808 10 153.728 8.84Z" fill="black"/>
<path d="M91.1208 3.86H88.5208V11H89.8608V8.39H91.0908C92.5808 8.39 93.7308 7.4 93.7308 6.09C93.7308 4.82 92.7308 3.86 91.1208 3.86ZM90.9908 7.28H89.8608V4.97H91.0208C91.8508 4.97 92.4008 5.33 92.4008 6.11C92.4008 6.89 91.8208 7.28 90.9908 7.28ZM99.5251 11H100.935L98.3551 3.86H96.6651L94.0751 11H95.4651L96.1351 9.13H98.8751L99.5251 11ZM97.4851 5.09H97.5051L98.5051 8.06H96.4951L97.4851 5.09ZM100.747 3.86L103.137 8.22V11H104.477V8.22L106.897 3.86H105.407C104.777 5.12 104.367 5.95 103.847 6.96C103.347 5.95 102.797 4.9 102.267 3.86H100.747ZM112.261 9.86V3.86H110.921V11H115.571V9.86H112.261ZM122.14 11H123.55L120.97 3.86H119.28L116.69 11H118.08L118.75 9.13H121.49L122.14 11ZM120.1 5.09H120.12L121.12 8.06H119.11L120.1 5.09ZM128.95 3.86H123.44V5H125.53V11H126.87V5H128.95V3.86ZM131.642 9.86V7.95H134.732V6.84H131.642V5H134.942V3.86H130.302V11H134.972V9.86H131.642ZM136.691 10.99H138.031V8.25H138.921C139.801 8.25 140.121 8.7 140.361 9.36C140.571 9.95 140.741 10.58 140.971 11H142.341V10.94C142.091 10.48 141.931 9.95 141.731 9.3C141.491 8.52 141.261 7.97 140.601 7.78C141.361 7.58 142.011 6.95 142.011 5.89C142.011 4.7 141.081 3.86 139.441 3.86H136.691V10.99ZM138.031 7.17V4.95H139.341C140.271 4.95 140.691 5.41 140.691 6.02C140.691 6.72 140.211 7.17 139.371 7.17H138.031Z" fill="#FE8719"/>
<path d="M165.258 3.86H162.658V11H163.998V8.39H165.228C166.718 8.39 167.868 7.4 167.868 6.09C167.868 4.82 166.868 3.86 165.258 3.86ZM165.128 7.28H163.998V4.97H165.158C165.988 4.97 166.538 5.33 166.538 6.11C166.538 6.89 165.958 7.28 165.128 7.28ZM173.662 11H175.072L172.492 3.86H170.802L168.212 11H169.602L170.272 9.13H173.012L173.662 11ZM171.622 5.09H171.642L172.642 8.06H170.632L171.622 5.09ZM174.884 3.86L177.274 8.22V11H178.614V8.22L181.034 3.86H179.544C178.914 5.12 178.504 5.95 177.984 6.96C177.484 5.95 176.934 4.9 176.404 3.86H174.884ZM185.058 3.86V11H186.368V7.54C186.368 6.89 186.368 6.13 186.348 5.59C186.558 6.02 186.918 6.65 187.288 7.41L189.298 11H191.058V3.86H189.748V7.51C189.748 8.17 189.758 8.76 189.778 9.32C189.578 8.93 189.318 8.41 189.008 7.81L186.838 3.86H185.058ZM196.36 3.69C193.99 3.69 192.61 5.43 192.61 7.43C192.61 9.43 193.99 11.17 196.36 11.17C198.73 11.17 200.1 9.43 200.1 7.43C200.1 5.43 198.73 3.69 196.36 3.69ZM196.36 10.03C194.83 10.03 193.95 8.83 193.95 7.43C193.95 6.03 194.83 4.83 196.36 4.83C197.87 4.83 198.76 6.03 198.76 7.43C198.76 8.83 197.87 10.03 196.36 10.03ZM200.935 3.86L202.035 8.71L202.535 11H204.325L204.795 8.71L205.555 5.19H205.575L206.285 8.71L206.725 11H208.525L209.055 8.71L210.215 3.86H208.795L207.815 8.71L207.655 9.59H207.615L207.435 8.71L206.445 3.86H204.705L203.645 8.71L203.465 9.58H203.445L203.295 8.71L202.355 3.86H200.935Z" fill="#328DFE"/>
<rect opacity="0.9" x="233" y="60" width="4" height="232" transform="rotate(90 233 60)" fill="#FF7A00"/>
<rect opacity="0.8" x="41" y="68" width="4" height="40" transform="rotate(90 41 68)" fill="#0072FF"/>
<path d="M188.732 47.208L190.1 47.184C190.148 47.4 190.172 47.64 190.124 47.856C189.872 49.26 189.02 49.776 188.192 50.508L188.576 51.168C188.984 50.916 189.392 50.748 189.884 50.748C190.328 50.748 190.784 50.844 191.192 50.952C191.552 51.072 192.056 51.192 192.476 51.192C193.088 51.192 193.808 51.036 194.36 50.652L194.06 50.1C193.724 50.34 193.136 50.544 192.704 50.568C192.332 50.58 191.948 50.484 191.6 50.412C191.324 50.328 190.88 50.16 190.34 50.148C189.98 50.148 189.62 50.172 189.08 50.424C189.896 49.86 190.676 49.116 190.868 47.976C190.916 47.712 190.916 47.46 190.856 47.244L193.016 47.208L193.124 46.632L190.688 46.656C190.436 45.984 190.064 45.372 190.184 44.688C190.376 43.56 191.42 42.876 192.62 42.876C193.916 42.876 194.372 43.608 194.336 44.796L195.056 44.856C195.2 43.356 194.444 42.228 192.632 42.228C191.06 42.228 189.692 43.164 189.452 44.604C189.296 45.468 189.632 46.056 189.872 46.596L188.828 46.632L188.732 47.208ZM199.737 42.432C199.305 43.884 198.945 43.956 197.397 43.956L197.313 44.496H199.221L198.081 51H198.801L200.313 42.432H199.737ZM207.812 43.044L207.92 42.432L203.624 42.42L202.136 47.028L202.892 47.136C203.276 46.608 204.032 45.972 205.052 45.972C206.3 45.972 207.032 46.764 207.032 48.132C207.032 49.836 205.952 50.544 204.74 50.544C203.552 50.544 202.652 49.824 202.448 48.696H201.704C201.932 50.004 202.94 51.168 204.74 51.168C206.624 51.168 207.752 50.052 207.752 48.132C207.752 46.344 206.744 45.372 205.148 45.36C204.404 45.348 203.636 45.66 203.072 46.272L204.092 43.044H207.812ZM209.713 49.62L208.633 52.392H209.233L210.529 49.62H209.713ZM212.405 48.624H216.149L215.741 51H216.461L216.881 48.624H217.985L218.093 48.024H216.989L217.973 42.432H217.337L212.489 48.108L212.405 48.624ZM213.341 48.024L216.989 43.764H217.013L216.269 48.024H213.341ZM220.057 42.432L219.961 43.056H224.521C222.685 44.772 220.597 47.94 219.853 51H220.561C221.245 48.108 223.369 44.808 225.397 43.044L225.493 42.432H220.057ZM229.682 42.384C227.342 42.384 226.082 45.012 226.082 48.144C226.082 49.536 226.646 51.144 228.662 51.144C231.122 51.144 232.286 48.252 232.286 45.396C232.286 44.208 231.806 42.384 229.682 42.384ZM228.662 50.52C227.234 50.52 226.79 49.272 226.79 48.18C226.79 45.492 227.81 43.008 229.694 43.008C231.29 43.008 231.566 44.484 231.566 45.348C231.566 47.784 230.702 50.52 228.662 50.52Z" fill="black"/>
<path d="M1.732 87.208L3.1 87.184C3.148 87.4 3.172 87.64 3.124 87.856C2.872 89.26 2.02 89.776 1.192 90.508L1.576 91.168C1.984 90.916 2.392 90.748 2.884 90.748C3.328 90.748 3.784 90.844 4.192 90.952C4.552 91.072 5.056 91.192 5.476 91.192C6.088 91.192 6.808 91.036 7.36 90.652L7.06 90.1C6.724 90.34 6.136 90.544 5.704 90.568C5.332 90.58 4.948 90.484 4.6 90.412C4.324 90.328 3.88 90.16 3.34 90.148C2.98 90.148 2.62 90.172 2.08 90.424C2.896 89.86 3.676 89.116 3.868 87.976C3.916 87.712 3.916 87.46 3.856 87.244L6.016 87.208L6.124 86.632L3.688 86.656C3.436 85.984 3.064 85.372 3.184 84.688C3.376 83.56 4.42 82.876 5.62 82.876C6.916 82.876 7.372 83.608 7.336 84.796L8.056 84.856C8.2 83.356 7.444 82.228 5.632 82.228C4.06 82.228 2.692 83.164 2.452 84.604C2.296 85.468 2.632 86.056 2.872 86.596L1.828 86.632L1.732 87.208ZM9.79741 87.088C9.61741 88.252 9.62941 89.2 9.95341 89.896C10.3494 90.712 11.2254 91.144 12.3414 91.144C13.9854 91.144 15.5694 89.98 15.5694 87.856C15.5694 86.5 14.7414 85.324 13.0734 85.3C12.1014 85.288 11.1774 85.708 10.5534 86.632C10.9494 84.784 11.7534 82.984 13.4334 82.984C14.7774 82.984 15.0174 83.812 15.1494 84.436H15.8574C15.6894 83.44 15.2094 82.36 13.4574 82.36C11.2134 82.36 10.1694 84.652 9.79741 87.088ZM12.9774 85.924C14.0934 85.924 14.8614 86.752 14.8614 87.808C14.8614 89.44 13.7334 90.52 12.2574 90.52C11.2734 90.52 10.3374 89.86 10.3374 88.672C10.3374 87.112 11.5134 85.924 12.9774 85.924ZM17.4607 89.62L16.3807 92.392H16.9807L18.2767 89.62H17.4607ZM24.9354 86.44C25.9794 86.164 26.7954 85.528 26.7954 84.304C26.7954 83.296 26.0034 82.36 24.3834 82.36C22.8234 82.36 21.4794 83.236 21.4794 84.796C21.4794 85.468 21.8874 86.116 22.7754 86.428C21.7314 86.632 20.4714 87.424 20.4714 88.828C20.4714 90.076 21.3474 91.144 23.2314 91.144C25.0434 91.144 26.4714 90.124 26.4714 88.312C26.4714 87.436 25.8114 86.668 24.9354 86.44ZM22.1994 84.868C22.1994 83.68 23.0754 82.984 24.3714 82.984C25.3074 82.984 26.0634 83.38 26.0634 84.292C26.0634 85.564 25.0794 86.164 23.8434 86.164C22.8234 86.164 22.1994 85.648 22.1994 84.868ZM23.2074 90.52C21.9954 90.52 21.2034 89.788 21.2034 88.876C21.2034 87.472 22.4154 86.764 23.8314 86.764C25.1034 86.764 25.7634 87.436 25.7634 88.288C25.7634 89.716 24.6594 90.52 23.2074 90.52ZM32.1304 82.384C29.7904 82.384 28.5304 85.012 28.5304 88.144C28.5304 89.536 29.0944 91.144 31.1104 91.144C33.5704 91.144 34.7344 88.252 34.7344 85.396C34.7344 84.208 34.2544 82.384 32.1304 82.384ZM31.1104 90.52C29.6824 90.52 29.2384 89.272 29.2384 88.18C29.2384 85.492 30.2584 83.008 32.1424 83.008C33.7384 83.008 34.0144 84.484 34.0144 85.348C34.0144 87.784 33.1504 90.52 31.1104 90.52ZM36.6197 82.432L36.5237 83.056H41.0837C39.2477 84.772 37.1597 87.94 36.4157 91H37.1237C37.8077 88.108 39.9317 84.808 41.9597 83.044L42.0557 82.432H36.6197Z" fill="black"/>
</svg>
