<svg width="925" height="426" viewBox="0 0 925 426" fill="none" xmlns="http://www.w3.org/2000/svg">
<path d="M29.588 354.432H23.192V355.392H25.82L25.82 363H26.96L26.96 355.392H29.588V354.432ZM32.4372 362.04V359.124H36.3852V358.164H32.4372V355.392H36.6372V354.432H31.2972V363H36.6732V362.04H32.4372ZM39.3797 360.348H38.2397C38.2637 362.304 39.6797 363.204 41.5517 363.204C43.0877 363.204 44.5637 362.448 44.5637 360.696C44.5637 358.884 43.0997 358.572 41.6717 358.164C40.5437 357.84 39.7037 357.504 39.7037 356.628C39.7037 355.584 40.4957 355.188 41.4437 355.188C42.5717 355.188 43.1117 355.728 43.2677 356.808H44.4197C44.2877 355.092 43.1597 354.228 41.4437 354.228C39.8957 354.228 38.5277 355.056 38.5637 356.712C38.5997 358.332 40.0397 358.752 41.4557 359.172C42.5357 359.496 43.4237 359.676 43.4237 360.732C43.4237 361.776 42.5597 362.244 41.5517 362.244C40.3037 362.244 39.4277 361.632 39.3797 360.348ZM52.3528 354.432H45.9568V355.392H48.5848V363H49.7248V355.392H52.3528V354.432ZM57.3456 363H58.4856V355.632H58.5096L61.0056 363H62.3256L64.8096 355.632H64.8336V363H65.9736V354.432H64.0536L61.6776 361.668H61.6656L59.2656 354.444L57.3456 354.432V363ZM69.5387 362.04V359.124H73.4867V358.164H69.5387V355.392H73.7387V354.432H68.3987V363H73.7747V362.04H69.5387ZM75.9128 363H77.0528V359.496H78.6008C79.6328 359.496 79.9808 360.144 80.2808 360.948C80.5328 361.62 80.7488 362.412 81.0368 363H82.2488V362.88C81.9248 362.316 81.7448 361.836 81.5048 361.044C81.1808 359.964 80.9288 359.316 80.1008 359.1C81.0608 358.872 81.8888 358.092 81.8888 356.868C81.8888 355.524 80.9408 354.432 78.9848 354.432H75.9128V363ZM77.0528 358.536V355.392H78.8648C80.3168 355.392 80.7368 356.1 80.7368 356.868C80.7368 357.876 80.1488 358.536 78.9368 358.536H77.0528ZM91.8942 360.468H90.7542C90.4062 361.464 89.4942 362.196 88.0302 362.196C85.8822 362.196 84.8022 360.576 84.8022 358.716C84.8022 356.856 85.8942 355.236 88.0302 355.236C89.4822 355.236 90.2742 355.872 90.7422 356.952H91.8822C91.3542 355.428 90.1782 354.276 88.0302 354.276C85.2102 354.276 83.6622 356.304 83.6622 358.716C83.6622 361.128 85.2102 363.156 88.0302 363.156C90.2142 363.156 91.5582 361.872 91.8942 360.468ZM99.2792 354.432V358.224H95.1512V354.432H94.0112V363H95.1512V359.184H99.2792V363H100.419V354.432H99.2792ZM108.778 363H109.954L106.762 354.432H105.334L102.142 363H103.318L104.266 360.492H107.842L108.778 363ZM106.03 355.452H106.066L107.506 359.556H104.602L106.03 355.452ZM111.676 354.432V363H112.816V357.864C112.816 357.264 112.792 356.7 112.792 356.1C113.116 356.604 113.404 357.12 113.728 357.624L117.052 363H118.48V354.432H117.34V359.7C117.34 360.288 117.364 360.816 117.364 361.404C117.04 360.888 116.728 360.36 116.404 359.844L113.068 354.432H111.676ZM126.577 354.432H120.181V355.392H122.809V363H123.949V355.392H126.577V354.432Z" fill="black"/>
<path d="M23 334H84.5" stroke="#0072FF"/>
<path d="M27.896 411.228C25.124 411.228 23.456 413.304 23.456 415.716C23.456 418.128 25.124 420.204 27.896 420.204C30.668 420.204 32.336 418.128 32.336 415.716C32.336 413.304 30.668 411.228 27.896 411.228ZM27.896 419.244C25.76 419.244 24.596 417.516 24.596 415.716C24.596 413.916 25.76 412.188 27.896 412.188C30.032 412.188 31.196 413.916 31.196 415.716C31.196 417.516 30.032 419.244 27.896 419.244ZM40.7169 416.952V411.432H39.5769V416.952C39.5769 418.188 38.9289 419.244 37.4889 419.244C36.0489 419.244 35.4009 418.188 35.4009 416.952V411.432H34.2609V416.952C34.2609 418.752 35.2809 420.204 37.4889 420.204C39.6969 420.204 40.7169 418.752 40.7169 416.952ZM43.0886 420H44.2286V416.496H45.7766C46.8086 416.496 47.1566 417.144 47.4566 417.948C47.7086 418.62 47.9246 419.412 48.2126 420H49.4246V419.88C49.1006 419.316 48.9206 418.836 48.6806 418.044C48.3566 416.964 48.1046 416.316 47.2766 416.1C48.2366 415.872 49.0646 415.092 49.0646 413.868C49.0646 412.524 48.1166 411.432 46.1606 411.432H43.0886V420ZM44.2286 415.536V412.392H46.0406C47.4926 412.392 47.9126 413.1 47.9126 413.868C47.9126 414.876 47.3246 415.536 46.1126 415.536H44.2286ZM60.3708 411.432H53.9748V412.392H56.6028V420H57.7428V412.392H60.3708V411.432ZM65.478 411.228C62.706 411.228 61.038 413.304 61.038 415.716C61.038 418.128 62.706 420.204 65.478 420.204C68.25 420.204 69.918 418.128 69.918 415.716C69.918 413.304 68.25 411.228 65.478 411.228ZM65.478 419.244C63.342 419.244 62.178 417.516 62.178 415.716C62.178 413.916 63.342 412.188 65.478 412.188C67.614 412.188 68.778 413.916 68.778 415.716C68.778 417.516 67.614 419.244 65.478 419.244ZM74.7709 411.432H71.8909V420H73.0309V416.592H74.6989C76.4029 416.592 77.6749 415.5 77.6749 414.012C77.6749 412.524 76.4749 411.432 74.7709 411.432ZM74.5789 415.632H73.0309V412.392H74.6509C75.8989 412.392 76.5349 413.004 76.5349 414.012C76.5349 415.02 75.8269 415.632 74.5789 415.632ZM85.6718 414.276C84.9758 414.276 84.3158 414.492 83.9078 414.888L84.2918 412.344H87.7838V411.432H83.4398L82.7798 416.028L83.8958 416.16C84.1718 415.656 84.7118 415.212 85.4798 415.212C86.8478 415.212 87.4478 416.028 87.4478 417.216C87.4478 418.536 86.5118 419.232 85.5278 419.232C84.5558 419.232 83.7998 418.548 83.6798 417.708H82.5998C82.7078 419.22 84.0398 420.144 85.5278 420.144C87.3518 420.144 88.5278 418.812 88.5278 417.216C88.5278 415.356 87.3878 414.276 85.6718 414.276ZM93.8026 420H94.9426V412.632H94.9666L97.4626 420H98.7826L101.267 412.632H101.291V420H102.431V411.432H100.511L98.1346 418.668H98.1226L95.7226 411.444L93.8026 411.432V420ZM105.996 419.04V416.124H109.944V415.164H105.996V412.392H110.196V411.432H104.856V420H110.232V419.04H105.996ZM112.37 420H113.51V416.496H115.058C116.09 416.496 116.438 417.144 116.738 417.948C116.99 418.62 117.206 419.412 117.494 420H118.706V419.88C118.382 419.316 118.202 418.836 117.962 418.044C117.638 416.964 117.386 416.316 116.558 416.1C117.518 415.872 118.346 415.092 118.346 413.868C118.346 412.524 117.398 411.432 115.442 411.432H112.37V420ZM113.51 415.536V412.392H115.322C116.774 412.392 117.194 413.1 117.194 413.868C117.194 414.876 116.606 415.536 115.394 415.536H113.51ZM128.351 417.468H127.211C126.863 418.464 125.951 419.196 124.487 419.196C122.339 419.196 121.259 417.576 121.259 415.716C121.259 413.856 122.351 412.236 124.487 412.236C125.939 412.236 126.731 412.872 127.199 413.952H128.339C127.811 412.428 126.635 411.276 124.487 411.276C121.667 411.276 120.119 413.304 120.119 415.716C120.119 418.128 121.667 420.156 124.487 420.156C126.671 420.156 128.015 418.872 128.351 417.468ZM135.736 411.432V415.224H131.608V411.432H130.468V420H131.608V416.184H135.736V420H136.876V411.432H135.736ZM145.235 420H146.411L143.219 411.432H141.791L138.599 420H139.775L140.723 417.492H144.299L145.235 420ZM142.487 412.452H142.523L143.963 416.556H141.059L142.487 412.452ZM148.133 411.432V420H149.273V414.864C149.273 414.264 149.249 413.7 149.249 413.1C149.573 413.604 149.861 414.12 150.185 414.624L153.509 420H154.937V411.432H153.797V416.7C153.797 417.288 153.821 417.816 153.821 418.404C153.497 417.888 153.185 417.36 152.861 416.844L149.525 411.432H148.133ZM163.034 411.432H156.638V412.392H159.266V420H160.406V412.392H163.034V411.432ZM165.347 417.348H164.207C164.231 419.304 165.647 420.204 167.519 420.204C169.055 420.204 170.531 419.448 170.531 417.696C170.531 415.884 169.067 415.572 167.639 415.164C166.511 414.84 165.671 414.504 165.671 413.628C165.671 412.584 166.463 412.188 167.411 412.188C168.539 412.188 169.079 412.728 169.235 413.808H170.387C170.255 412.092 169.127 411.228 167.411 411.228C165.863 411.228 164.495 412.056 164.531 413.712C164.567 415.332 166.007 415.752 167.423 416.172C168.503 416.496 169.391 416.676 169.391 417.732C169.391 418.776 168.527 419.244 167.519 419.244C166.271 419.244 165.395 418.632 165.347 417.348ZM181.557 411.432H175.161V412.392H177.789V420H178.929V412.392H181.557V411.432ZM186.664 411.228C183.892 411.228 182.224 413.304 182.224 415.716C182.224 418.128 183.892 420.204 186.664 420.204C189.436 420.204 191.104 418.128 191.104 415.716C191.104 413.304 189.436 411.228 186.664 411.228ZM186.664 419.244C184.528 419.244 183.364 417.516 183.364 415.716C183.364 413.916 184.528 412.188 186.664 412.188C188.8 412.188 189.964 413.916 189.964 415.716C189.964 417.516 188.8 419.244 186.664 419.244ZM198.94 411.432H196.36V420H199.012C201.748 420 203.344 418.08 203.344 415.572C203.344 413.064 201.748 411.432 198.94 411.432ZM199.048 419.04H197.5V412.392H199C200.788 412.392 202.204 413.376 202.204 415.572C202.204 417.864 200.788 419.04 199.048 419.04ZM210.963 420H212.139L208.947 411.432H207.519L204.327 420L205.503 420L206.451 417.492H210.027L210.963 420ZM208.215 412.452H208.251L209.691 416.556H206.787L208.215 412.452ZM218.389 411.432H211.993V412.392H214.621V420H215.761V412.392H218.389V411.432ZM221.238 419.04V416.124H225.186V415.164H221.238V412.392H225.438V411.432H220.098V420H225.474V419.04H221.238Z" fill="black"/>
<path d="M23 391H84.5" stroke="black"/>
<path opacity="0.5" d="M47 35H527" stroke="black" stroke-width="0.5"/>
<path opacity="0.5" d="M47 77H527" stroke="black" stroke-width="0.5"/>
<path opacity="0.5" d="M47 119H527" stroke="black" stroke-width="0.5"/>
<path opacity="0.5" d="M47 161H527" stroke="black" stroke-width="0.5"/>
<path opacity="0.5" d="M47 203H527" stroke="black" stroke-width="0.5"/>
<path opacity="0.5" d="M47 245H527" stroke="black" stroke-width="0.5"/>
<path d="M17.5759 29.432C17.3839 30.884 17.0599 30.956 15.4999 30.956V31.496H17.4199V38H18.1399V29.432H17.5759ZM21.5063 37.4C21.7463 36.176 22.9703 35.504 24.0383 34.664C24.9143 33.98 25.9823 33.308 25.9823 31.748C25.9823 30.404 25.0703 29.384 23.4023 29.384C21.6743 29.384 20.7263 30.464 20.7023 32.108H21.4223C21.4583 30.836 22.1303 29.984 23.3783 29.984C24.6623 29.984 25.2623 30.8 25.2623 31.772C25.2623 32.96 24.5423 33.476 23.3063 34.364C22.1423 35.204 20.7383 36.116 20.6183 38H26.1023V37.4H21.5063ZM30.6988 32.276C29.7628 32.276 29.0428 32.672 28.6348 33.224L29.1148 30.056H32.8108V29.432H28.5388L27.8788 34.028L28.6228 34.112C28.9108 33.596 29.5588 32.912 30.6268 32.912C31.9948 32.912 32.7628 33.788 32.7628 35.216C32.7628 36.74 31.6828 37.52 30.5548 37.52C29.4388 37.52 28.5388 36.8 28.4188 35.708H27.6988C27.8068 37.22 29.0668 38.144 30.5548 38.144C32.3788 38.144 33.4828 36.812 33.4828 35.216C33.4828 33.344 32.4148 32.276 30.6988 32.276Z" fill="black"/>
<path d="M20.8565 113.432V114.056H25.4285C23.9285 115.772 22.3445 118.916 22.1525 122H22.8725C23.0405 119.108 24.5525 115.832 26.2925 114.068V113.432H20.8565ZM30.6988 116.276C29.7628 116.276 29.0428 116.672 28.6348 117.224L29.1148 114.056H32.8108V113.432H28.5388L27.8788 118.028L28.6228 118.112C28.9108 117.596 29.5588 116.912 30.6268 116.912C31.9948 116.912 32.7628 117.788 32.7628 119.216C32.7628 120.74 31.6828 121.52 30.5548 121.52C29.4388 121.52 28.5388 120.8 28.4188 119.708H27.6988C27.8068 121.22 29.0668 122.144 30.5548 122.144C32.3788 122.144 33.4828 120.812 33.4828 119.216C33.4828 117.344 32.4148 116.276 30.6988 116.276Z" fill="black"/>
<path d="M23.0441 158.276C22.1081 158.276 21.3881 158.672 20.9801 159.224L21.4601 156.056H25.1561V155.432H20.8841L20.2241 160.028L20.9681 160.112C21.2561 159.596 21.9041 158.912 22.9721 158.912C24.3401 158.912 25.1081 159.788 25.1081 161.216C25.1081 162.74 24.0281 163.52 22.9001 163.52C21.7841 163.52 20.8841 162.8 20.7641 161.708H20.0441C20.1521 163.22 21.4121 164.144 22.9001 164.144C24.7241 164.144 25.8281 162.812 25.8281 161.216C25.8281 159.344 24.7601 158.276 23.0441 158.276ZM30.4622 155.384C28.2542 155.384 27.4622 157.532 27.4622 159.716C27.4622 161.912 28.2542 164.144 30.4622 164.144C32.6702 164.144 33.4502 161.9 33.4502 159.716C33.4502 157.532 32.6702 155.384 30.4622 155.384ZM30.4622 163.52C28.7822 163.52 28.1822 161.456 28.1822 159.704C28.1822 157.964 28.7822 156.008 30.4622 156.008C32.1422 156.008 32.7302 157.988 32.7302 159.704C32.7302 161.456 32.1422 163.52 30.4622 163.52Z" fill="black"/>
<path d="M16.8259 71.432C16.6339 72.884 16.3099 72.956 14.7499 72.956V73.496H16.6699V80H17.3899V71.432H16.8259ZM22.7723 71.384C20.5643 71.384 19.7723 73.532 19.7723 75.716C19.7723 77.912 20.5643 80.144 22.7723 80.144C24.9803 80.144 25.7603 77.9 25.7603 75.716C25.7603 73.532 24.9803 71.384 22.7723 71.384ZM22.7723 79.52C21.0923 79.52 20.4923 77.456 20.4923 75.704C20.4923 73.964 21.0923 72.008 22.7723 72.008C24.4523 72.008 25.0403 73.988 25.0403 75.704C25.0403 77.456 24.4523 79.52 22.7723 79.52ZM30.4622 71.384C28.2542 71.384 27.4622 73.532 27.4622 75.716C27.4622 77.912 28.2542 80.144 30.4622 80.144C32.6702 80.144 33.4502 77.9 33.4502 75.716C33.4502 73.532 32.6702 71.384 30.4622 71.384ZM30.4622 79.52C28.7822 79.52 28.1822 77.456 28.1822 75.704C28.1822 73.964 28.7822 72.008 30.4622 72.008C32.1422 72.008 32.7302 73.988 32.7302 75.704C32.7302 77.456 32.1422 79.52 30.4622 79.52Z" fill="black"/>
<path d="M21.5063 205.4C21.7463 204.176 22.9703 203.504 24.0383 202.664C24.9143 201.98 25.9823 201.308 25.9823 199.748C25.9823 198.404 25.0703 197.384 23.4023 197.384C21.6743 197.384 20.7263 198.464 20.7023 200.108H21.4223C21.4583 198.836 22.1303 197.984 23.3783 197.984C24.6623 197.984 25.2623 198.8 25.2623 199.772C25.2623 200.96 24.5423 201.476 23.3063 202.364C22.1423 203.204 20.7383 204.116 20.6183 206H26.1023V205.4H21.5063ZM30.6988 200.276C29.7628 200.276 29.0428 200.672 28.6348 201.224L29.1148 198.056H32.8108V197.432H28.5388L27.8788 202.028L28.6228 202.112C28.9108 201.596 29.5588 200.912 30.6268 200.912C31.9948 200.912 32.7628 201.788 32.7628 203.216C32.7628 204.74 31.6828 205.52 30.5548 205.52C29.4388 205.52 28.5388 204.8 28.4188 203.708H27.6988C27.8068 205.22 29.0668 206.144 30.5548 206.144C32.3788 206.144 33.4828 204.812 33.4828 203.216C33.4828 201.344 32.4148 200.276 30.6988 200.276Z" fill="black"/>
<path d="M30.4622 239.384C28.2542 239.384 27.4622 241.532 27.4622 243.716C27.4622 245.912 28.2542 248.144 30.4622 248.144C32.6702 248.144 33.4502 245.9 33.4502 243.716C33.4502 241.532 32.6702 239.384 30.4622 239.384ZM30.4622 247.52C28.7822 247.52 28.1822 245.456 28.1822 243.704C28.1822 241.964 28.7822 240.008 30.4622 240.008C32.1422 240.008 32.7302 241.988 32.7302 243.704C32.7302 245.456 32.1422 247.52 30.4622 247.52Z" fill="black"/>
<path d="M121.346 252.276C120.41 252.276 119.69 252.672 119.282 253.224L119.762 250.056H123.458V249.432H119.186L118.526 254.028L119.27 254.112C119.558 253.596 120.206 252.912 121.274 252.912C122.642 252.912 123.41 253.788 123.41 255.216C123.41 256.74 122.33 257.52 121.202 257.52C120.086 257.52 119.186 256.8 119.066 255.708H118.346C118.454 257.22 119.714 258.144 121.202 258.144C123.026 258.144 124.13 256.812 124.13 255.216C124.13 253.344 123.062 252.276 121.346 252.276ZM128.764 249.384C126.556 249.384 125.764 251.532 125.764 253.716C125.764 255.912 126.556 258.144 128.764 258.144C130.972 258.144 131.752 255.9 131.752 253.716C131.752 251.532 130.972 249.384 128.764 249.384ZM128.764 257.52C127.084 257.52 126.484 255.456 126.484 253.704C126.484 251.964 127.084 250.008 128.764 250.008C130.444 250.008 131.032 251.988 131.032 253.704C131.032 255.456 130.444 257.52 128.764 257.52Z" fill="black"/>
<path d="M197.883 249.432C197.691 250.884 197.367 250.956 195.807 250.956V251.496H197.727V258H198.447V249.432H197.883ZM203.829 249.384C201.621 249.384 200.829 251.532 200.829 253.716C200.829 255.912 201.621 258.144 203.829 258.144C206.037 258.144 206.817 255.9 206.817 253.716C206.817 251.532 206.037 249.384 203.829 249.384ZM203.829 257.52C202.149 257.52 201.549 255.456 201.549 253.704C201.549 251.964 202.149 250.008 203.829 250.008C205.509 250.008 206.097 251.988 206.097 253.704C206.097 255.456 205.509 257.52 203.829 257.52ZM211.519 249.384C209.311 249.384 208.519 251.532 208.519 253.716C208.519 255.912 209.311 258.144 211.519 258.144C213.727 258.144 214.507 255.9 214.507 253.716C214.507 251.532 213.727 249.384 211.519 249.384ZM211.519 257.52C209.839 257.52 209.239 255.456 209.239 253.704C209.239 251.964 209.839 250.008 211.519 250.008C213.199 250.008 213.787 251.988 213.787 253.704C213.787 255.456 213.199 257.52 211.519 257.52Z" fill="black"/>
<path d="M279.971 249.432C279.779 250.884 279.455 250.956 277.895 250.956V251.496H279.815V258H280.535V249.432H279.971ZM286.013 252.276C285.077 252.276 284.357 252.672 283.949 253.224L284.429 250.056H288.125V249.432H283.853L283.193 254.028L283.937 254.112C284.225 253.596 284.873 252.912 285.941 252.912C287.309 252.912 288.077 253.788 288.077 255.216C288.077 256.74 286.997 257.52 285.869 257.52C284.753 257.52 283.853 256.8 283.733 255.708H283.013C283.121 257.22 284.381 258.144 285.869 258.144C287.693 258.144 288.797 256.812 288.797 255.216C288.797 253.344 287.729 252.276 286.013 252.276ZM293.431 249.384C291.223 249.384 290.431 251.532 290.431 253.716C290.431 255.912 291.223 258.144 293.431 258.144C295.639 258.144 296.419 255.9 296.419 253.716C296.419 251.532 295.639 249.384 293.431 249.384ZM293.431 257.52C291.751 257.52 291.151 255.456 291.151 253.704C291.151 251.964 291.751 250.008 293.431 250.008C295.111 250.008 295.699 251.988 295.699 253.704C295.699 255.456 295.111 257.52 293.431 257.52Z" fill="black"/>
<path d="M355.547 257.4C355.787 256.176 357.011 255.504 358.079 254.664C358.955 253.98 360.023 253.308 360.023 251.748C360.023 250.404 359.111 249.384 357.443 249.384C355.715 249.384 354.767 250.464 354.743 252.108H355.463C355.499 250.836 356.171 249.984 357.419 249.984C358.703 249.984 359.303 250.8 359.303 251.772C359.303 252.96 358.583 253.476 357.347 254.364C356.183 255.204 354.779 256.116 354.659 258H360.143V257.4H355.547ZM364.761 249.384C362.553 249.384 361.761 251.532 361.761 253.716C361.761 255.912 362.553 258.144 364.761 258.144C366.969 258.144 367.749 255.9 367.749 253.716C367.749 251.532 366.969 249.384 364.761 249.384ZM364.761 257.52C363.081 257.52 362.481 255.456 362.481 253.704C362.481 251.964 363.081 250.008 364.761 250.008C366.441 250.008 367.029 251.988 367.029 253.704C367.029 255.456 366.441 257.52 364.761 257.52ZM372.451 249.384C370.243 249.384 369.451 251.532 369.451 253.716C369.451 255.912 370.243 258.144 372.451 258.144C374.659 258.144 375.439 255.9 375.439 253.716C375.439 251.532 374.659 249.384 372.451 249.384ZM372.451 257.52C370.771 257.52 370.171 255.456 370.171 253.704C370.171 251.964 370.771 250.008 372.451 250.008C374.131 250.008 374.719 251.988 374.719 253.704C374.719 255.456 374.131 257.52 372.451 257.52Z" fill="black"/>
<path d="M435.694 257.4C435.934 256.176 437.158 255.504 438.226 254.664C439.102 253.98 440.17 253.308 440.17 251.748C440.17 250.404 439.258 249.384 437.59 249.384C435.862 249.384 434.914 250.464 434.89 252.108H435.61C435.646 250.836 436.318 249.984 437.566 249.984C438.85 249.984 439.45 250.8 439.45 251.772C439.45 252.96 438.73 253.476 437.494 254.364C436.33 255.204 434.926 256.116 434.806 258H440.29V257.4H435.694ZM444.886 252.276C443.95 252.276 443.23 252.672 442.822 253.224L443.302 250.056H446.998V249.432H442.726L442.066 254.028L442.81 254.112C443.098 253.596 443.746 252.912 444.814 252.912C446.182 252.912 446.95 253.788 446.95 255.216C446.95 256.74 445.87 257.52 444.742 257.52C443.626 257.52 442.726 256.8 442.606 255.708H441.886C441.994 257.22 443.254 258.144 444.742 258.144C446.566 258.144 447.67 256.812 447.67 255.216C447.67 253.344 446.602 252.276 444.886 252.276ZM452.304 249.384C450.096 249.384 449.304 251.532 449.304 253.716C449.304 255.912 450.096 258.144 452.304 258.144C454.512 258.144 455.292 255.9 455.292 253.716C455.292 251.532 454.512 249.384 452.304 249.384ZM452.304 257.52C450.624 257.52 450.024 255.456 450.024 253.704C450.024 251.964 450.624 250.008 452.304 250.008C453.984 250.008 454.572 251.988 454.572 253.704C454.572 255.456 453.984 257.52 452.304 257.52Z" fill="black"/>
<path d="M512.944 251.604H513.664L513.676 251.436C513.76 250.596 514.372 249.984 515.416 249.984C516.436 249.984 517.048 250.536 517.048 251.436C517.048 252.432 516.376 252.996 515.44 253.068C515.284 253.08 515.128 253.092 514.948 253.092V253.74H515.212C516.34 253.74 517.492 254.16 517.492 255.636C517.492 256.8 516.592 257.532 515.404 257.532C514.276 257.532 513.448 257.016 513.328 255.732L513.304 255.552H512.56L512.572 255.684C512.728 257.22 513.628 258.132 515.392 258.132C517.192 258.132 518.212 257.088 518.212 255.648C518.212 254.292 517.48 253.644 516.496 253.38C517.216 253.032 517.768 252.504 517.768 251.376C517.768 250.236 516.928 249.384 515.428 249.384C513.856 249.384 512.992 250.356 512.944 251.604ZM522.861 249.384C520.653 249.384 519.861 251.532 519.861 253.716C519.861 255.912 520.653 258.144 522.861 258.144C525.069 258.144 525.849 255.9 525.849 253.716C525.849 251.532 525.069 249.384 522.861 249.384ZM522.861 257.52C521.181 257.52 520.581 255.456 520.581 253.704C520.581 251.964 521.181 250.008 522.861 250.008C524.541 250.008 525.129 251.988 525.129 253.704C525.129 255.456 524.541 257.52 522.861 257.52ZM530.55 249.384C528.342 249.384 527.55 251.532 527.55 253.716C527.55 255.912 528.342 258.144 530.55 258.144C532.758 258.144 533.538 255.9 533.538 253.716C533.538 251.532 532.758 249.384 530.55 249.384ZM530.55 257.52C528.87 257.52 528.27 255.456 528.27 253.704C528.27 251.964 528.87 250.008 530.55 250.008C532.23 250.008 532.818 251.988 532.818 253.704C532.818 255.456 532.23 257.52 530.55 257.52Z" fill="black"/>
<path d="M48.5 243.5C57.5 243.167 77.6 242.3 86 241.5C96.5 240.5 107 239.5 115.5 238C124 236.5 218 235 219.5 235C220.7 235 226 231.333 228.5 229.5L237 227L238.5 220L242.5 217L249.5 210L318.5 193L430 183.5C457.333 182.167 512.3 179.3 513.5 178.5C514.7 177.7 516.667 174.833 517.5 173.5" stroke="black" stroke-width="0.5"/>
<path d="M48.5 244L94.5 238L102 234.5L116 233L121 230L173 217L196.5 198L216.5 192L220 185.5L229 182L234 175L242.5 173.5L255 163.5L260.5 155.5L274.5 146.5L276.5 144L287 141.5" stroke="black" stroke-width="0.5"/>
<path d="M49.5 243.5L73 237.5L79.5 231.5L96 228.5L114.5 216.5L152.5 205.5L162.5 199L171.5 195L186.5 193.5L195 190L266 180.5L278.5 176.5L316.5 167L321.5 162.5L336.5 159" stroke="black" stroke-width="0.5"/>
<path d="M48.5 244L97 233H107.5L126 228L134.5 222L145 217L154.5 213.5L196.5 201L229 187.5L245 169L271.5 155L289 136.5L300 127.5L302 123L320 114.5L343 75.5L349.5 73L353.5 68.5L364.5 62L368.5 41.5" stroke="black" stroke-width="0.5"/>
<path d="M49 244L97.5 232L119 226.5L132.5 215.5C134.333 215 138.4 214 140 214C141.6 214 148 212.333 151 211.5L161 198L196 190.5L229.5 181L257.5 172.5L312 154" stroke="black" stroke-width="0.5"/>
<path d="M18.468 4.432H12.24V5.056H14.976V13H15.732V5.056H18.468V4.432ZM19.655 8.056V6.796H18.935V13H19.655V9.844C19.655 8.512 20.111 7.9 20.771 7.6C21.011 7.468 21.323 7.42 21.623 7.42V6.76C20.567 6.76 19.955 7.24 19.655 8.056ZM27.0743 13H27.8303C27.7703 12.616 27.7342 12.16 27.7342 11.716L27.7223 8.764C27.7223 7.804 27.2662 6.7 25.3583 6.7C23.8942 6.7 23.1262 7.732 22.9582 8.644H23.6782C23.8822 7.792 24.5182 7.3 25.3822 7.3C26.3422 7.3 27.0263 7.684 27.0263 8.5C27.0263 9.064 26.4022 9.244 25.3343 9.424C24.0622 9.628 22.5862 9.988 22.5862 11.32C22.5862 12.244 23.3302 13.096 24.8062 13.096C26.2223 13.096 26.7862 12.256 27.0142 11.728H27.0263V12.04C27.0263 12.388 27.0263 12.664 27.0743 13ZM24.8782 12.52C23.8822 12.52 23.3062 11.992 23.3062 11.32C23.3062 10.6 24.0022 10.192 25.0822 10.024C26.2463 9.844 26.8583 9.58 27.0382 9.184V10.132C27.0382 11.704 26.0422 12.52 24.8782 12.52ZM29.9084 13H30.6284V9.796C30.6284 7.924 31.6004 7.3 32.5244 7.3C33.4364 7.3 34.1084 7.768 34.1084 9.124V13H34.8284V9.076C34.8284 7.42 33.9284 6.712 32.5844 6.712C31.5284 6.712 30.9524 7.276 30.6284 7.972V6.796H29.9084V13ZM40.5052 8.644H41.2132C41.0332 7.312 40.1212 6.712 38.9572 6.712C37.9612 6.712 36.8212 7.264 36.8212 8.38C36.8212 9.376 37.6612 9.844 38.5132 10.06C38.8132 10.144 39.0292 10.204 39.3772 10.288C40.0492 10.468 40.5892 10.708 40.5892 11.344C40.5892 12.16 39.8452 12.472 39.0052 12.472C38.0692 12.472 37.4452 12.016 37.3132 11.152H36.5932C36.8332 12.58 37.9732 13.072 38.9932 13.072C40.0132 13.072 41.3092 12.58 41.3092 11.308C41.3092 10.348 40.4812 9.94 39.5812 9.688C39.2932 9.616 38.9932 9.532 38.7292 9.46C38.0692 9.28 37.5412 9.004 37.5412 8.368C37.5412 7.624 38.2492 7.3 38.9452 7.3C39.6892 7.3 40.3972 7.66 40.5052 8.644ZM47.2844 13H48.0404C47.9804 12.616 47.9444 12.16 47.9444 11.716L47.9324 8.764C47.9324 7.804 47.4764 6.7 45.5684 6.7C44.1044 6.7 43.3364 7.732 43.1684 8.644H43.8884C44.0924 7.792 44.7284 7.3 45.5924 7.3C46.5524 7.3 47.2364 7.684 47.2364 8.5C47.2364 9.064 46.6124 9.244 45.5444 9.424C44.2724 9.628 42.7964 9.988 42.7964 11.32C42.7964 12.244 43.5404 13.096 45.0164 13.096C46.4324 13.096 46.9964 12.256 47.2244 11.728H47.2364V12.04C47.2364 12.388 47.2364 12.664 47.2844 13ZM45.0884 12.52C44.0924 12.52 43.5164 11.992 43.5164 11.32C43.5164 10.6 44.2124 10.192 45.2924 10.024C46.4564 9.844 47.0684 9.58 47.2484 9.184V10.132C47.2484 11.704 46.2524 12.52 45.0884 12.52ZM55.4346 11.224H54.6906C54.4146 12.04 53.7306 12.484 52.7706 12.484C51.3786 12.484 50.4546 11.356 50.4546 9.916C50.4546 8.44 51.3786 7.3 52.7706 7.3C53.7666 7.3 54.4026 7.792 54.6546 8.524H55.3986C55.0986 7.456 54.1986 6.712 52.7946 6.712C50.8746 6.712 49.7346 8.164 49.7346 9.916C49.7346 11.644 50.8746 13.084 52.7946 13.084C54.1866 13.084 55.1226 12.376 55.4346 11.224ZM59.4411 7.384V6.796H58.2411V4.96L57.5331 5.296V6.796H56.5971V7.384H57.5331V11.644C57.5331 12.484 57.9291 13 58.9491 13H59.4171V12.412H58.9491C58.4811 12.412 58.2411 12.136 58.2411 11.656V7.384H59.4411ZM62.0126 5.632V4.432H61.2446V5.632H62.0126ZM61.2446 13H61.9646V6.796H61.2446V13ZM66.8398 13.084C68.7358 13.084 69.8758 11.632 69.8758 9.916C69.8758 8.188 68.7358 6.712 66.8398 6.712C64.9438 6.712 63.8158 8.188 63.8158 9.916C63.8158 11.632 64.9438 13.084 66.8398 13.084ZM66.8398 12.484C65.4598 12.484 64.5358 11.344 64.5358 9.916C64.5358 8.452 65.4598 7.3 66.8398 7.3C68.2198 7.3 69.1558 8.452 69.1558 9.916C69.1558 11.344 68.2198 12.484 66.8398 12.484ZM71.6787 13H72.3987V9.796C72.3987 7.924 73.3707 7.3 74.2947 7.3C75.2067 7.3 75.8787 7.768 75.8787 9.124V13H76.5987V9.076C76.5987 7.42 75.6987 6.712 74.3547 6.712C73.2987 6.712 72.7227 7.276 72.3987 7.972V6.796H71.6787V13ZM82.2755 8.644H82.9835C82.8035 7.312 81.8915 6.712 80.7275 6.712C79.7315 6.712 78.5915 7.264 78.5915 8.38C78.5915 9.376 79.4315 9.844 80.2835 10.06C80.5835 10.144 80.7995 10.204 81.1475 10.288C81.8195 10.468 82.3595 10.708 82.3595 11.344C82.3595 12.16 81.6155 12.472 80.7755 12.472C79.8395 12.472 79.2155 12.016 79.0835 11.152H78.3635C78.6035 12.58 79.7435 13.072 80.7635 13.072C81.7835 13.072 83.0795 12.58 83.0795 11.308C83.0795 10.348 82.2515 9.94 81.3515 9.688C81.0635 9.616 80.7635 9.532 80.4995 9.46C79.8395 9.28 79.3115 9.004 79.3115 8.368C79.3115 7.624 80.0195 7.3 80.7155 7.3C81.4595 7.3 82.1675 7.66 82.2755 8.644Z" fill="black"/>
<path d="M206.584 280.432H204.136V289H206.68C209.308 289 210.892 287.02 210.892 284.548C210.892 282.04 209.308 280.432 206.584 280.432ZM206.728 288.376H204.904V281.056H206.656C208.516 281.056 210.136 282.124 210.136 284.548C210.136 287.068 208.516 288.376 206.728 288.376ZM216.947 289H217.703C217.643 288.616 217.607 288.16 217.607 287.716L217.595 284.764C217.595 283.804 217.139 282.7 215.231 282.7C213.767 282.7 212.999 283.732 212.831 284.644H213.551C213.755 283.792 214.391 283.3 215.255 283.3C216.215 283.3 216.899 283.684 216.899 284.5C216.899 285.064 216.275 285.244 215.207 285.424C213.935 285.628 212.459 285.988 212.459 287.32C212.459 288.244 213.203 289.096 214.679 289.096C216.095 289.096 216.659 288.256 216.887 287.728H216.899V288.04C216.899 288.388 216.899 288.664 216.947 289ZM214.751 288.52C213.755 288.52 213.179 287.992 213.179 287.32C213.179 286.6 213.875 286.192 214.955 286.024C216.119 285.844 216.731 285.58 216.911 285.184V286.132C216.911 287.704 215.915 288.52 214.751 288.52ZM218.91 282.796L221.502 289.204L221.286 289.792C221.118 290.248 220.986 290.8 220.338 290.8H219.798V291.4H220.386C221.226 291.4 221.562 290.944 221.826 290.248C222.75 287.752 223.686 285.28 224.622 282.796H223.866L221.874 288.34H221.862L219.666 282.796H218.91ZM229.476 284.644H230.184C230.004 283.312 229.092 282.712 227.928 282.712C226.932 282.712 225.792 283.264 225.792 284.38C225.792 285.376 226.632 285.844 227.484 286.06C227.784 286.144 228 286.204 228.348 286.288C229.02 286.468 229.56 286.708 229.56 287.344C229.56 288.16 228.816 288.472 227.976 288.472C227.04 288.472 226.416 288.016 226.284 287.152H225.564C225.804 288.58 226.944 289.072 227.964 289.072C228.984 289.072 230.28 288.58 230.28 287.308C230.28 286.348 229.452 285.94 228.552 285.688C228.264 285.616 227.964 285.532 227.7 285.46C227.04 285.28 226.512 285.004 226.512 284.368C226.512 283.624 227.22 283.3 227.916 283.3C228.66 283.3 229.368 283.66 229.476 284.644ZM238.867 284.644H239.575C239.395 283.312 238.483 282.712 237.319 282.712C236.323 282.712 235.183 283.264 235.183 284.38C235.183 285.376 236.023 285.844 236.875 286.06C237.175 286.144 237.391 286.204 237.739 286.288C238.411 286.468 238.951 286.708 238.951 287.344C238.951 288.16 238.207 288.472 237.367 288.472C236.431 288.472 235.807 288.016 235.675 287.152H234.955C235.195 288.58 236.335 289.072 237.355 289.072C238.375 289.072 239.671 288.58 239.671 287.308C239.671 286.348 238.843 285.94 237.943 285.688C237.655 285.616 237.355 285.532 237.091 285.46C236.431 285.28 235.903 285.004 235.903 284.368C235.903 283.624 236.611 283.3 237.307 283.3C238.051 283.3 238.759 283.66 238.867 284.644ZM242.251 281.632V280.432H241.483V281.632H242.251ZM241.483 289H242.203V282.796H241.483V289ZM244.438 289H245.158V285.796C245.158 283.924 246.13 283.3 247.054 283.3C247.966 283.3 248.638 283.768 248.638 285.124V289H249.358V285.076C249.358 283.42 248.458 282.712 247.114 282.712C246.058 282.712 245.482 283.276 245.158 283.972V282.796H244.438V289ZM256.834 287.224H256.09C255.814 288.04 255.13 288.484 254.17 288.484C252.778 288.484 251.854 287.356 251.854 285.916C251.854 284.44 252.778 283.3 254.17 283.3C255.166 283.3 255.802 283.792 256.054 284.524H256.798C256.498 283.456 255.598 282.712 254.194 282.712C252.274 282.712 251.134 284.164 251.134 285.916C251.134 287.644 252.274 289.084 254.194 289.084C255.586 289.084 256.522 288.376 256.834 287.224ZM261.354 288.484C260.046 288.484 259.146 287.512 259.086 286.108H264.126C264.126 286 264.114 285.892 264.114 285.772C264.018 284.14 263.274 282.712 261.33 282.712C259.506 282.712 258.39 284.152 258.39 285.892C258.39 287.656 259.482 289.084 261.366 289.084C262.746 289.084 263.706 288.34 264.066 287.164H263.346C263.046 288.004 262.314 288.484 261.354 288.484ZM261.33 283.3C262.638 283.3 263.274 284.152 263.406 285.532H259.098C259.206 284.224 260.058 283.3 261.33 283.3ZM269.76 281.944V282.796H268.884V283.384H269.76V289H270.468V283.384H271.536V282.796H270.468V281.992C270.468 281.248 270.768 281.032 271.224 281.032H271.74V280.432H271.104C270.132 280.432 269.76 281.152 269.76 281.944ZM272.772 280.432V281.632H273.54V280.432H272.772ZM272.772 289H273.492V282.796H272.772V289ZM276.447 284.056V282.796H275.727V289H276.447V285.844C276.447 284.512 276.903 283.9 277.563 283.6C277.803 283.468 278.115 283.42 278.415 283.42V282.76C277.359 282.76 276.747 283.24 276.447 284.056ZM283.675 284.644H284.383C284.203 283.312 283.291 282.712 282.127 282.712C281.131 282.712 279.991 283.264 279.991 284.38C279.991 285.376 280.831 285.844 281.683 286.06C281.983 286.144 282.199 286.204 282.547 286.288C283.219 286.468 283.759 286.708 283.759 287.344C283.759 288.16 283.015 288.472 282.175 288.472C281.239 288.472 280.615 288.016 280.483 287.152H279.763C280.003 288.58 281.143 289.072 282.163 289.072C283.183 289.072 284.479 288.58 284.479 287.308C284.479 286.348 283.651 285.94 282.751 285.688C282.463 285.616 282.163 285.532 281.899 285.46C281.239 285.28 280.711 285.004 280.711 284.368C280.711 283.624 281.419 283.3 282.115 283.3C282.859 283.3 283.567 283.66 283.675 284.644ZM288.391 283.384V282.796H287.191V280.96L286.483 281.296V282.796H285.547V283.384H286.483V287.644C286.483 288.484 286.879 289 287.899 289H288.367V288.412H287.899C287.431 288.412 287.191 288.136 287.191 287.656V283.384H288.391ZM296.395 282.712C295.219 282.712 294.511 283.384 294.175 284.068H294.163V282.796H293.443V291.4H294.163V287.716H294.175C294.523 288.46 295.243 289.084 296.395 289.084C298.243 289.084 299.203 287.656 299.203 285.904C299.203 284.14 298.243 282.712 296.395 282.712ZM296.311 288.484C294.751 288.484 294.127 287.128 294.127 285.904C294.127 284.476 294.883 283.3 296.311 283.3C297.715 283.3 298.483 284.416 298.483 285.904C298.483 287.356 297.727 288.484 296.311 288.484ZM305.192 289H305.948C305.888 288.616 305.852 288.16 305.852 287.716L305.84 284.764C305.84 283.804 305.384 282.7 303.476 282.7C302.012 282.7 301.244 283.732 301.076 284.644H301.796C302 283.792 302.636 283.3 303.5 283.3C304.46 283.3 305.144 283.684 305.144 284.5C305.144 285.064 304.52 285.244 303.452 285.424C302.18 285.628 300.704 285.988 300.704 287.32C300.704 288.244 301.448 289.096 302.924 289.096C304.34 289.096 304.904 288.256 305.132 287.728H305.144V288.04C305.144 288.388 305.144 288.664 305.192 289ZM302.996 288.52C302 288.52 301.424 287.992 301.424 287.32C301.424 286.6 302.12 286.192 303.2 286.024C304.364 285.844 304.976 285.58 305.156 285.184V286.132C305.156 287.704 304.16 288.52 302.996 288.52ZM307.155 282.796L309.747 289.204L309.531 289.792C309.363 290.248 309.231 290.8 308.583 290.8H308.043V291.4H308.631C309.471 291.4 309.807 290.944 310.071 290.248C310.995 287.752 311.931 285.28 312.867 282.796H312.111L310.119 288.34H310.107L307.911 282.796H307.155ZM317.64 280.432V289H318.36V280.432H317.64ZM321.34 281.632V280.432H320.572V281.632H321.34ZM320.572 289H321.292V282.796H320.572V289ZM323.528 289H324.248V285.796C324.248 283.924 325.22 283.3 326.144 283.3C327.056 283.3 327.728 283.768 327.728 285.124V289H328.448V285.076C328.448 283.42 327.548 282.712 326.204 282.712C325.148 282.712 324.572 283.276 324.248 283.972V282.796H323.528V289ZM334.388 289H335.264L332.576 285.412L335.204 282.796H334.316L331.316 285.76V280.432H330.596V289H331.316V286.6L332.084 285.88L334.388 289ZM343.022 282.712C341.846 282.712 341.138 283.384 340.802 284.068H340.79V282.796H340.07V291.4H340.79V287.716H340.802C341.15 288.46 341.87 289.084 343.022 289.084C344.87 289.084 345.83 287.656 345.83 285.904C345.83 284.14 344.87 282.712 343.022 282.712ZM342.938 288.484C341.378 288.484 340.754 287.128 340.754 285.904C340.754 284.476 341.51 283.3 342.938 283.3C344.342 283.3 345.11 284.416 345.11 285.904C345.11 287.356 344.354 288.484 342.938 288.484ZM351.818 289H352.574C352.514 288.616 352.478 288.16 352.478 287.716L352.466 284.764C352.466 283.804 352.01 282.7 350.102 282.7C348.638 282.7 347.87 283.732 347.702 284.644H348.422C348.626 283.792 349.262 283.3 350.126 283.3C351.086 283.3 351.77 283.684 351.77 284.5C351.77 285.064 351.146 285.244 350.078 285.424C348.806 285.628 347.33 285.988 347.33 287.32C347.33 288.244 348.074 289.096 349.55 289.096C350.966 289.096 351.53 288.256 351.758 287.728H351.77V288.04C351.77 288.388 351.77 288.664 351.818 289ZM349.622 288.52C348.626 288.52 348.05 287.992 348.05 287.32C348.05 286.6 348.746 286.192 349.826 286.024C350.99 285.844 351.602 285.58 351.782 285.184V286.132C351.782 287.704 350.786 288.52 349.622 288.52ZM355.433 281.632V280.432H354.665V281.632H355.433ZM354.665 289H355.385V282.796H354.665V289ZM362.276 280.432V284.068H362.264C361.94 283.384 361.22 282.712 360.056 282.712C358.208 282.712 357.236 284.14 357.236 285.904C357.236 287.656 358.208 289.084 360.056 289.084C361.196 289.084 361.928 288.46 362.264 287.716H362.276V289H362.996V280.432H362.276ZM360.14 288.484C358.724 288.484 357.956 287.356 357.956 285.904C357.956 284.416 358.736 283.3 360.14 283.3C361.568 283.3 362.324 284.476 362.324 285.904C362.324 287.128 361.688 288.484 360.14 288.484Z" fill="black"/>
<path d="M89.702 50.148H80.36V51.084H84.464V63H85.598V51.084H89.702V50.148ZM93.6052 62.226C91.6432 62.226 90.2932 60.768 90.2032 58.662H97.7632C97.7632 58.5 97.7452 58.338 97.7452 58.158C97.6012 55.71 96.4852 53.568 93.5692 53.568C90.8332 53.568 89.1592 55.728 89.1592 58.338C89.1592 60.984 90.7972 63.126 93.6232 63.126C95.6932 63.126 97.1332 62.01 97.6732 60.246H96.5932C96.1432 61.506 95.0452 62.226 93.6052 62.226ZM93.5692 54.45C95.5312 54.45 96.4852 55.728 96.6832 57.798H90.2212C90.3832 55.836 91.6612 54.45 93.5692 54.45ZM105.104 56.466H106.166C105.896 54.468 104.528 53.568 102.782 53.568C101.288 53.568 99.5777 54.396 99.5777 56.07C99.5777 57.564 100.838 58.266 102.116 58.59C102.566 58.716 102.89 58.806 103.412 58.932C104.42 59.202 105.23 59.562 105.23 60.516C105.23 61.74 104.114 62.208 102.854 62.208C101.45 62.208 100.514 61.524 100.316 60.228H99.2357C99.5957 62.37 101.306 63.108 102.836 63.108C104.366 63.108 106.31 62.37 106.31 60.462C106.31 59.022 105.068 58.41 103.718 58.032C103.286 57.924 102.836 57.798 102.44 57.69C101.45 57.42 100.658 57.006 100.658 56.052C100.658 54.936 101.72 54.45 102.764 54.45C103.88 54.45 104.942 54.99 105.104 56.466ZM111.458 54.576V53.694H109.658V50.94L108.596 51.444V53.694H107.192V54.576H108.596V60.966C108.596 62.226 109.19 63 110.72 63H111.422V62.118H110.72C110.018 62.118 109.658 61.704 109.658 60.984V54.576H111.458ZM117.596 63H118.676V58.194C118.676 56.196 119.432 54.432 121.142 54.432C122.402 54.432 123.194 55.152 123.194 57.186V63H124.274V57.924C124.274 55.584 125.39 54.432 126.722 54.432C127.91 54.432 128.738 55.152 128.738 57.186V63H129.818V57.114C129.818 54.63 128.648 53.55 126.812 53.55C125.552 53.55 124.706 54.072 124.004 55.368C123.536 54.09 122.636 53.55 121.232 53.55C119.99 53.55 119.018 54.414 118.676 55.404V53.694H117.596V63ZM136.201 62.226C134.239 62.226 132.889 60.768 132.799 58.662H140.359C140.359 58.5 140.341 58.338 140.341 58.158C140.197 55.71 139.081 53.568 136.165 53.568C133.429 53.568 131.755 55.728 131.755 58.338C131.755 60.984 133.393 63.126 136.219 63.126C138.289 63.126 139.729 62.01 140.269 60.246H139.189C138.739 61.506 137.641 62.226 136.201 62.226ZM136.165 54.45C138.127 54.45 139.081 55.728 139.279 57.798H132.817C132.979 55.836 134.257 54.45 136.165 54.45ZM143.487 55.584V53.694H142.407V63H143.487V58.266C143.487 56.268 144.171 55.35 145.161 54.9C145.521 54.702 145.989 54.63 146.439 54.63V53.64C144.855 53.64 143.937 54.36 143.487 55.584ZM155.975 60.336H154.859C154.445 61.56 153.419 62.226 151.979 62.226C149.891 62.226 148.505 60.534 148.505 58.374C148.505 56.16 149.891 54.45 151.979 54.45C153.473 54.45 154.427 55.188 154.805 56.286H155.921C155.471 54.684 154.121 53.568 152.015 53.568C149.135 53.568 147.425 55.746 147.425 58.374C147.425 60.966 149.135 63.126 152.015 63.126C154.103 63.126 155.507 62.064 155.975 60.336ZM158.078 63H159.158V58.194C159.158 55.386 160.616 54.45 162.002 54.45C163.37 54.45 164.378 55.152 164.378 57.186V63H165.458V57.114C165.458 54.63 164.108 53.568 162.092 53.568C160.508 53.568 159.644 54.414 159.158 55.458V50.148H158.078V63ZM174.225 63H175.359C175.269 62.424 175.215 61.74 175.215 61.074L175.197 56.646C175.197 55.206 174.513 53.55 171.651 53.55C169.455 53.55 168.303 55.098 168.051 56.466H169.131C169.437 55.188 170.391 54.45 171.687 54.45C173.127 54.45 174.153 55.026 174.153 56.25C174.153 57.096 173.217 57.366 171.615 57.636C169.707 57.942 167.493 58.482 167.493 60.48C167.493 61.866 168.609 63.144 170.823 63.144C172.947 63.144 173.793 61.884 174.135 61.092H174.153V61.56C174.153 62.082 174.153 62.496 174.225 63ZM170.931 62.28C169.437 62.28 168.573 61.488 168.573 60.48C168.573 59.4 169.617 58.788 171.237 58.536C172.983 58.266 173.901 57.87 174.171 57.276V58.698C174.171 61.056 172.677 62.28 170.931 62.28ZM177.756 63H178.836V58.194C178.836 55.386 180.294 54.45 181.68 54.45C183.048 54.45 184.056 55.152 184.056 57.186V63H185.136V57.114C185.136 54.63 183.786 53.568 181.77 53.568C180.186 53.568 179.322 54.414 178.836 55.458V53.694H177.756V63ZM190.879 54.576V53.694H189.079V50.94L188.017 51.444V53.694H186.613V54.576H188.017V60.966C188.017 62.226 188.611 63 190.141 63H190.843V62.118H190.141C189.439 62.118 189.079 61.704 189.079 60.984V54.576H190.879Z" fill="black"/>
<path d="M91.25 190.841L97.0203 190.649L93.9688 185.747L91.25 190.841ZM115.158 100.25C132.633 130.518 123.409 168.874 94.7925 188.046L95.3491 188.877C124.4 169.414 133.764 130.477 116.024 99.75L115.158 100.25Z" fill="black"/>
<path d="M48.5 243C49.1667 242.5 49.2 242.4 52 240C55.5 237 53.5 236 57.5 232.5C61.5 229 59.5 225.5 62.5 223.5C64.9 221.9 65.5 212.5 70 208.5" stroke="#0072FF"/>
<path d="M635.39 38.86H630.2V39.38H632.48V46H633.11V39.38H635.39V38.86ZM637.506 45.48V42.61H640.946V42.09H637.506V39.38H641.156V38.86H636.866V46H641.186V45.48H637.506ZM643.185 43.84H642.555C642.645 45.43 643.865 46.11 645.185 46.11C646.395 46.11 647.585 45.62 647.585 44.17C647.585 42.79 646.485 42.46 645.365 42.14C644.045 41.76 643.455 41.44 643.455 40.61C643.455 39.72 644.185 39.27 645.075 39.27C646.025 39.27 646.705 39.76 646.835 40.78H647.475C647.325 39.39 646.345 38.75 645.075 38.75C643.865 38.75 642.805 39.4 642.815 40.63C642.835 41.84 643.715 42.23 645.225 42.67C646.215 42.97 646.955 43.22 646.955 44.18C646.955 45.21 646.095 45.59 645.185 45.59C644.195 45.59 643.265 45 643.185 43.84ZM654.019 38.86H648.829V39.38H651.109V46H651.739V39.38H654.019V38.86ZM658.212 46H658.852V39.67H658.862L661.212 46H661.912L664.262 39.67H664.272V46H664.912V38.86H663.912L661.572 45.23H661.562L659.212 38.86H658.212V46ZM667.613 45.48V42.61H671.053V42.09H667.613V39.38H671.263V38.86H666.973V46H671.293V45.48H667.613ZM673.108 46.01H673.748V42.9H675.378C676.338 42.9 676.608 43.41 676.898 44.25C677.098 44.8 677.278 45.47 677.528 46H678.208V45.95C677.948 45.47 677.808 45.08 677.608 44.41C677.268 43.33 677.008 42.85 676.368 42.69C677.258 42.47 677.898 41.83 677.898 40.81C677.898 39.72 677.178 38.86 675.558 38.86H673.108V46.01ZM673.748 42.38V39.38H675.498C676.868 39.38 677.268 40.07 677.268 40.81C677.268 41.75 676.708 42.38 675.568 42.38H673.748ZM686.13 43.99H685.5C685.19 44.9 684.39 45.58 683.03 45.58C681.02 45.58 680.06 44.02 680.06 42.44C680.06 40.85 681.02 39.3 683.03 39.3C684.37 39.3 685.13 39.93 685.48 40.85H686.12C685.69 39.63 684.7 38.77 683.03 38.77C680.74 38.77 679.42 40.42 679.42 42.44C679.42 44.45 680.74 46.1 683.03 46.1C684.72 46.1 685.82 45.19 686.13 43.99ZM692.436 38.86V42.11H688.586V38.86H687.946V46H688.586V42.63H692.436V46H693.066V38.86H692.436ZM700.115 46H700.775L698.095 38.86H697.235L694.555 46H695.215L696.055 43.73H699.275L700.115 46ZM697.655 39.4H697.675L699.085 43.21H696.245L697.655 39.4ZM702.257 38.86V46H702.897V41.23C702.897 40.76 702.887 40.26 702.887 39.8C703.147 40.18 703.397 40.62 703.657 41.01L706.927 46H707.677V38.86H707.037V43.8C707.037 44.21 707.047 44.67 707.047 45.08C706.817 44.73 706.567 44.31 706.337 43.95L702.997 38.86H702.257ZM714.349 38.86H709.159V39.38H711.439V46H712.069V39.38H714.349V38.86ZM775.987 38.86L778.657 46H779.467L782.137 38.86H781.447L779.077 45.35H779.047L776.687 38.86H775.987ZM783.728 43.84H783.098C783.188 45.43 784.408 46.11 785.728 46.11C786.938 46.11 788.128 45.62 788.128 44.17C788.128 42.79 787.028 42.46 785.908 42.14C784.588 41.76 783.998 41.44 783.998 40.61C783.998 39.72 784.728 39.27 785.618 39.27C786.568 39.27 787.248 39.76 787.378 40.78H788.018C787.868 39.39 786.888 38.75 785.618 38.75C784.408 38.75 783.348 39.4 783.358 40.63C783.378 41.84 784.258 42.23 785.768 42.67C786.758 42.97 787.498 43.22 787.498 44.18C787.498 45.21 786.638 45.59 785.728 45.59C784.738 45.59 783.808 45 783.728 43.84Z" fill="black"/>
<path d="M721.121 38.86H718.521V46H719.861V43.39H721.091C722.581 43.39 723.731 42.4 723.731 41.09C723.731 39.82 722.731 38.86 721.121 38.86ZM720.991 42.28H719.861V39.97H721.021C721.851 39.97 722.401 40.33 722.401 41.11C722.401 41.89 721.821 42.28 720.991 42.28ZM729.525 46H730.935L728.355 38.86H726.665L724.075 46H725.465L726.135 44.13H728.875L729.525 46ZM727.485 40.09H727.505L728.505 43.06H726.495L727.485 40.09ZM730.747 38.86L733.137 43.22V46H734.477V43.22L736.897 38.86H735.407C734.777 40.12 734.367 40.95 733.847 41.96C733.347 40.95 732.797 39.9 732.267 38.86H730.747ZM742.261 44.86V38.86H740.921V46H745.571V44.86H742.261ZM752.14 46H753.55L750.97 38.86H749.28L746.69 46H748.08L748.75 44.13H751.49L752.14 46ZM750.1 40.09H750.12L751.12 43.06H749.11L750.1 40.09ZM758.95 38.86H753.44V40H755.53V46H756.87V40H758.95V38.86ZM761.642 44.86V42.95H764.732V41.84H761.642V40H764.942V38.86H760.302V46H764.972V44.86H761.642ZM766.691 45.99H768.031V43.25H768.921C769.801 43.25 770.121 43.7 770.361 44.36C770.571 44.95 770.741 45.58 770.971 46H772.341V45.94C772.091 45.48 771.931 44.95 771.731 44.3C771.491 43.52 771.261 42.97 770.601 42.78C771.361 42.58 772.011 41.95 772.011 40.89C772.011 39.7 771.081 38.86 769.441 38.86H766.691V45.99ZM768.031 42.17V39.95H769.341C770.271 39.95 770.691 40.41 770.691 41.02C770.691 41.72 770.211 42.17 769.371 42.17H768.031Z" fill="#FE8719"/>
<path d="M795.258 38.86H792.658V46H793.998V43.39H795.228C796.718 43.39 797.868 42.4 797.868 41.09C797.868 39.82 796.868 38.86 795.258 38.86ZM795.128 42.28H793.998V39.97H795.158C795.988 39.97 796.538 40.33 796.538 41.11C796.538 41.89 795.958 42.28 795.128 42.28ZM803.662 46H805.072L802.492 38.86H800.802L798.212 46H799.602L800.272 44.13H803.012L803.662 46ZM801.622 40.09H801.642L802.642 43.06H800.632L801.622 40.09ZM804.884 38.86L807.274 43.22V46H808.614V43.22L811.034 38.86H809.544C808.914 40.12 808.504 40.95 807.984 41.96C807.484 40.95 806.934 39.9 806.404 38.86H804.884ZM815.058 38.86V46H816.368V42.54C816.368 41.89 816.368 41.13 816.348 40.59C816.558 41.02 816.918 41.65 817.288 42.41L819.298 46H821.058V38.86H819.748V42.51C819.748 43.17 819.758 43.76 819.778 44.32C819.578 43.93 819.318 43.41 819.008 42.81L816.838 38.86H815.058ZM826.36 38.69C823.99 38.69 822.61 40.43 822.61 42.43C822.61 44.43 823.99 46.17 826.36 46.17C828.73 46.17 830.1 44.43 830.1 42.43C830.1 40.43 828.73 38.69 826.36 38.69ZM826.36 45.03C824.83 45.03 823.95 43.83 823.95 42.43C823.95 41.03 824.83 39.83 826.36 39.83C827.87 39.83 828.76 41.03 828.76 42.43C828.76 43.83 827.87 45.03 826.36 45.03ZM830.935 38.86L832.035 43.71L832.535 46H834.325L834.795 43.71L835.555 40.19H835.575L836.285 43.71L836.725 46H838.525L839.055 43.71L840.215 38.86H838.795L837.815 43.71L837.655 44.59H837.615L837.435 43.71L836.445 38.86H834.705L833.645 43.71L833.465 44.58H833.445L833.295 43.71L832.355 38.86H830.935Z" fill="#328DFE"/>
<rect opacity="0.9" x="863" y="95" width="4" height="232" transform="rotate(90 863 95)" fill="#FF7A00"/>
<rect opacity="0.8" x="671" y="103" width="4" height="40" transform="rotate(90 671 103)" fill="#0072FF"/>
<path d="M818.732 82.208L820.1 82.184C820.148 82.4 820.172 82.64 820.124 82.856C819.872 84.26 819.02 84.776 818.192 85.508L818.576 86.168C818.984 85.916 819.392 85.748 819.884 85.748C820.328 85.748 820.784 85.844 821.192 85.952C821.552 86.072 822.056 86.192 822.476 86.192C823.088 86.192 823.808 86.036 824.36 85.652L824.06 85.1C823.724 85.34 823.136 85.544 822.704 85.568C822.332 85.58 821.948 85.484 821.6 85.412C821.324 85.328 820.88 85.16 820.34 85.148C819.98 85.148 819.62 85.172 819.08 85.424C819.896 84.86 820.676 84.116 820.868 82.976C820.916 82.712 820.916 82.46 820.856 82.244L823.016 82.208L823.124 81.632L820.688 81.656C820.436 80.984 820.064 80.372 820.184 79.688C820.376 78.56 821.42 77.876 822.62 77.876C823.916 77.876 824.372 78.608 824.336 79.796L825.056 79.856C825.2 78.356 824.444 77.228 822.632 77.228C821.06 77.228 819.692 78.164 819.452 79.604C819.296 80.468 819.632 81.056 819.872 81.596L818.828 81.632L818.732 82.208ZM829.737 77.432C829.305 78.884 828.945 78.956 827.397 78.956L827.313 79.496H829.221L828.081 86H828.801L830.313 77.432H829.737ZM837.812 78.044L837.92 77.432L833.624 77.42L832.136 82.028L832.892 82.136C833.276 81.608 834.032 80.972 835.052 80.972C836.3 80.972 837.032 81.764 837.032 83.132C837.032 84.836 835.952 85.544 834.74 85.544C833.552 85.544 832.652 84.824 832.448 83.696H831.704C831.932 85.004 832.94 86.168 834.74 86.168C836.624 86.168 837.752 85.052 837.752 83.132C837.752 81.344 836.744 80.372 835.148 80.36C834.404 80.348 833.636 80.66 833.072 81.272L834.092 78.044H837.812ZM839.713 84.62L838.633 87.392H839.233L840.529 84.62H839.713ZM842.405 83.624H846.149L845.741 86H846.461L846.881 83.624H847.985L848.093 83.024H846.989L847.973 77.432H847.337L842.489 83.108L842.405 83.624ZM843.341 83.024L846.989 78.764H847.013L846.269 83.024H843.341ZM850.057 77.432L849.961 78.056H854.521C852.685 79.772 850.597 82.94 849.853 86H850.561C851.245 83.108 853.369 79.808 855.397 78.044L855.493 77.432H850.057ZM859.682 77.384C857.342 77.384 856.082 80.012 856.082 83.144C856.082 84.536 856.646 86.144 858.662 86.144C861.122 86.144 862.286 83.252 862.286 80.396C862.286 79.208 861.806 77.384 859.682 77.384ZM858.662 85.52C857.234 85.52 856.79 84.272 856.79 83.18C856.79 80.492 857.81 78.008 859.694 78.008C861.29 78.008 861.566 79.484 861.566 80.348C861.566 82.784 860.702 85.52 858.662 85.52Z" fill="black"/>
<path d="M631.732 122.208L633.1 122.184C633.148 122.4 633.172 122.64 633.124 122.856C632.872 124.26 632.02 124.776 631.192 125.508L631.576 126.168C631.984 125.916 632.392 125.748 632.884 125.748C633.328 125.748 633.784 125.844 634.192 125.952C634.552 126.072 635.056 126.192 635.476 126.192C636.088 126.192 636.808 126.036 637.36 125.652L637.06 125.1C636.724 125.34 636.136 125.544 635.704 125.568C635.332 125.58 634.948 125.484 634.6 125.412C634.324 125.328 633.88 125.16 633.34 125.148C632.98 125.148 632.62 125.172 632.08 125.424C632.896 124.86 633.676 124.116 633.868 122.976C633.916 122.712 633.916 122.46 633.856 122.244L636.016 122.208L636.124 121.632L633.688 121.656C633.436 120.984 633.064 120.372 633.184 119.688C633.376 118.56 634.42 117.876 635.62 117.876C636.916 117.876 637.372 118.608 637.336 119.796L638.056 119.856C638.2 118.356 637.444 117.228 635.632 117.228C634.06 117.228 632.692 118.164 632.452 119.604C632.296 120.468 632.632 121.056 632.872 121.596L631.828 121.632L631.732 122.208ZM639.797 122.088C639.617 123.252 639.629 124.2 639.953 124.896C640.349 125.712 641.225 126.144 642.341 126.144C643.985 126.144 645.569 124.98 645.569 122.856C645.569 121.5 644.741 120.324 643.073 120.3C642.101 120.288 641.177 120.708 640.553 121.632C640.949 119.784 641.753 117.984 643.433 117.984C644.777 117.984 645.017 118.812 645.149 119.436H645.857C645.689 118.44 645.209 117.36 643.457 117.36C641.213 117.36 640.169 119.652 639.797 122.088ZM642.977 120.924C644.093 120.924 644.861 121.752 644.861 122.808C644.861 124.44 643.733 125.52 642.257 125.52C641.273 125.52 640.337 124.86 640.337 123.672C640.337 122.112 641.513 120.924 642.977 120.924ZM647.461 124.62L646.381 127.392H646.981L648.277 124.62H647.461ZM654.935 121.44C655.979 121.164 656.795 120.528 656.795 119.304C656.795 118.296 656.003 117.36 654.383 117.36C652.823 117.36 651.479 118.236 651.479 119.796C651.479 120.468 651.887 121.116 652.775 121.428C651.731 121.632 650.471 122.424 650.471 123.828C650.471 125.076 651.347 126.144 653.231 126.144C655.043 126.144 656.471 125.124 656.471 123.312C656.471 122.436 655.811 121.668 654.935 121.44ZM652.199 119.868C652.199 118.68 653.075 117.984 654.371 117.984C655.307 117.984 656.063 118.38 656.063 119.292C656.063 120.564 655.079 121.164 653.843 121.164C652.823 121.164 652.199 120.648 652.199 119.868ZM653.207 125.52C651.995 125.52 651.203 124.788 651.203 123.876C651.203 122.472 652.415 121.764 653.831 121.764C655.103 121.764 655.763 122.436 655.763 123.288C655.763 124.716 654.659 125.52 653.207 125.52ZM662.13 117.384C659.79 117.384 658.53 120.012 658.53 123.144C658.53 124.536 659.094 126.144 661.11 126.144C663.57 126.144 664.734 123.252 664.734 120.396C664.734 119.208 664.254 117.384 662.13 117.384ZM661.11 125.52C659.682 125.52 659.238 124.272 659.238 123.18C659.238 120.492 660.258 118.008 662.142 118.008C663.738 118.008 664.014 119.484 664.014 120.348C664.014 122.784 663.15 125.52 661.11 125.52ZM666.62 117.432L666.524 118.056H671.084C669.248 119.772 667.16 122.94 666.416 126H667.124C667.808 123.108 669.932 119.808 671.96 118.044L672.056 117.432H666.62Z" fill="black"/>
</svg>
