<svg width="24" height="24" viewBox="0 0 24 24" fill="none" xmlns="http://www.w3.org/2000/svg">
<path fill-rule="evenodd" clip-rule="evenodd" d="M17.4194 8.71344C19.0579 5.83252 20.0841 2.80124 20.3528 0L23.5654 0.259432C23.1904 4.16972 21.5638 8.34232 19.033 12.0869L24 22.471L21.0469 23.6605L16.8682 14.9245C16.8536 14.9415 16.8389 14.9586 16.8242 14.9756C13.0391 19.3683 7.83029 22.9155 1.78969 24L0 21.9605L10.3201 0.0602996L13.2767 0.0528755L17.4194 8.71344ZM15.3759 11.8046L11.8112 4.35233L4.32323 20.2425C8.1451 18.8548 11.5731 16.2981 14.2945 13.14C14.6701 12.7041 15.0308 12.2584 15.3759 11.8046Z" fill="black"/>
</svg>
