<svg width="489" height="439" viewBox="0 0 489 439" fill="none" xmlns="http://www.w3.org/2000/svg">
<g clip-path="url(#clip0_421_1166)">
<path fill-rule="evenodd" clip-rule="evenodd" d="M0.0472025 428.82V417.78C0.0472025 417.562 0.221742 417.384 0.449985 417.384L76.1555 417.384C74.7963 417.218 73.7395 416.059 73.7395 414.656V17.6385C73.7395 7.92367 81.6601 0 91.3662 0H681.276C690.982 0 698.889 7.92367 698.889 17.6385V414.656C698.889 416.058 697.833 417.218 696.484 417.384L771.551 417.384C771.766 417.384 771.954 417.562 771.954 417.78V428.82C771.954 429.027 771.781 429.199 771.578 429.213L771.551 429.214C771.766 429.214 772.129 429.497 771.954 429.554C756.232 434.684 746.485 439.295 712.382 438.985H50.4622C26.8323 438.345 16.2525 434.338 0.0472025 429.554C-0.127337 429.5 0.221742 429.214 0.449985 429.214C0.221742 429.214 0.0472025 429.036 0.0472025 428.82Z" fill="black" stroke="black" stroke-linejoin="round"/>
<path d="M682.671 24.021H88.3912V396.61H682.671V24.021Z" fill="white" fill-opacity="0.3"/>
<path d="M682.671 24.021H88.3912V396.61H682.671V24.021Z" stroke="black" stroke-linejoin="round"/>
<path fill-rule="evenodd" clip-rule="evenodd" d="M91.3044 0H681.274C690.981 0 698.889 7.92328 698.889 17.6376V414.636C698.889 416.152 697.654 417.384 696.15 417.384H76.4283C74.9112 417.384 73.676 416.152 73.676 414.636V17.6376C73.676 7.92328 81.5974 0 91.3044 0Z" fill="white" fill-opacity="0.15" stroke="black" stroke-linejoin="round"/>
<path fill-rule="evenodd" clip-rule="evenodd" d="M90.9019 2.1167H681.664C690.082 2.1167 696.943 8.99365 696.943 17.425V414.634C696.943 416.15 695.707 417.384 694.204 417.384H78.3754C76.8717 417.384 75.6365 416.15 75.6365 414.634V17.425C75.6365 8.99365 82.4972 2.1167 90.9019 2.1167Z" fill="black" stroke="black" stroke-linejoin="round"/>
<path d="M386.357 12.731C387.123 12.731 387.74 13.3488 387.74 14.1103C387.74 14.8718 387.123 15.491 386.357 15.491C385.591 15.491 384.974 14.8718 384.974 14.1103C384.974 13.3488 385.591 12.731 386.357 12.731Z" fill="white" fill-opacity="0.3"/>
<path d="M386.357 12.731C387.123 12.731 387.74 13.3488 387.74 14.1103C387.74 14.8718 387.123 15.491 386.357 15.491C385.591 15.491 384.974 14.8718 384.974 14.1103C384.974 13.3488 385.591 12.731 386.357 12.731Z" stroke="black" stroke-linejoin="round"/>
<path fill-rule="evenodd" clip-rule="evenodd" d="M0.45039 417.384H771.552C771.766 417.384 771.954 417.562 771.954 417.78V428.82C771.954 429.036 771.766 429.214 771.552 429.214H0.45039C0.222147 429.214 0.0476074 429.036 0.0476074 428.82V417.78C0.0476074 417.562 0.222147 417.384 0.45039 417.384Z" fill="white" fill-opacity="0.15" stroke="black" stroke-linejoin="round"/>
<path fill-rule="evenodd" clip-rule="evenodd" d="M0.45039 417.384H331.149C331.592 421.944 335.445 425.528 340.117 425.528H432.261C436.933 425.528 440.786 421.944 441.229 417.384H771.552C771.766 417.384 771.954 417.562 771.954 417.78V428.82C771.954 429.036 771.766 429.214 771.552 429.214H0.45039C0.222147 429.214 0.0476074 429.036 0.0476074 428.82V417.78C0.0476074 417.562 0.222147 417.384 0.45039 417.384Z" fill="black" stroke="black" stroke-linejoin="round"/>
<path d="M0.45039 417.384H331.149C331.592 421.944 335.445 425.528 340.117 425.528H432.261C436.933 425.528 440.786 421.944 441.229 417.384H771.552C771.766 417.384 771.954 417.562 771.954 417.78V428.82C771.954 429.036 771.766 429.214 771.552 429.214H0.45039C0.222147 429.214 0.0476074 429.036 0.0476074 428.82V417.78C0.0476074 417.562 0.222147 417.384 0.45039 417.384Z" stroke="black" stroke-linejoin="round"/>
<path fill-rule="evenodd" clip-rule="evenodd" d="M0.449985 429.214H771.551C771.766 429.214 772.129 429.498 771.954 429.554C756.232 434.685 746.485 439.296 712.382 438.985H50.4622C26.8323 438.346 16.2525 434.338 0.0472025 429.554C-0.127337 429.5 0.221742 429.214 0.449985 429.214Z" fill="white" fill-opacity="0.15" stroke="black" stroke-linejoin="round"/>
<rect x="90.9231" y="21.3467" width="598.422" height="389.81" rx="8" fill="white"/>
</g>
<defs>
<clipPath id="clip0_421_1166">
<rect width="489" height="439" fill="white"/>
</clipPath>
</defs>
</svg>
