<svg width="628" height="664" viewBox="0 0 628 664" fill="none" xmlns="http://www.w3.org/2000/svg">
<rect width="628" height="664" fill="#F9F9F9"/>
<mask id="mask0_66_23313" style="mask-type:alpha" maskUnits="userSpaceOnUse" x="0" y="0" width="628" height="664">
<rect width="628" height="664" fill="#0E407E"/>
</mask>
<g mask="url(#mask0_66_23313)">
<path fill-rule="evenodd" clip-rule="evenodd" d="M72.0501 553.195V541.475C72.0501 541.244 72.2355 541.055 72.4778 541.055L152.868 541.055C151.425 540.879 150.303 539.648 150.303 538.16V116.723C150.303 106.411 158.714 98 169.02 98H795.436C805.742 98 814.139 106.411 814.139 116.723V538.16C814.139 539.648 813.017 540.878 811.585 541.055L891.298 541.055C891.526 541.055 891.725 541.244 891.725 541.475V553.195C891.725 553.415 891.542 553.597 891.326 553.611L891.298 553.612C891.526 553.612 891.911 553.913 891.725 553.973C875.03 559.419 864.68 564.314 828.467 563.984H125.585C100.493 563.306 89.2583 559.051 72.0501 553.973C71.8648 553.916 72.2355 553.612 72.4778 553.612C72.2355 553.612 72.0501 553.424 72.0501 553.195Z" fill="black"/>
<path d="M796.917 123.499H165.861V519.004H796.917V123.499Z" fill="white" fill-opacity="0.3"/>
<path fill-rule="evenodd" clip-rule="evenodd" d="M168.954 98H795.433C805.741 98 814.139 106.411 814.139 116.722V538.138C814.139 539.747 812.827 541.055 811.23 541.055H153.158C151.547 541.055 150.235 539.747 150.235 538.138V116.722C150.235 106.411 158.646 98 168.954 98Z" fill="#657B9A" fill-opacity="0.15"/>
<path fill-rule="evenodd" clip-rule="evenodd" d="M168.528 100.247H795.848C804.787 100.247 812.072 107.546 812.072 116.496V538.136C812.072 539.745 810.761 541.055 809.164 541.055H155.226C153.629 541.055 152.317 539.745 152.317 538.136V116.496C152.317 107.546 159.603 100.247 168.528 100.247Z" fill="black"/>
<path d="M482.266 111.513C483.078 111.513 483.734 112.169 483.734 112.977C483.734 113.786 483.078 114.443 482.266 114.443C481.453 114.443 480.797 113.786 480.797 112.977C480.797 112.169 481.453 111.513 482.266 111.513Z" fill="white" fill-opacity="0.3"/>
<path fill-rule="evenodd" clip-rule="evenodd" d="M72.4785 541.055H891.298C891.526 541.055 891.726 541.244 891.726 541.475V553.195C891.726 553.424 891.526 553.612 891.298 553.612H72.4785C72.2361 553.612 72.0508 553.424 72.0508 553.195V541.475C72.0508 541.244 72.2361 541.055 72.4785 541.055Z" fill="#657B9A" fill-opacity="0.15"/>
<path fill-rule="evenodd" clip-rule="evenodd" d="M72.4785 541.055H423.642C424.112 545.895 428.204 549.7 433.165 549.7H531.011C535.972 549.7 540.064 545.895 540.534 541.055H891.298C891.526 541.055 891.726 541.244 891.726 541.475V553.195C891.726 553.424 891.526 553.612 891.298 553.612H72.4785C72.2361 553.612 72.0508 553.424 72.0508 553.195V541.475C72.0508 541.244 72.2361 541.055 72.4785 541.055Z" fill="black"/>
<path d="M72.4785 541.055H423.642C424.112 545.895 428.204 549.7 433.165 549.7H531.011C535.972 549.7 540.064 545.895 540.534 541.055H891.298C891.526 541.055 891.726 541.244 891.726 541.475V553.195C891.726 553.424 891.526 553.612 891.298 553.612H72.4785C72.2361 553.612 72.0508 553.424 72.0508 553.195V541.475C72.0508 541.244 72.2361 541.055 72.4785 541.055Z" fill="white" fill-opacity="0.3"/>
<path fill-rule="evenodd" clip-rule="evenodd" d="M72.4778 553.612H891.298C891.526 553.612 891.911 553.913 891.725 553.973C875.03 559.419 864.68 564.313 828.467 563.984H125.585C100.493 563.306 89.2583 559.051 72.0501 553.973C71.8648 553.916 72.2355 553.612 72.4778 553.612Z" fill="#657B9A" fill-opacity="0.15"/>
<rect x="165.861" y="123.499" width="631.056" height="395.505" fill="white"/>
</g>
</svg>
