<svg width="628" height="664" viewBox="0 0 628 664" fill="none" xmlns="http://www.w3.org/2000/svg">
<rect width="628" height="664" fill="#F9F9F9"/>
<mask id="mask0_66_23168" style="mask-type:alpha" maskUnits="userSpaceOnUse" x="0" y="0" width="628" height="664">
<rect width="628" height="664" fill="#141414"/>
</mask>
<g mask="url(#mask0_66_23168)">
<path fill-rule="evenodd" clip-rule="evenodd" d="M404.71 671.62V672.633C404.71 672.836 404.546 673 404.343 673H383.047C382.755 673 382.52 672.764 382.52 672.473V671.62H404.71ZM555.056 671.62V672.806C555.056 672.824 555.043 672.84 555.026 672.845L555.015 672.847H533.154C533.082 672.847 533.012 672.837 532.944 672.818L532.893 672.802L531.353 672.261L531.283 672.162L531.214 672.063L531.211 671.62H555.056ZM458.564 563.085C461.36 564.559 463.578 565.454 465.216 565.77C466.426 566.004 467.681 566.132 468.972 566.132C470.263 566.132 471.519 566.004 472.728 565.77C474.367 565.454 476.584 564.559 479.38 563.085L556.313 563.086V664.644L557.578 664.644V671.62H380.366V664.644L381.63 664.644L381.63 563.086L458.564 563.085ZM109.984 93L828.198 93.176C834.736 93.1847 840.044 98.4339 840.149 104.947L840.151 105.144L840.151 551.117C840.151 557.661 834.899 562.978 828.379 563.084L828.182 563.085H109.968C103.425 563.085 98.1073 557.834 98.0016 551.315L98 551.117L98.0001 104.217C98.0001 97.6674 103.261 93.0836 109.786 93.0011L109.984 93Z" fill="black"/>
<path d="M840.151 105.144C840.151 98.5404 834.802 93.1848 828.198 93.176L109.984 93C103.368 92.9912 98 97.6013 98 104.217V494.179H840.151V105.144Z" fill="white" fill-opacity="0.3"/>
<path d="M840.151 105.144C840.151 98.5404 834.802 93.1848 828.198 93.176L109.984 93C103.368 92.9912 98 97.6013 98 104.217V494.179H840.151V105.144Z" fill="white" fill-opacity="0.3"/>
<path fill-rule="evenodd" clip-rule="evenodd" d="M479.38 563.085C477.444 564.366 475.187 565.296 472.728 565.77C471.519 566.004 470.263 566.132 468.972 566.132C467.681 566.132 466.426 566.004 465.216 565.77C462.759 565.296 460.499 564.366 458.564 563.085H453.204C456.526 567.209 462.344 569.946 468.972 569.946C475.599 569.946 481.419 567.209 484.74 563.085H479.38Z" fill="black"/>
<path fill-rule="evenodd" clip-rule="evenodd" d="M458.563 563.085C461.359 564.559 463.577 565.454 465.215 565.77C466.425 566.004 467.68 566.132 468.971 566.132C470.262 566.132 471.518 566.004 472.726 565.77C474.366 565.454 476.583 564.559 479.379 563.085L556.312 563.086V664.645H381.629V563.086L458.563 563.085Z" fill="white" fill-opacity="0.15"/>
<path fill-rule="evenodd" clip-rule="evenodd" d="M479.38 563.085C477.444 564.366 475.187 565.296 472.728 565.77C471.519 566.004 470.263 566.132 468.972 566.132C467.681 566.132 466.426 566.004 465.216 565.77C462.759 565.296 460.499 564.366 458.564 563.085H453.204C456.526 567.209 462.344 569.946 468.972 569.946C475.599 569.946 481.419 567.209 484.74 563.085H479.38Z" fill="white" fill-opacity="0.15"/>
<path fill-rule="evenodd" clip-rule="evenodd" d="M479.38 563.085C477.444 564.366 475.187 565.296 472.728 565.77C471.519 566.004 470.263 566.132 468.972 566.132C467.681 566.132 466.426 566.004 465.216 565.77C462.759 565.296 460.499 564.366 458.564 563.085H453.204C456.526 567.209 462.344 569.946 468.972 569.946C475.599 569.946 481.419 567.209 484.74 563.085H479.38Z" fill="white" fill-opacity="0.15"/>
<path fill-rule="evenodd" clip-rule="evenodd" d="M471.701 100.933C471.701 99.5351 470.568 98.4034 469.17 98.4034C467.775 98.4034 466.641 99.5351 466.641 100.933C466.641 102.329 467.775 103.462 469.17 103.462C470.568 103.462 471.701 102.329 471.701 100.933Z" fill="white" fill-opacity="0.15"/>
<path fill-rule="evenodd" clip-rule="evenodd" d="M470.091 100.933C470.091 100.425 469.679 100.014 469.171 100.014C468.663 100.014 468.251 100.425 468.251 100.933C468.251 101.441 468.663 101.852 469.171 101.852C469.679 101.852 470.091 101.441 470.091 100.933Z" fill="white" fill-opacity="0.15"/>
<path d="M98 494.178V551.117C98 557.727 103.359 563.085 109.968 563.085H828.182C834.792 563.085 840.151 557.727 840.151 551.117V494.178H98Z" fill="white" fill-opacity="0.3"/>
<rect x="116.669" y="110.405" width="704.903" height="366.456" fill="white"/>
</g>
</svg>
