<svg width="628" height="664" viewBox="0 0 628 664" fill="none" xmlns="http://www.w3.org/2000/svg">
<rect width="628" height="664" fill="#F9F9F9"/>
<path fill-rule="evenodd" clip-rule="evenodd" d="M399.832 77C420.613 77 437.459 93.8422 437.459 114.618V228.735H437.916C438.636 228.735 439.219 229.318 439.219 230.038V288.218C439.219 288.938 438.636 289.521 437.916 289.521H437.459V529.395V529.395V532.78H437.459L437.459 546.381C437.459 566.95 420.948 583.663 400.454 583.995L399.832 584H240.277V580.356H240.277V584H228.103C207.322 584 190.476 567.158 190.476 546.381V532.844L190.476 532.844V529.46L190.476 529.46L190.476 302.224H189.564C189.294 302.224 189.043 302.144 188.835 302.005C188.766 301.959 188.701 301.906 188.642 301.848C188.583 301.789 188.53 301.725 188.483 301.657C188.343 301.451 188.261 301.201 188.261 300.931V265.471C188.261 265.201 188.343 264.952 188.483 264.745C188.53 264.676 188.583 264.612 188.642 264.554C188.701 264.495 188.766 264.443 188.835 264.396C189.043 264.257 189.294 264.177 189.564 264.177H190.476V253.883H189.564C189.294 253.883 189.043 253.802 188.835 253.663C188.766 253.617 188.701 253.564 188.642 253.506C188.583 253.448 188.53 253.384 188.483 253.315C188.343 253.109 188.261 252.859 188.261 252.589V217.129C188.261 216.859 188.343 216.61 188.483 216.404C188.53 216.335 188.583 216.271 188.642 216.213C188.701 216.154 188.766 216.101 188.835 216.055C189.043 215.916 189.294 215.835 189.564 215.835H190.476L190.476 198.505H189.303C188.583 198.505 188 197.921 188 197.202V180.655C188 179.935 188.583 179.351 189.303 179.351H190.476L190.476 131.67L190.476 131.67V128.286L190.476 128.286V114.618C190.476 93.8422 207.322 77 228.103 77L399.832 77ZM264.376 88.727H229.707C229.356 88.727 229.006 88.7336 228.658 88.7467L228.45 88.7554C228.866 88.7366 229.286 88.7271 229.707 88.7271H264.376L264.46 88.7281L264.376 88.727ZM398.359 88.727H363.559C363.503 88.727 363.447 88.7284 363.392 88.7312L363.475 88.7281L363.559 88.7271H398.359C398.781 88.7271 399.2 88.7366 399.616 88.7554L399.408 88.7467C399.06 88.7336 398.71 88.727 398.359 88.727ZM295.749 85.5328L295.8 85.5342L295.851 85.5347H331.953C331.983 85.5347 332.013 85.5342 332.043 85.5332L331.953 85.5347H295.851C295.834 85.5347 295.817 85.5345 295.8 85.5342L295.749 85.5328Z" fill="black"/>
<path fill-rule="evenodd" clip-rule="evenodd" d="M425.73 545.171C425.73 547.06 425.538 548.904 425.174 550.685C425.037 551.353 424.876 552.012 424.691 552.661C424.568 553.094 424.435 553.523 424.292 553.947C424.148 554.37 423.995 554.79 423.831 555.204C423.668 555.618 423.495 556.027 423.312 556.431C423.129 556.835 422.937 557.234 422.735 557.628C422.635 557.824 422.532 558.02 422.426 558.213C422.216 558.601 421.996 558.983 421.767 559.359C421.424 559.923 421.062 560.474 420.68 561.011C415.719 567.984 407.571 572.534 398.359 572.534H229.707C220.496 572.534 212.347 567.984 207.387 561.011C207.005 560.474 206.642 559.923 206.299 559.359C206.071 558.983 205.851 558.601 205.64 558.213C205.535 558.02 205.432 557.824 205.331 557.628C205.13 557.234 204.937 556.835 204.755 556.431C204.572 556.027 204.399 555.618 204.235 555.204C204.072 554.79 203.918 554.37 203.775 553.947C203.631 553.523 203.498 553.094 203.375 552.661C203.191 552.012 203.03 551.353 202.893 550.685C202.528 548.904 202.337 547.06 202.337 545.171V116.09C202.337 112.312 203.103 108.713 204.488 105.439C204.747 104.825 205.029 104.223 205.331 103.633C205.432 103.436 205.535 103.241 205.64 103.047C205.851 102.66 206.071 102.277 206.299 101.901C206.414 101.713 206.53 101.527 206.649 101.342C207.123 100.601 207.633 99.8856 208.174 99.1964C208.31 99.0241 208.447 98.8535 208.587 98.6847C209.005 98.1778 209.441 97.6863 209.895 97.2111C210.499 96.5775 211.133 95.973 211.795 95.3996C212.126 95.1128 212.464 94.834 212.809 94.5631C213.154 94.2923 213.505 94.0297 213.863 93.7753C214.221 93.521 214.585 93.275 214.955 93.0378C215.325 92.8006 215.701 92.5719 216.083 92.3523C216.274 92.2425 216.467 92.1349 216.661 92.0295C217.63 91.503 218.635 91.0333 219.671 90.625C220.5 90.2982 221.348 90.0109 222.214 89.765C224.595 89.0889 227.109 88.7269 229.707 88.7269H264.376C264.77 88.7269 265.147 88.7967 265.496 88.9246C265.596 88.9611 265.694 89.0023 265.789 89.0482C265.931 89.1168 266.068 89.1954 266.198 89.2833C266.328 89.371 266.451 89.4681 266.567 89.5732C266.644 89.6434 266.718 89.7171 266.788 89.7942C266.858 89.8713 266.924 89.9519 266.987 90.0354C267.049 90.119 267.108 90.2058 267.162 90.2954C267.462 90.7878 267.634 91.3661 267.634 91.9844V95.1117C267.634 97.075 268.082 98.9336 268.881 100.591C268.97 100.776 269.063 100.957 269.16 101.136C269.403 101.584 269.673 102.015 269.967 102.428C270.084 102.594 270.206 102.756 270.331 102.915C270.456 103.074 270.585 103.23 270.717 103.383C270.85 103.536 270.986 103.686 271.125 103.832C271.265 103.978 271.408 104.121 271.554 104.261C271.92 104.61 272.307 104.937 272.712 105.24C272.875 105.361 273.04 105.479 273.208 105.592C273.544 105.819 273.892 106.031 274.25 106.225C274.43 106.323 274.611 106.416 274.796 106.504C276.454 107.303 278.313 107.751 280.277 107.751H347.659C349.623 107.751 351.482 107.303 353.14 106.504C353.325 106.416 353.506 106.323 353.685 106.225C354.044 106.031 354.391 105.819 354.728 105.592C354.896 105.479 355.061 105.361 355.223 105.24C355.629 104.937 356.016 104.61 356.382 104.261C356.528 104.121 356.671 103.978 356.811 103.832C356.95 103.686 357.086 103.536 357.219 103.383C357.351 103.23 357.48 103.074 357.605 102.915C357.73 102.756 357.852 102.594 357.969 102.428C358.263 102.015 358.533 101.584 358.776 101.136C358.873 100.957 358.966 100.776 359.055 100.591C359.854 98.9336 360.302 97.075 360.302 95.1117V91.9844C360.302 91.3661 360.474 90.7878 360.773 90.2954C360.828 90.2058 360.886 90.119 360.949 90.0354C361.011 89.9519 361.078 89.8713 361.148 89.7942C361.218 89.7171 361.292 89.6434 361.369 89.5732C361.485 89.4681 361.608 89.371 361.738 89.2833C361.868 89.1954 362.005 89.1168 362.147 89.0482C362.242 89.0023 362.339 88.9611 362.439 88.9246C362.789 88.7967 363.166 88.7269 363.56 88.7269H398.359C400.957 88.7269 403.471 89.0889 405.852 89.765C406.718 90.0109 407.567 90.2982 408.395 90.625C409.431 91.0333 410.436 91.503 411.406 92.0295C411.599 92.1349 411.792 92.2425 411.983 92.3523C412.365 92.5719 412.742 92.8006 413.112 93.0378C413.482 93.275 413.846 93.521 414.204 93.7753C414.561 94.0297 414.913 94.2923 415.257 94.5631C415.602 94.834 415.94 95.1128 416.271 95.3996C416.933 95.973 417.568 96.5775 418.172 97.2111C418.625 97.6863 419.061 98.1778 419.48 98.6847C419.619 98.8535 419.757 99.0241 419.892 99.1964C420.434 99.8856 420.943 100.601 421.418 101.342C421.536 101.527 421.653 101.713 421.767 101.901C421.996 102.277 422.216 102.66 422.426 103.047C422.532 103.241 422.635 103.436 422.735 103.633C423.038 104.223 423.319 104.825 423.579 105.439C424.964 108.713 425.73 112.312 425.73 116.09V545.171ZM274.933 95.1117C274.933 94.9138 274.943 94.7182 274.963 94.5256C275.031 93.8509 275.216 93.2109 275.498 92.626C275.659 92.2918 275.852 91.9758 276.072 91.6813C276.237 91.4606 276.418 91.2522 276.613 91.0576C276.742 90.928 276.878 90.8045 277.02 90.6876C278.011 89.8698 279.282 89.3784 280.668 89.3784C282.053 89.3784 283.324 89.8698 284.315 90.6876C284.457 90.8045 284.593 90.928 284.723 91.0576C284.917 91.2522 285.098 91.4606 285.263 91.6813C285.483 91.9758 285.676 92.2918 285.837 92.626C286.119 93.2109 286.304 93.8509 286.373 94.5256C286.392 94.7182 286.402 94.9138 286.402 95.1117C286.402 95.7054 286.312 96.278 286.145 96.8166C285.837 97.804 285.27 98.6768 284.523 99.3555C283.505 100.281 282.152 100.845 280.668 100.845C279.183 100.845 277.83 100.281 276.812 99.3555C276.065 98.6768 275.498 97.804 275.191 96.8166C275.023 96.278 274.933 95.7054 274.933 95.1117ZM433.944 128.286V115.826C433.944 114.915 433.909 114.012 433.841 113.119C433.773 112.226 433.672 111.342 433.538 110.468C433.36 109.303 433.125 108.158 432.836 107.033C432.691 106.471 432.533 105.915 432.362 105.364C432.019 104.262 431.623 103.184 431.178 102.132C430.844 101.342 430.483 100.568 430.094 99.8094C429.964 99.5567 429.832 99.3056 429.696 99.0564C429.426 98.5578 429.143 98.0666 428.849 97.5831C428.555 97.0995 428.25 96.6236 427.934 96.1557C426.827 94.5179 425.586 92.9783 424.227 91.5529C423.45 90.7382 422.634 89.9609 421.783 89.2236C421.358 88.8549 420.923 88.4965 420.48 88.1482C420.258 87.9742 420.034 87.8027 419.809 87.6337C419.357 87.2961 418.897 86.9691 418.429 86.653C417.961 86.3369 417.485 86.0316 417.001 85.7378C416.518 85.4441 416.026 85.1615 415.528 84.8907C415.029 84.62 414.523 84.3608 414.01 84.1138C413.498 83.8667 412.978 83.6318 412.452 83.4092C411.925 83.1867 411.393 82.9766 410.854 82.7793C410.315 82.582 409.77 82.3975 409.219 82.2263C405.913 81.1983 402.398 80.6445 398.754 80.6445H388.115H384.665H334.561V82.9286C334.561 83.3783 334.447 83.8014 334.246 84.1707C334.086 84.4661 333.87 84.7271 333.612 84.9395C333.483 85.0457 333.344 85.1398 333.196 85.2201C333.122 85.2601 333.046 85.2968 332.968 85.3299C332.812 85.3957 332.648 85.4469 332.479 85.4817C332.309 85.5164 332.133 85.5346 331.953 85.5346H295.852C294.416 85.5346 293.253 84.375 293.246 82.942C293.246 82.9374 293.245 82.9332 293.245 82.9286V80.6445H229.182C227.36 80.6445 225.57 80.783 223.823 81.0499C223.24 81.139 222.663 81.2422 222.09 81.3594C221.517 81.4765 220.95 81.6075 220.387 81.7521C220.106 81.8245 219.826 81.9001 219.548 81.9792C218.435 82.2953 217.344 82.6648 216.279 83.0849C216.012 83.1898 215.747 83.298 215.484 83.4092C214.958 83.6318 214.438 83.8667 213.926 84.1138C211.874 85.102 209.934 86.2831 208.127 87.6337C204.966 89.9975 202.215 92.8803 200.002 96.1557C199.211 97.3253 198.489 98.5452 197.842 99.8094C195.38 104.613 193.992 110.058 193.992 115.826V128.286V131.67V529.46V532.844V545.174C193.992 564.604 209.747 580.356 229.182 580.356H240.277H243.466H398.754C409.99 580.356 419.996 575.091 426.438 566.894C426.612 566.673 426.784 566.449 426.953 566.223C427.797 565.095 428.575 563.913 429.281 562.686C429.705 561.949 430.103 561.195 430.474 560.426C430.721 559.914 430.956 559.394 431.178 558.868C432.959 554.659 433.944 550.031 433.944 545.174V532.779V529.395V131.735V128.286Z" fill="black"/>
<path fill-rule="evenodd" clip-rule="evenodd" d="M293.245 82.9419C293.252 84.3749 294.416 85.5345 295.851 85.5345C294.416 85.5345 293.252 84.3749 293.245 82.9419Z" fill="black"/>
<path fill-rule="evenodd" clip-rule="evenodd" d="M398.754 80.6447C402.398 80.6447 405.913 81.1984 409.218 82.2264C409.769 82.3976 410.315 82.5821 410.854 82.7795C411.392 82.9768 411.925 83.1868 412.452 83.4094C412.978 83.6319 413.497 83.8669 414.01 84.114C414.523 84.3609 415.029 84.6201 415.528 84.8909C416.026 85.1616 416.517 85.4442 417.001 85.7379C417.485 86.0318 417.961 86.337 418.429 86.6531C418.897 86.9692 419.357 87.2963 419.809 87.6339C420.034 87.8028 420.258 87.9742 420.48 88.1483C420.923 88.4965 421.357 88.855 421.783 89.2237C422.634 89.961 423.45 90.7383 424.227 91.553C425.586 92.9785 426.827 94.518 427.934 96.1558C428.25 96.6236 428.555 97.0996 428.849 97.5831C429.143 98.0667 429.425 98.5579 429.696 99.0564C429.832 99.3057 429.964 99.5568 430.094 99.8096C430.482 100.568 430.844 101.343 431.178 102.132C431.623 103.184 432.019 104.262 432.361 105.364C432.533 105.915 432.691 106.471 432.836 107.033C433.125 108.158 433.36 109.303 433.538 110.468C433.671 111.342 433.773 112.226 433.841 113.119C433.909 114.012 433.943 114.915 433.943 115.826V128.286H437.459V114.618C437.459 93.8422 420.613 77 399.832 77H388.115V80.6447H398.754Z" fill="white" fill-opacity="0.15"/>
<path fill-rule="evenodd" clip-rule="evenodd" d="M193.991 115.826C193.991 110.058 195.38 104.614 197.841 99.8096C198.489 98.5454 199.211 97.3255 200.001 96.1558C202.215 92.8804 204.965 89.9977 208.127 87.6339C209.933 86.2833 211.874 85.102 213.925 84.114C214.438 83.8669 214.958 83.6319 215.484 83.4094C215.747 83.2981 216.012 83.1899 216.278 83.085C217.344 82.665 218.434 82.2954 219.548 81.9793C219.826 81.9002 220.106 81.8245 220.387 81.7522C220.949 81.6076 221.517 81.4766 222.09 81.3594C222.662 81.2423 223.24 81.139 223.822 81.05C225.57 80.7831 227.359 80.6447 229.182 80.6447H293.245H334.561H384.665V77H228.103C207.322 77 190.476 93.8422 190.476 114.618V128.286H193.991V115.826Z" fill="white" fill-opacity="0.15"/>
<path fill-rule="evenodd" clip-rule="evenodd" d="M437.459 131.735H433.943V529.395H437.459V289.521V228.735V131.735Z" fill="white" fill-opacity="0.15"/>
<path fill-rule="evenodd" clip-rule="evenodd" d="M193.991 131.67H190.476V179.351V198.505V215.835V253.882V264.176V302.224V529.46H193.991V131.67Z" fill="white" fill-opacity="0.15"/>
<path fill-rule="evenodd" clip-rule="evenodd" d="M295.004 82.9938C295.004 82.9533 295.006 82.9133 295.01 82.8738C295.026 82.7162 295.073 82.5677 295.146 82.4347C295.182 82.3683 295.224 82.3057 295.272 82.2478C295.32 82.1899 295.373 82.1366 295.431 82.0888C295.46 82.0649 295.49 82.0423 295.521 82.0212C295.708 81.8948 295.934 81.8211 296.177 81.8211H331.889C331.966 81.8211 332.042 81.8291 332.115 81.8433C332.654 81.9485 333.062 82.4235 333.062 82.9938C333.062 83.5641 332.654 84.039 332.115 84.1442C332.042 84.1585 331.966 84.1664 331.889 84.1664H296.177C295.853 84.1664 295.56 84.0351 295.348 83.823C295.189 83.6639 295.075 83.4591 295.028 83.2301C295.012 83.1537 295.004 83.0747 295.004 82.9938ZM293.245 82.942C293.253 84.375 294.416 85.5346 295.851 85.5346H331.953C332.133 85.5346 332.309 85.5164 332.479 85.4817C332.648 85.4469 332.812 85.3957 332.968 85.3299C333.046 85.2968 333.122 85.2601 333.196 85.2201C333.344 85.1398 333.483 85.0457 333.612 84.9395C333.869 84.7271 334.085 84.4661 334.246 84.1707C334.447 83.8016 334.561 83.3784 334.561 82.9286V80.6445H293.245V82.9286C293.245 82.9332 293.245 82.9374 293.245 82.942Z" fill="white" fill-opacity="0.15"/>
<path fill-rule="evenodd" clip-rule="evenodd" d="M295.004 82.9938C295.004 82.9533 295.006 82.9133 295.01 82.8738C295.026 82.7162 295.073 82.5677 295.146 82.4347C295.182 82.3683 295.224 82.3057 295.272 82.2478C295.32 82.1899 295.373 82.1366 295.431 82.0888C295.46 82.0649 295.49 82.0423 295.521 82.0212C295.708 81.8948 295.934 81.8211 296.177 81.8211H331.889C331.966 81.8211 332.042 81.8291 332.115 81.8433C332.654 81.9485 333.062 82.4235 333.062 82.9938C333.062 83.5641 332.654 84.039 332.115 84.1442C332.042 84.1585 331.966 84.1664 331.889 84.1664H296.177C295.853 84.1664 295.56 84.0351 295.348 83.823C295.189 83.6639 295.075 83.4591 295.028 83.2301C295.012 83.1537 295.004 83.0747 295.004 82.9938ZM293.245 82.942C293.253 84.375 294.416 85.5346 295.851 85.5346H331.953C332.133 85.5346 332.309 85.5164 332.479 85.4817C332.648 85.4469 332.812 85.3957 332.968 85.3299C333.046 85.2968 333.122 85.2601 333.196 85.2201C333.344 85.1398 333.483 85.0457 333.612 84.9395C333.869 84.7271 334.085 84.4661 334.246 84.1707C334.447 83.8016 334.561 83.3784 334.561 82.9286V80.6445H293.245V82.9286C293.245 82.9332 293.245 82.9374 293.245 82.942Z" fill="white" fill-opacity="0.15"/>
<path fill-rule="evenodd" clip-rule="evenodd" d="M189.303 179.351C188.583 179.351 188 179.935 188 180.655V197.201C188 197.921 188.583 198.505 189.303 198.505H190.476V179.351H189.303Z" fill="black"/>
<path fill-rule="evenodd" clip-rule="evenodd" d="M189.564 215.835C189.294 215.835 189.043 215.916 188.835 216.055C188.766 216.101 188.701 216.154 188.642 216.213C188.583 216.271 188.53 216.335 188.483 216.404C188.343 216.61 188.261 216.859 188.261 217.129V252.589C188.261 252.859 188.343 253.109 188.483 253.315C188.53 253.384 188.583 253.448 188.642 253.506C188.701 253.564 188.766 253.617 188.835 253.663C189.043 253.802 189.294 253.883 189.564 253.883H190.476V215.835H189.564Z" fill="black"/>
<path fill-rule="evenodd" clip-rule="evenodd" d="M189.564 264.176C189.294 264.176 189.043 264.257 188.835 264.396C188.766 264.442 188.701 264.495 188.642 264.554C188.583 264.612 188.53 264.676 188.483 264.745C188.343 264.951 188.261 265.201 188.261 265.471V300.931C188.261 301.201 188.343 301.45 188.483 301.656C188.53 301.725 188.583 301.789 188.642 301.848C188.701 301.906 188.766 301.959 188.835 302.005C189.043 302.144 189.294 302.224 189.564 302.224H190.476V264.176H189.564Z" fill="black"/>
<path fill-rule="evenodd" clip-rule="evenodd" d="M433.943 131.735H437.459V128.286H433.943V131.735Z" fill="black"/>
<path d="M437.915 228.735H437.459V289.521H437.915C438.635 289.521 439.218 288.938 439.218 288.218V230.038C439.218 229.318 438.635 228.735 437.915 228.735Z" fill="white" fill-opacity="0.3"/>
<path fill-rule="evenodd" clip-rule="evenodd" d="M384.665 80.6447H388.115V77H384.665V80.6447Z" fill="black"/>
<path fill-rule="evenodd" clip-rule="evenodd" d="M190.476 131.67H193.991V128.286H190.476V131.67Z" fill="black"/>
<path d="M433.943 131.735H437.459V128.286H433.943V131.735Z" fill="white" fill-opacity="0.3"/>
<path d="M384.665 80.6447H388.115V77H384.665V80.6447Z" fill="white" fill-opacity="0.3"/>
<path d="M190.476 131.67H193.991V128.286H190.476V131.67Z" fill="white" fill-opacity="0.3"/>
<path fill-rule="evenodd" clip-rule="evenodd" d="M276.811 99.3555C277.83 100.281 279.183 100.845 280.667 100.845C282.152 100.845 283.505 100.281 284.523 99.3555C285.27 98.6768 285.837 97.8039 286.144 96.8166C286.312 96.278 286.402 95.7054 286.402 95.1117C286.402 94.9138 286.392 94.7182 286.372 94.5256C286.304 93.8509 286.118 93.2109 285.837 92.626C285.675 92.2918 285.483 91.9757 285.263 91.6813C285.098 91.4606 284.917 91.2522 284.722 91.0577C284.593 90.9279 284.457 90.8045 284.315 90.6876C283.324 89.8697 282.053 89.3784 280.667 89.3784C279.282 89.3784 278.011 89.8697 277.02 90.6876C276.878 90.8045 276.742 90.9279 276.612 91.0577C276.418 91.2522 276.237 91.4606 276.072 91.6813C275.852 91.9757 275.659 92.2918 275.498 92.626C275.216 93.2109 275.031 93.8509 274.962 94.5256C274.943 94.7182 274.933 94.9138 274.933 95.1117C274.933 95.7054 275.023 96.278 275.191 96.8166C275.498 97.8039 276.065 98.6768 276.811 99.3555Z" fill="white" fill-opacity="0.15"/>
<path fill-rule="evenodd" clip-rule="evenodd" d="M295.348 83.8232C295.56 84.0355 295.853 84.1667 296.177 84.1667H331.889C332.213 84.1667 332.506 84.0355 332.718 83.8232C332.877 83.6641 332.99 83.4593 333.037 83.2304C333.053 83.1539 333.061 83.075 333.061 82.994C333.061 82.9535 333.059 82.9136 333.055 82.8741C333.039 82.7164 332.992 82.568 332.92 82.4349C332.884 82.3685 332.841 82.3059 332.794 82.248C332.746 82.1901 332.692 82.1368 332.635 82.089C332.606 82.0651 332.576 82.0426 332.544 82.0216C332.357 81.8951 332.132 81.8213 331.889 81.8213H296.177C295.934 81.8213 295.709 81.8951 295.522 82.0216C295.49 82.0426 295.46 82.0651 295.431 82.089C295.373 82.1368 295.32 82.1901 295.272 82.248C295.224 82.3059 295.182 82.3685 295.146 82.4349C295.074 82.568 295.026 82.7164 295.01 82.8741C295.006 82.9136 295.004 82.9535 295.004 82.994C295.004 83.075 295.013 83.1539 295.028 83.2304C295.075 83.4593 295.189 83.6641 295.348 83.8232Z" fill="white" fill-opacity="0.15"/>
<path fill-rule="evenodd" clip-rule="evenodd" d="M295.348 83.8232C295.56 84.0355 295.853 84.1667 296.177 84.1667H331.889C332.213 84.1667 332.506 84.0355 332.718 83.8232C332.877 83.6641 332.99 83.4593 333.037 83.2304C333.053 83.1539 333.061 83.075 333.061 82.994C333.061 82.9535 333.059 82.9136 333.055 82.8741C333.039 82.7164 332.992 82.568 332.92 82.4349C332.884 82.3685 332.841 82.3059 332.794 82.248C332.746 82.1901 332.692 82.1368 332.635 82.089C332.606 82.0651 332.576 82.0426 332.544 82.0216C332.357 81.8951 332.132 81.8213 331.889 81.8213H296.177C295.934 81.8213 295.709 81.8951 295.522 82.0216C295.49 82.0426 295.46 82.0651 295.431 82.089C295.373 82.1368 295.32 82.1901 295.272 82.248C295.224 82.3059 295.182 82.3685 295.146 82.4349C295.074 82.568 295.026 82.7164 295.01 82.8741C295.006 82.9136 295.004 82.9535 295.004 82.994C295.004 83.075 295.013 83.1539 295.028 83.2304C295.075 83.4593 295.189 83.6641 295.348 83.8232Z" fill="white" fill-opacity="0.15"/>
<path fill-rule="evenodd" clip-rule="evenodd" d="M295.348 83.8232C295.56 84.0355 295.853 84.1667 296.177 84.1667H331.889C332.213 84.1667 332.506 84.0355 332.718 83.8232C332.877 83.6641 332.99 83.4593 333.037 83.2304C333.053 83.1539 333.061 83.075 333.061 82.994C333.061 82.9535 333.059 82.9136 333.055 82.8741C333.039 82.7164 332.992 82.568 332.92 82.4349C332.884 82.3685 332.841 82.3059 332.794 82.248C332.746 82.1901 332.692 82.1368 332.635 82.089C332.606 82.0651 332.576 82.0426 332.544 82.0216C332.357 81.8951 332.132 81.8213 331.889 81.8213H296.177C295.934 81.8213 295.709 81.8951 295.522 82.0216C295.49 82.0426 295.46 82.0651 295.431 82.089C295.373 82.1368 295.32 82.1901 295.272 82.248C295.224 82.3059 295.182 82.3685 295.146 82.4349C295.074 82.568 295.026 82.7164 295.01 82.8741C295.006 82.9136 295.004 82.9535 295.004 82.994C295.004 83.075 295.013 83.1539 295.028 83.2304C295.075 83.4593 295.189 83.6641 295.348 83.8232Z" fill="white" fill-opacity="0.15"/>
<mask id="mask0_66_23336" style="mask-type:alpha" maskUnits="userSpaceOnUse" x="202" y="88" width="224" height="485">
<path d="M422.735 103.633C422.634 103.436 422.531 103.241 422.426 103.047C422.215 102.66 421.995 102.277 421.767 101.901C421.653 101.713 421.536 101.527 421.417 101.342C420.943 100.601 420.433 99.8858 419.892 99.1965C419.756 99.0243 419.619 98.8536 419.479 98.6847C419.061 98.178 418.625 97.6865 418.171 97.2112C417.567 96.5777 416.933 95.973 416.271 95.3996C415.94 95.1129 415.602 94.834 415.257 94.5633C414.912 94.2924 414.561 94.0297 414.203 93.7754C413.846 93.521 413.481 93.2752 413.111 93.0378C412.741 92.8006 412.365 92.572 411.983 92.3523C411.792 92.2425 411.599 92.1349 411.405 92.0297C410.436 91.5031 409.431 91.0334 408.395 90.625C407.566 90.2984 406.718 90.0109 405.852 89.765C403.471 89.0889 400.957 88.7271 398.359 88.7271H363.559C363.166 88.7271 362.788 88.7968 362.439 88.9247C362.339 88.9612 362.242 89.0025 362.147 89.0483C362.004 89.1169 361.868 89.1956 361.738 89.2834C361.608 89.3712 361.484 89.4682 361.369 89.5732C361.291 89.6434 361.218 89.7171 361.148 89.7942C361.077 89.8714 361.011 89.9519 360.948 90.0355C360.886 90.1192 360.827 90.2058 360.773 90.2954C360.474 90.788 360.301 91.3661 360.301 91.9846V95.1119C360.301 97.075 359.854 98.9338 359.055 100.591C358.966 100.776 358.873 100.957 358.775 101.136C358.532 101.584 358.263 102.015 357.969 102.428C357.851 102.594 357.73 102.756 357.605 102.915C357.48 103.074 357.351 103.23 357.218 103.383C357.086 103.536 356.95 103.686 356.81 103.832C356.671 103.978 356.528 104.121 356.381 104.261C356.015 104.61 355.629 104.937 355.223 105.24C355.061 105.361 354.896 105.479 354.727 105.592C354.391 105.819 354.043 106.031 353.685 106.225C353.506 106.323 353.324 106.416 353.14 106.505C351.482 107.303 349.623 107.751 347.659 107.751H280.276C278.312 107.751 276.453 107.303 274.795 106.505C274.611 106.416 274.429 106.323 274.25 106.225C273.892 106.031 273.544 105.819 273.208 105.592C273.04 105.479 272.874 105.361 272.712 105.24C272.306 104.937 271.92 104.61 271.554 104.261C271.407 104.121 271.264 103.978 271.125 103.832C270.985 103.686 270.849 103.536 270.717 103.383C270.584 103.23 270.455 103.074 270.33 102.915C270.205 102.756 270.084 102.594 269.966 102.428C269.672 102.015 269.403 101.584 269.16 101.136C269.062 100.957 268.969 100.776 268.88 100.591C268.081 98.9338 267.634 97.075 267.634 95.1119V91.9846C267.634 91.3661 267.461 90.788 267.162 90.2954C267.108 90.2058 267.049 90.1192 266.986 90.0355C266.924 89.9519 266.857 89.8714 266.787 89.7942C266.717 89.7171 266.643 89.6434 266.566 89.5732C266.451 89.4682 266.327 89.3712 266.197 89.2834C266.067 89.1956 265.93 89.1169 265.788 89.0483C265.693 89.0025 265.596 88.9612 265.496 88.9247C265.146 88.7968 264.769 88.7271 264.375 88.7271H229.707C227.108 88.7271 224.595 89.0889 222.214 89.765C221.348 90.0109 220.499 90.2984 219.671 90.625C218.635 91.0334 217.63 91.5031 216.66 92.0297C216.466 92.1349 216.274 92.2425 216.083 92.3523C215.701 92.572 215.325 92.8006 214.954 93.0378C214.584 93.2752 214.22 93.521 213.862 93.7754C213.505 94.0297 213.153 94.2924 212.809 94.5633C212.464 94.834 212.126 95.1129 211.795 95.3996C211.133 95.973 210.498 96.5777 209.894 97.2112C209.441 97.6865 209.005 98.178 208.586 98.6847C208.447 98.8536 208.31 99.0243 208.174 99.1965C207.632 99.8858 207.123 100.601 206.648 101.342C206.53 101.527 206.413 101.713 206.299 101.901C206.07 102.277 205.85 102.66 205.64 103.047C205.535 103.241 205.431 103.436 205.331 103.633C205.028 104.223 204.747 104.825 204.487 105.439C203.102 108.713 202.336 112.312 202.336 116.09V545.171C202.336 547.06 202.528 548.904 202.892 550.685C203.029 551.353 203.19 552.012 203.375 552.662C203.498 553.094 203.631 553.523 203.774 553.947C203.918 554.371 204.072 554.79 204.235 555.204C204.398 555.618 204.571 556.027 204.754 556.432C204.937 556.836 205.129 557.234 205.331 557.628C205.431 557.824 205.535 558.02 205.64 558.213C205.85 558.601 206.07 558.983 206.299 559.359C206.642 559.924 207.005 560.474 207.386 561.011C212.347 567.985 220.495 572.534 229.707 572.534H398.359C407.57 572.534 415.719 567.985 420.68 561.011C421.061 560.474 421.424 559.924 421.767 559.359C421.995 558.983 422.215 558.601 422.426 558.213C422.531 558.02 422.634 557.824 422.735 557.628C422.936 557.234 423.129 556.836 423.312 556.432C423.494 556.027 423.667 555.618 423.831 555.204C423.994 554.79 424.148 554.371 424.291 553.947C424.435 553.523 424.568 553.094 424.691 552.662C424.875 552.012 425.037 551.353 425.173 550.685C425.538 548.904 425.729 547.06 425.729 545.171V116.09C425.729 112.312 424.963 108.713 423.578 105.439C423.319 104.825 423.037 104.223 422.735 103.633Z" fill="black"/>
</mask>
<g mask="url(#mask0_66_23336)">
<path d="M422.735 103.633C422.634 103.436 422.531 103.241 422.426 103.047C422.215 102.66 421.995 102.277 421.767 101.901C421.653 101.713 421.536 101.527 421.417 101.342C420.943 100.601 420.433 99.8858 419.892 99.1965C419.756 99.0243 419.619 98.8536 419.479 98.6847C419.061 98.178 418.625 97.6865 418.171 97.2112C417.567 96.5777 416.933 95.973 416.271 95.3996C415.94 95.1129 415.602 94.834 415.257 94.5633C414.912 94.2924 414.561 94.0297 414.203 93.7754C413.846 93.521 413.481 93.2752 413.111 93.0378C412.741 92.8006 412.365 92.572 411.983 92.3523C411.792 92.2425 411.599 92.1349 411.405 92.0297C410.436 91.5031 409.431 91.0334 408.395 90.625C407.566 90.2984 406.718 90.0109 405.852 89.765C403.471 89.0889 400.957 88.7271 398.359 88.7271H363.559C363.166 88.7271 362.788 88.7968 362.439 88.9247C362.339 88.9612 362.242 89.0025 362.147 89.0483C362.004 89.1169 361.868 89.1956 361.738 89.2834C361.608 89.3712 361.484 89.4682 361.369 89.5732C361.291 89.6434 361.218 89.7171 361.148 89.7942C361.077 89.8714 361.011 89.9519 360.948 90.0355C360.886 90.1192 360.827 90.2058 360.773 90.2954C360.474 90.788 360.301 91.3661 360.301 91.9846V95.1119C360.301 97.075 359.854 98.9338 359.055 100.591C358.966 100.776 358.873 100.957 358.775 101.136C358.532 101.584 358.263 102.015 357.969 102.428C357.851 102.594 357.73 102.756 357.605 102.915C357.48 103.074 357.351 103.23 357.218 103.383C357.086 103.536 356.95 103.686 356.81 103.832C356.671 103.978 356.528 104.121 356.381 104.261C356.015 104.61 355.629 104.937 355.223 105.24C355.061 105.361 354.896 105.479 354.727 105.592C354.391 105.819 354.043 106.031 353.685 106.225C353.506 106.323 353.324 106.416 353.14 106.505C351.482 107.303 349.623 107.751 347.659 107.751H280.276C278.312 107.751 276.453 107.303 274.795 106.505C274.611 106.416 274.429 106.323 274.25 106.225C273.892 106.031 273.544 105.819 273.208 105.592C273.04 105.479 272.874 105.361 272.712 105.24C272.306 104.937 271.92 104.61 271.554 104.261C271.407 104.121 271.264 103.978 271.125 103.832C270.985 103.686 270.849 103.536 270.717 103.383C270.584 103.23 270.455 103.074 270.33 102.915C270.205 102.756 270.084 102.594 269.966 102.428C269.672 102.015 269.403 101.584 269.16 101.136C269.062 100.957 268.969 100.776 268.88 100.591C268.081 98.9338 267.634 97.075 267.634 95.1119V91.9846C267.634 91.3661 267.461 90.788 267.162 90.2954C267.108 90.2058 267.049 90.1192 266.986 90.0355C266.924 89.9519 266.857 89.8714 266.787 89.7942C266.717 89.7171 266.643 89.6434 266.566 89.5732C266.451 89.4682 266.327 89.3712 266.197 89.2834C266.067 89.1956 265.93 89.1169 265.788 89.0483C265.693 89.0025 265.596 88.9612 265.496 88.9247C265.146 88.7968 264.769 88.7271 264.375 88.7271H229.707C227.108 88.7271 224.595 89.0889 222.214 89.765C221.348 90.0109 220.499 90.2984 219.671 90.625C218.635 91.0334 217.63 91.5031 216.66 92.0297C216.466 92.1349 216.274 92.2425 216.083 92.3523C215.701 92.572 215.325 92.8006 214.954 93.0378C214.584 93.2752 214.22 93.521 213.862 93.7754C213.505 94.0297 213.153 94.2924 212.809 94.5633C212.464 94.834 212.126 95.1129 211.795 95.3996C211.133 95.973 210.498 96.5777 209.894 97.2112C209.441 97.6865 209.005 98.178 208.586 98.6847C208.447 98.8536 208.31 99.0243 208.174 99.1965C207.632 99.8858 207.123 100.601 206.648 101.342C206.53 101.527 206.413 101.713 206.299 101.901C206.07 102.277 205.85 102.66 205.64 103.047C205.535 103.241 205.431 103.436 205.331 103.633C205.028 104.223 204.747 104.825 204.487 105.439C203.102 108.713 202.336 112.312 202.336 116.09V545.171C202.336 547.06 202.528 548.904 202.892 550.685C203.029 551.353 203.19 552.012 203.375 552.662C203.498 553.094 203.631 553.523 203.774 553.947C203.918 554.371 204.072 554.79 204.235 555.204C204.398 555.618 204.571 556.027 204.754 556.432C204.937 556.836 205.129 557.234 205.331 557.628C205.431 557.824 205.535 558.02 205.64 558.213C205.85 558.601 206.07 558.983 206.299 559.359C206.642 559.924 207.005 560.474 207.386 561.011C212.347 567.985 220.495 572.534 229.707 572.534H398.359C407.57 572.534 415.719 567.985 420.68 561.011C421.061 560.474 421.424 559.924 421.767 559.359C421.995 558.983 422.215 558.601 422.426 558.213C422.531 558.02 422.634 557.824 422.735 557.628C422.936 557.234 423.129 556.836 423.312 556.432C423.494 556.027 423.667 555.618 423.831 555.204C423.994 554.79 424.148 554.371 424.291 553.947C424.435 553.523 424.568 553.094 424.691 552.662C424.875 552.012 425.037 551.353 425.173 550.685C425.538 548.904 425.729 547.06 425.729 545.171V116.09C425.729 112.312 424.963 108.713 423.578 105.439C423.319 104.825 423.037 104.223 422.735 103.633Z" fill="black"/>
<rect x="201.693" y="88.0838" width="225.162" height="485.416" fill="white"/>
</g>
</svg>
