<svg width="628" height="664" viewBox="0 0 628 664" fill="none" xmlns="http://www.w3.org/2000/svg">
<rect width="628" height="664" fill="#F9F9F9"/>
<path fill-rule="evenodd" clip-rule="evenodd" d="M24.0355 489.348V481.049C24.0355 480.886 24.1667 480.751 24.3384 480.751L81.2672 480.751C80.2452 480.627 79.4505 479.755 79.4505 478.701V180.259C79.4505 172.956 85.4066 167 92.7053 167H536.304C543.603 167 549.549 172.956 549.549 180.259V478.701C549.549 479.755 548.755 480.626 547.741 480.751L604.189 480.751C604.351 480.751 604.492 480.886 604.492 481.049V489.348C604.492 489.504 604.362 489.633 604.209 489.643L604.189 489.644C604.351 489.644 604.623 489.857 604.492 489.899C592.67 493.756 585.34 497.222 559.696 496.989H61.9465C44.1773 496.508 36.2215 493.496 24.0355 489.899C23.9042 489.859 24.1667 489.644 24.3384 489.644C24.1667 489.644 24.0355 489.511 24.0355 489.348Z" fill="black"/>
<path d="M537.353 185.057H90.4678V465.136H537.353V185.057Z" fill="white" fill-opacity="0.3"/>
<path fill-rule="evenodd" clip-rule="evenodd" d="M92.6586 167H536.303C543.602 167 549.549 172.956 549.549 180.258V478.686C549.549 479.825 548.62 480.751 547.489 480.751H81.4721C80.3312 480.751 79.4023 479.825 79.4023 478.686V180.258C79.4023 172.956 85.3591 167 92.6586 167Z" fill="#657B9A" fill-opacity="0.15"/>
<path fill-rule="evenodd" clip-rule="evenodd" d="M92.3563 168.591H536.596C542.926 168.591 548.085 173.76 548.085 180.098V478.684C548.085 479.823 547.157 480.751 546.026 480.751H82.9366C81.8058 480.751 80.877 479.823 80.877 478.684V180.098C80.877 173.76 86.0361 168.591 92.3563 168.591Z" fill="black"/>
<rect x="90" y="185" width="447" height="279" fill="white"/>
</svg>
