<svg width="628" height="640" viewBox="0 0 628 640" fill="none" xmlns="http://www.w3.org/2000/svg">
<rect width="628" height="640" fill="#F5F3F3"/>
<path fill-rule="evenodd" clip-rule="evenodd" d="M399.161 55C419.777 55 436.491 71.7093 436.491 92.3214V205.538H436.944C437.658 205.538 438.236 206.116 438.236 206.831V264.551C438.236 265.265 437.658 265.844 436.944 265.844H436.491V503.825V503.825V507.183H436.491L436.491 520.678C436.491 541.084 420.11 557.665 399.778 557.994L399.161 557.999H240.864V554.384H240.864V557.999H228.787C208.17 557.999 191.457 541.29 191.457 520.678V507.247L191.457 507.247V503.89L191.457 503.89L191.457 278.447H190.552C190.284 278.447 190.035 278.367 189.829 278.23C189.76 278.184 189.696 278.131 189.637 278.074C189.579 278.016 189.526 277.952 189.479 277.884C189.34 277.679 189.259 277.432 189.259 277.164V241.984C189.259 241.716 189.34 241.468 189.479 241.264C189.526 241.195 189.579 241.132 189.637 241.074C189.696 241.016 189.76 240.964 189.829 240.918C190.035 240.78 190.284 240.7 190.552 240.7H191.457V230.487H190.552C190.284 230.487 190.035 230.407 189.829 230.269C189.76 230.223 189.696 230.171 189.637 230.113C189.579 230.055 189.526 229.992 189.479 229.924C189.34 229.719 189.259 229.472 189.259 229.204V194.024C189.259 193.756 189.34 193.508 189.479 193.304C189.526 193.235 189.579 193.172 189.637 193.114C189.696 193.056 189.76 193.004 189.829 192.958C190.035 192.82 190.284 192.74 190.552 192.74H191.457L191.457 175.547H190.293C189.579 175.547 189 174.967 189 174.253V157.837C189 157.123 189.579 156.544 190.293 156.544H191.457L191.457 109.239L191.457 109.239V105.881L191.457 105.881V92.3214C191.457 71.7093 208.17 55 228.787 55L399.161 55ZM264.773 66.6345H230.378C230.029 66.6345 229.683 66.641 229.337 66.654L229.131 66.6627C229.544 66.644 229.96 66.6345 230.378 66.6345H264.773L264.856 66.6355L264.773 66.6345ZM397.699 66.6345H363.174C363.118 66.6345 363.063 66.6359 363.008 66.6387L363.091 66.6356L363.174 66.6345H397.699C398.117 66.6345 398.533 66.644 398.947 66.6627L398.74 66.654C398.395 66.641 398.048 66.6345 397.699 66.6345ZM295.899 63.4654L295.95 63.4669L296 63.4674H331.817C331.847 63.4674 331.877 63.4669 331.906 63.4659L331.817 63.4673H296C295.983 63.4673 295.966 63.4672 295.95 63.4669L295.899 63.4654Z" fill="white" stroke="black" stroke-width="0.5" stroke-linejoin="round"/>
<path fill-rule="evenodd" clip-rule="evenodd" d="M424.855 519.477C424.855 521.351 424.665 523.18 424.303 524.948C424.167 525.61 424.008 526.264 423.825 526.908C423.703 527.338 423.57 527.763 423.428 528.183C423.286 528.604 423.133 529.02 422.971 529.431C422.809 529.842 422.637 530.248 422.456 530.649C422.275 531.049 422.084 531.445 421.884 531.835C421.784 532.03 421.682 532.224 421.577 532.417C421.368 532.801 421.15 533.18 420.923 533.553C420.583 534.113 420.223 534.659 419.845 535.192C414.923 542.11 406.839 546.624 397.7 546.624H230.379C221.24 546.624 213.156 542.11 208.234 535.192C207.856 534.659 207.496 534.113 207.156 533.553C206.929 533.18 206.711 532.801 206.502 532.417C206.397 532.224 206.295 532.03 206.195 531.835C205.995 531.445 205.805 531.049 205.623 530.649C205.442 530.248 205.27 529.842 205.108 529.431C204.946 529.02 204.794 528.604 204.651 528.183C204.509 527.763 204.377 527.338 204.255 526.908C204.072 526.264 203.912 525.61 203.776 524.948C203.415 523.18 203.225 521.351 203.225 519.477V93.7818C203.225 90.0336 203.984 86.4628 205.359 83.215C205.616 82.6059 205.895 82.0083 206.195 81.4231C206.295 81.2279 206.397 81.0342 206.502 80.8419C206.711 80.4573 206.929 80.0782 207.156 79.705C207.269 79.5184 207.385 79.3333 207.502 79.1497C207.973 78.4154 208.479 77.7052 209.016 77.0214C209.151 76.8505 209.287 76.6812 209.425 76.5138C209.84 76.0109 210.273 75.5233 210.723 75.0519C211.322 74.4232 211.952 73.8235 212.608 73.2546C212.937 72.9701 213.272 72.6934 213.614 72.4247C213.956 72.1561 214.305 71.8955 214.66 71.6432C215.015 71.3908 215.376 71.1468 215.743 70.9114C216.11 70.6761 216.484 70.4492 216.863 70.2313C217.052 70.1224 217.243 70.0156 217.435 69.9111C218.397 69.3887 219.394 68.9228 220.422 68.5177C221.244 68.1935 222.086 67.9084 222.945 67.6644C225.307 66.9937 227.801 66.6345 230.379 66.6345H264.774C265.165 66.6345 265.539 66.7038 265.886 66.8307C265.985 66.8669 266.081 66.9078 266.176 66.9534C266.317 67.0214 266.452 67.0993 266.581 67.1866C266.71 67.2736 266.833 67.3699 266.948 67.4742C267.024 67.5438 267.097 67.6169 267.167 67.6934C267.236 67.77 267.302 67.8499 267.364 67.9328C267.427 68.0157 267.485 68.1018 267.539 68.1906C267.836 68.6792 268.007 69.2529 268.007 69.8664V72.969C268.007 74.9168 268.451 76.7607 269.244 78.4054C269.332 78.5881 269.424 78.7683 269.52 78.946C269.762 79.3902 270.029 79.8182 270.321 80.2278C270.437 80.3918 270.558 80.5527 270.682 80.7107C270.806 80.8686 270.934 81.0233 271.065 81.1751C271.197 81.3268 271.332 81.4753 271.47 81.6204C271.609 81.7657 271.75 81.9074 271.896 82.0458C272.259 82.3919 272.642 82.7164 273.045 83.0172C273.206 83.1376 273.37 83.2542 273.537 83.3668C273.87 83.5922 274.215 83.8019 274.571 83.9949C274.749 84.0914 274.929 84.1838 275.112 84.2718C276.757 85.0643 278.601 85.5083 280.549 85.5083H347.401C349.349 85.5083 351.193 85.0643 352.838 84.2718C353.021 84.1838 353.201 84.0914 353.379 83.9949C353.734 83.8019 354.079 83.5922 354.413 83.3668C354.58 83.2542 354.744 83.1376 354.905 83.0172C355.307 82.7164 355.691 82.3919 356.054 82.0458C356.199 81.9074 356.341 81.7657 356.48 81.6204C356.618 81.4753 356.753 81.3268 356.884 81.1751C357.016 81.0233 357.144 80.8686 357.268 80.7107C357.392 80.5527 357.512 80.3918 357.629 80.2278C357.92 79.8182 358.188 79.3902 358.429 78.946C358.526 78.7683 358.618 78.5881 358.706 78.4054C359.499 76.7607 359.943 74.9168 359.943 72.969V69.8664C359.943 69.2529 360.114 68.6792 360.411 68.1906C360.465 68.1018 360.523 68.0157 360.585 67.9328C360.647 67.8499 360.713 67.77 360.783 67.6934C360.852 67.6169 360.925 67.5438 361.002 67.4742C361.117 67.3699 361.239 67.2736 361.368 67.1866C361.497 67.0993 361.632 67.0214 361.774 66.9534C361.868 66.9078 361.965 66.8669 362.064 66.8307C362.41 66.7038 362.785 66.6345 363.175 66.6345H397.7C400.278 66.6345 402.772 66.9937 405.134 67.6644C405.993 67.9084 406.835 68.1935 407.657 68.5177C408.685 68.9228 409.682 69.3887 410.644 69.9111C410.836 70.0156 411.027 70.1224 411.217 70.2313C411.596 70.4492 411.969 70.6761 412.336 70.9114C412.703 71.1468 413.065 71.3908 413.42 71.6432C413.775 71.8955 414.123 72.1561 414.465 72.4247C414.807 72.6934 415.142 72.9701 415.471 73.2546C416.128 73.8235 416.757 74.4232 417.356 75.0519C417.806 75.5233 418.239 76.0109 418.654 76.5138C418.792 76.6812 418.929 76.8505 419.063 77.0214C419.6 77.7052 420.106 78.4154 420.577 79.1497C420.695 79.3333 420.81 79.5184 420.923 79.705C421.15 80.0782 421.368 80.4573 421.577 80.8419C421.682 81.0342 421.784 81.2279 421.884 81.4231C422.184 82.0083 422.463 82.6059 422.721 83.215C424.095 86.4628 424.855 90.0336 424.855 93.7818V519.477ZM275.248 72.969C275.248 72.7727 275.258 72.5786 275.277 72.3875C275.345 71.7181 275.529 71.0832 275.809 70.5029C275.969 70.1714 276.16 69.8578 276.378 69.5657C276.542 69.3467 276.721 69.1399 276.914 68.9468C277.043 68.8183 277.178 68.6958 277.318 68.5798C278.302 67.7684 279.563 67.281 280.937 67.281C282.312 67.281 283.573 67.7684 284.556 68.5798C284.697 68.6958 284.832 68.8183 284.96 68.9468C285.153 69.1399 285.333 69.3467 285.496 69.5657C285.715 69.8578 285.906 70.1714 286.066 70.5029C286.345 71.0832 286.529 71.7181 286.597 72.3875C286.617 72.5786 286.627 72.7727 286.627 72.969C286.627 73.558 286.537 74.1261 286.371 74.6605C286.066 75.64 285.504 76.506 284.763 77.1793C283.752 78.0973 282.41 78.6569 280.937 78.6569C279.464 78.6569 278.122 78.0973 277.112 77.1793C276.371 76.506 275.808 75.64 275.504 74.6605C275.337 74.1261 275.248 73.558 275.248 72.969ZM433.004 105.881V93.5195C433.004 92.616 432.969 91.7204 432.902 90.8341C432.834 89.9478 432.734 89.0708 432.601 88.2041C432.425 87.0487 432.192 85.9119 431.905 84.7967C431.761 84.2389 431.604 83.6869 431.434 83.1403C431.094 82.0474 430.702 80.9775 430.26 79.9335C429.929 79.1505 429.57 78.3822 429.184 77.6297C429.056 77.3789 428.924 77.1298 428.79 76.8825C428.521 76.3879 428.241 75.9006 427.95 75.4209C427.658 74.9411 427.355 74.4689 427.041 74.0047C425.944 72.3798 424.712 70.8525 423.364 69.4382C422.593 68.63 421.784 67.8588 420.939 67.1274C420.517 66.7616 420.086 66.406 419.646 66.0604C419.426 65.8878 419.204 65.7177 418.98 65.55C418.532 65.2151 418.076 64.8906 417.612 64.577C417.147 64.2634 416.675 63.9605 416.195 63.669C415.715 63.3776 415.228 63.0973 414.733 62.8287C414.239 62.56 413.737 62.3029 413.228 62.0579C412.719 61.8128 412.204 61.5796 411.681 61.3588C411.159 61.138 410.631 60.9297 410.096 60.7339C409.561 60.5381 409.02 60.3551 408.474 60.1852C405.194 59.1654 401.707 58.616 398.092 58.616H387.537H384.114H334.405V60.882C334.405 61.3281 334.292 61.748 334.093 62.1143C333.934 62.4074 333.719 62.6663 333.464 62.877C333.336 62.9824 333.198 63.0758 333.051 63.1554C332.978 63.1952 332.903 63.2315 332.825 63.2643C332.671 63.3297 332.508 63.3805 332.34 63.415C332.171 63.4493 331.997 63.4675 331.818 63.4675H296.001C294.578 63.4675 293.423 62.317 293.416 60.8953C293.416 60.8908 293.415 60.8865 293.415 60.882V58.616H229.858C228.05 58.616 226.275 58.7533 224.541 59.0181C223.963 59.1065 223.39 59.2089 222.822 59.3252C222.254 59.4413 221.69 59.5713 221.133 59.7148C220.854 59.7866 220.576 59.8616 220.3 59.9401C219.196 60.2537 218.113 60.6203 217.056 61.037C216.792 61.1411 216.529 61.2485 216.268 61.3588C215.746 61.5796 215.231 61.8128 214.722 62.0579C212.687 63.0383 210.761 64.2101 208.969 65.55C205.833 67.8951 203.104 70.7551 200.908 74.0047C200.124 75.1652 199.407 76.3754 198.765 77.6297C196.323 82.3957 194.945 87.7969 194.945 93.5195V105.881V109.239V503.89V507.247V519.48C194.945 538.756 210.576 554.384 229.858 554.384H240.865H244.03H398.092C409.239 554.384 419.166 549.161 425.558 541.029C425.73 540.809 425.901 540.587 426.068 540.363C426.906 539.243 427.678 538.072 428.378 536.853C428.799 536.123 429.193 535.375 429.561 534.612C429.806 534.103 430.039 533.588 430.26 533.066C432.027 528.89 433.004 524.299 433.004 519.48V507.183V503.825V109.303V105.881Z" fill="white" stroke="black" stroke-width="0.5" stroke-linejoin="round"/>
<path fill-rule="evenodd" clip-rule="evenodd" d="M293.415 60.895C293.422 62.3167 294.577 63.4672 296 63.4672C294.577 63.4672 293.422 62.3167 293.415 60.895Z" fill="white" stroke="black" stroke-width="0.5" stroke-linejoin="round"/>
<path fill-rule="evenodd" clip-rule="evenodd" d="M398.091 58.6159C401.706 58.6159 405.193 59.1653 408.472 60.1852C409.019 60.355 409.56 60.5381 410.095 60.7339C410.629 60.9296 411.158 61.138 411.68 61.3588C412.202 61.5796 412.718 61.8127 413.226 62.0578C413.735 62.3028 414.237 62.56 414.732 62.8286C415.226 63.0972 415.714 63.3776 416.194 63.669C416.674 63.9605 417.146 64.2633 417.61 64.5769C418.074 64.8905 418.531 65.215 418.979 65.55C419.203 65.7176 419.425 65.8876 419.645 66.0603C420.084 66.4058 420.515 66.7615 420.938 67.1273C421.782 67.8587 422.591 68.6299 423.362 69.4382C424.711 70.8524 425.942 72.3798 427.04 74.0046C427.354 74.4687 427.656 74.941 427.948 75.4207C428.24 75.9005 428.52 76.3878 428.789 76.8823C428.923 77.1297 429.054 77.3788 429.183 77.6296C429.568 78.3821 429.927 79.1505 430.259 79.9334C430.7 80.9775 431.093 82.0473 431.433 83.1402C431.603 83.6867 431.76 84.2389 431.903 84.7965C432.19 85.9118 432.423 87.0485 432.6 88.204C432.732 89.0706 432.833 89.9477 432.9 90.834C432.968 91.7204 433.002 92.6159 433.002 93.5195V105.881H436.49V92.3214C436.49 71.7093 419.777 55 399.16 55H387.536V58.6159H398.091Z" fill="white" fill-opacity="0.15" stroke="black" stroke-width="0.5" stroke-linejoin="round"/>
<path fill-rule="evenodd" clip-rule="evenodd" d="M194.944 93.5195C194.944 87.7967 196.322 82.3957 198.764 77.6296C199.406 76.3754 200.122 75.1651 200.907 74.0046C203.103 70.7551 205.831 67.8951 208.968 65.55C210.76 64.21 212.686 63.0381 214.721 62.0578C215.229 61.8127 215.745 61.5796 216.267 61.3588C216.528 61.2485 216.791 61.1411 217.055 61.037C218.112 60.6203 219.194 60.2536 220.299 59.94C220.575 59.8615 220.853 59.7864 221.131 59.7147C221.689 59.5713 222.252 59.4413 222.821 59.325C223.389 59.2089 223.962 59.1063 224.54 59.0181C226.273 58.7533 228.049 58.6159 229.857 58.6159H293.414H334.404H384.113V55H228.787C208.17 55 191.457 71.7093 191.457 92.3214V105.881H194.944V93.5195Z" fill="white" fill-opacity="0.15" stroke="black" stroke-width="0.5" stroke-linejoin="round"/>
<path fill-rule="evenodd" clip-rule="evenodd" d="M436.491 109.303H433.002V503.825H436.491V265.844V205.538V109.303Z" fill="white" fill-opacity="0.15" stroke="black" stroke-width="0.5" stroke-linejoin="round"/>
<path fill-rule="evenodd" clip-rule="evenodd" d="M194.944 109.239H191.457V156.544V175.547V192.74V230.487V240.7V278.448V503.891H194.944V109.239Z" fill="white" fill-opacity="0.15" stroke="black" stroke-width="0.5" stroke-linejoin="round"/>
<path fill-rule="evenodd" clip-rule="evenodd" d="M194.945 109.239V503.891V109.239Z" fill="white" stroke="black" stroke-width="0.5" stroke-linejoin="round"/>
<path fill-rule="evenodd" clip-rule="evenodd" d="M295.16 60.9467C295.16 60.9065 295.162 60.8669 295.166 60.8277C295.182 60.6712 295.228 60.524 295.3 60.392C295.336 60.3261 295.378 60.264 295.425 60.2066C295.473 60.1492 295.526 60.0963 295.583 60.0489C295.612 60.0251 295.642 60.0028 295.673 59.9818C295.858 59.8563 296.082 59.7832 296.323 59.7832H331.753C331.83 59.7832 331.905 59.7911 331.977 59.8053C332.513 59.9097 332.918 60.3808 332.918 60.9467C332.918 61.5125 332.513 61.9836 331.977 62.088C331.905 62.1022 331.83 62.1101 331.753 62.1101H296.323C296.002 62.1101 295.711 61.9798 295.5 61.7693C295.343 61.6115 295.23 61.4083 295.183 61.1812C295.168 61.1054 295.16 61.027 295.16 60.9467ZM293.415 60.8953C293.422 62.317 294.577 63.4674 296 63.4674H331.817C331.996 63.4674 332.17 63.4493 332.339 63.415C332.507 63.3805 332.669 63.3297 332.824 63.2643C332.901 63.2315 332.977 63.1952 333.05 63.1554C333.197 63.0758 333.335 62.9824 333.463 62.877C333.718 62.6663 333.933 62.4074 334.092 62.1143C334.291 61.7481 334.404 61.3283 334.404 60.882V58.616H293.414V60.882C293.414 60.8865 293.415 60.8908 293.415 60.8953Z" fill="white" fill-opacity="0.15" stroke="black" stroke-width="0.5" stroke-linejoin="round"/>
<path fill-rule="evenodd" clip-rule="evenodd" d="M295.16 60.9467C295.16 60.9065 295.162 60.8669 295.166 60.8277C295.182 60.6712 295.228 60.524 295.3 60.392C295.336 60.3261 295.378 60.264 295.425 60.2066C295.473 60.1492 295.526 60.0963 295.583 60.0489C295.612 60.0251 295.642 60.0028 295.673 59.9818C295.858 59.8563 296.082 59.7832 296.323 59.7832H331.753C331.83 59.7832 331.905 59.7911 331.977 59.8053C332.513 59.9097 332.918 60.3808 332.918 60.9467C332.918 61.5125 332.513 61.9836 331.977 62.088C331.905 62.1022 331.83 62.1101 331.753 62.1101H296.323C296.002 62.1101 295.711 61.9798 295.5 61.7693C295.343 61.6115 295.23 61.4083 295.183 61.1812C295.168 61.1054 295.16 61.027 295.16 60.9467ZM293.415 60.8953C293.422 62.317 294.577 63.4674 296 63.4674H331.817C331.996 63.4674 332.17 63.4493 332.339 63.415C332.507 63.3805 332.669 63.3297 332.824 63.2643C332.901 63.2315 332.977 63.1952 333.05 63.1554C333.197 63.0758 333.335 62.9824 333.463 62.877C333.718 62.6663 333.933 62.4074 334.092 62.1143C334.291 61.7481 334.404 61.3283 334.404 60.882V58.616H293.414V60.882C293.414 60.8865 293.415 60.8908 293.415 60.8953Z" fill="white" fill-opacity="0.15" stroke="black" stroke-width="0.5" stroke-linejoin="round"/>
<path fill-rule="evenodd" clip-rule="evenodd" d="M190.293 156.544C189.579 156.544 189 157.123 189 157.837V174.253C189 174.967 189.579 175.547 190.293 175.547H191.457V156.544H190.293Z" fill="white" stroke="black" stroke-width="0.5" stroke-linejoin="round"/>
<path fill-rule="evenodd" clip-rule="evenodd" d="M190.552 192.74C190.284 192.74 190.035 192.82 189.829 192.958C189.76 193.004 189.696 193.056 189.637 193.114C189.579 193.172 189.526 193.236 189.48 193.304C189.34 193.509 189.259 193.756 189.259 194.024V229.204C189.259 229.472 189.34 229.719 189.48 229.924C189.526 229.992 189.579 230.056 189.637 230.114C189.696 230.171 189.76 230.224 189.829 230.27C190.035 230.407 190.284 230.487 190.552 230.487H191.457V192.74H190.552Z" fill="white" stroke="black" stroke-width="0.5" stroke-linejoin="round"/>
<path fill-rule="evenodd" clip-rule="evenodd" d="M190.552 240.7C190.284 240.7 190.035 240.78 189.829 240.918C189.76 240.964 189.696 241.016 189.637 241.074C189.579 241.132 189.526 241.195 189.48 241.264C189.34 241.469 189.259 241.716 189.259 241.984V277.164C189.259 277.432 189.34 277.68 189.48 277.884C189.526 277.952 189.579 278.016 189.637 278.074C189.696 278.132 189.76 278.184 189.829 278.23C190.035 278.367 190.284 278.447 190.552 278.447H191.457V240.7H190.552Z" fill="white" stroke="black" stroke-width="0.5" stroke-linejoin="round"/>
<path fill-rule="evenodd" clip-rule="evenodd" d="M433.002 109.303H436.491V105.881H433.002V109.303Z" fill="white" stroke="black" stroke-width="0.5" stroke-linejoin="round"/>
<path d="M436.944 205.538H436.491V265.844H436.944C437.658 265.844 438.237 265.265 438.237 264.551V206.83C438.237 206.116 437.658 205.538 436.944 205.538Z" fill="white" fill-opacity="0.3"/>
<path d="M436.944 205.538H436.491V265.844H436.944C437.658 265.844 438.237 265.265 438.237 264.551V206.83C438.237 206.116 437.658 205.538 436.944 205.538Z" stroke="black" stroke-width="0.5" stroke-linejoin="round"/>
<path fill-rule="evenodd" clip-rule="evenodd" d="M384.113 58.6159H387.536V55H384.113V58.6159Z" fill="white" stroke="black" stroke-width="0.5" stroke-linejoin="round"/>
<path fill-rule="evenodd" clip-rule="evenodd" d="M433.003 519.48C433.003 524.299 432.026 528.89 430.259 533.066C430.038 533.588 429.805 534.104 429.56 534.612C429.192 535.375 428.797 536.123 428.377 536.854C427.677 538.072 426.905 539.244 426.067 540.364C425.899 540.588 425.729 540.81 425.556 541.029C419.165 549.161 409.238 554.384 398.091 554.384H244.028V558H399.16C419.777 558 436.491 541.29 436.491 520.678V507.184H433.003V519.48Z" fill="white" fill-opacity="0.15" stroke="black" stroke-width="0.5" stroke-linejoin="round"/>
<path fill-rule="evenodd" clip-rule="evenodd" d="M433.002 507.183H436.491V503.825H433.002V507.183Z" fill="white" stroke="black" stroke-width="0.5" stroke-linejoin="round"/>
<path fill-rule="evenodd" clip-rule="evenodd" d="M240.864 554.384V557.999H244.029V554.384H240.864Z" fill="white" stroke="black" stroke-width="0.5" stroke-linejoin="round"/>
<path fill-rule="evenodd" clip-rule="evenodd" d="M240.864 554.384H244.029H240.864Z" fill="white" stroke="black" stroke-width="0.5" stroke-linejoin="round"/>
<path fill-rule="evenodd" clip-rule="evenodd" d="M229.857 554.384C210.575 554.384 194.945 538.757 194.945 519.48V507.247H191.457V520.678C191.457 541.29 208.17 558 228.787 558H240.864V554.384H229.857Z" fill="white" fill-opacity="0.15" stroke="black" stroke-width="0.5" stroke-linejoin="round"/>
<path fill-rule="evenodd" clip-rule="evenodd" d="M229.858 554.384C210.576 554.384 194.945 538.757 194.945 519.48V507.247V519.48C194.945 538.757 210.576 554.384 229.858 554.384H240.865H229.858Z" fill="white"/>
<path d="M229.858 554.384C210.576 554.384 194.945 538.757 194.945 519.48V507.247V519.48C194.945 538.757 210.576 554.384 229.858 554.384ZM229.858 554.384H240.865H229.858Z" stroke="black" stroke-width="0.5" stroke-linejoin="round"/>
<path fill-rule="evenodd" clip-rule="evenodd" d="M191.457 507.247H194.944V503.891H191.457V507.247Z" fill="white" stroke="black" stroke-width="0.5" stroke-linejoin="round"/>
<path fill-rule="evenodd" clip-rule="evenodd" d="M194.945 503.891V507.247V503.891Z" fill="white" stroke="black" stroke-width="0.5" stroke-linejoin="round"/>
<path fill-rule="evenodd" clip-rule="evenodd" d="M191.457 109.238H194.944V105.881H191.457V109.238Z" fill="white" stroke="black" stroke-width="0.5" stroke-linejoin="round"/>
<path d="M433.002 109.303H436.491V105.881H433.002V109.303Z" fill="white" fill-opacity="0.3"/>
<path d="M433.002 109.303H436.491V105.881H433.002V109.303Z" stroke="black" stroke-width="0.5" stroke-linejoin="round"/>
<path d="M384.113 58.6159H387.536V55H384.113V58.6159Z" fill="white" fill-opacity="0.3"/>
<path d="M384.113 58.6159H387.536V55H384.113V58.6159Z" stroke="black" stroke-width="0.5" stroke-linejoin="round"/>
<path d="M433.002 507.183H436.491V503.825H433.002V507.183Z" fill="white" fill-opacity="0.3"/>
<path d="M433.002 507.183H436.491V503.825H433.002V507.183Z" stroke="black" stroke-width="0.5" stroke-linejoin="round"/>
<path d="M240.864 554.384V557.999H244.029V554.384H240.864Z" fill="white" fill-opacity="0.3"/>
<path d="M240.864 554.384V557.999H244.029V554.384H240.864Z" stroke="black" stroke-width="0.5" stroke-linejoin="round"/>
<path d="M191.457 507.247H194.944V503.891H191.457V507.247Z" fill="white" fill-opacity="0.3"/>
<path d="M191.457 507.247H194.944V503.891H191.457V507.247Z" stroke="black" stroke-width="0.5" stroke-linejoin="round"/>
<path d="M191.457 109.238H194.944V105.881H191.457V109.238Z" fill="white" fill-opacity="0.3"/>
<path d="M191.457 109.238H194.944V105.881H191.457V109.238Z" stroke="black" stroke-width="0.5" stroke-linejoin="round"/>
<path fill-rule="evenodd" clip-rule="evenodd" d="M277.111 77.1791C278.121 78.0971 279.464 78.6567 280.937 78.6567C282.409 78.6567 283.752 78.0971 284.762 77.1791C285.503 76.5058 286.066 75.6398 286.37 74.6603C286.536 74.1259 286.626 73.5578 286.626 72.9688C286.626 72.7725 286.616 72.5784 286.597 72.3873C286.529 71.7179 286.345 71.083 286.065 70.5027C285.905 70.1712 285.714 69.8576 285.496 69.5655C285.332 69.3465 285.153 69.1397 284.96 68.9468C284.831 68.8181 284.696 68.6956 284.556 68.5796C283.572 67.7682 282.311 67.2808 280.937 67.2808C279.562 67.2808 278.301 67.7682 277.317 68.5796C277.177 68.6956 277.042 68.8181 276.913 68.9468C276.72 69.1397 276.541 69.3465 276.377 69.5655C276.159 69.8576 275.968 70.1712 275.808 70.5027C275.529 71.083 275.345 71.7179 275.276 72.3873C275.257 72.5784 275.247 72.7725 275.247 72.9688C275.247 73.5578 275.337 74.1259 275.503 74.6603C275.808 75.6398 276.37 76.5058 277.111 77.1791Z" fill="white" fill-opacity="0.15" stroke="black" stroke-width="0.5" stroke-linejoin="round"/>
<path fill-rule="evenodd" clip-rule="evenodd" d="M295.501 61.7696C295.712 61.9802 296.003 62.1103 296.324 62.1103H331.754C332.076 62.1103 332.366 61.9802 332.577 61.7696C332.734 61.6117 332.847 61.4086 332.893 61.1814C332.909 61.1056 332.917 61.0272 332.917 60.9469C332.917 60.9067 332.915 60.8671 332.911 60.8279C332.895 60.6715 332.848 60.5242 332.777 60.3923C332.741 60.3263 332.699 60.2642 332.652 60.2068C332.604 60.1494 332.551 60.0965 332.494 60.0491C332.465 60.0253 332.435 60.003 332.404 59.9822C332.219 59.8567 331.995 59.7834 331.754 59.7834H296.324C296.083 59.7834 295.859 59.8567 295.674 59.9822C295.643 60.003 295.613 60.0253 295.584 60.0491C295.527 60.0965 295.474 60.1494 295.426 60.2068C295.379 60.2642 295.337 60.3263 295.301 60.3923C295.229 60.5242 295.182 60.6715 295.167 60.8279C295.163 60.8671 295.161 60.9067 295.161 60.9469C295.161 61.0272 295.169 61.1056 295.184 61.1814C295.231 61.4086 295.343 61.6117 295.501 61.7696Z" fill="white" fill-opacity="0.15" stroke="black" stroke-width="0.5" stroke-linejoin="round"/>
<path fill-rule="evenodd" clip-rule="evenodd" d="M295.501 61.7696C295.712 61.9802 296.003 62.1103 296.324 62.1103H331.754C332.076 62.1103 332.366 61.9802 332.577 61.7696C332.734 61.6117 332.847 61.4086 332.893 61.1814C332.909 61.1056 332.917 61.0272 332.917 60.9469C332.917 60.9067 332.915 60.8671 332.911 60.8279C332.895 60.6715 332.848 60.5242 332.777 60.3923C332.741 60.3263 332.699 60.2642 332.652 60.2068C332.604 60.1494 332.551 60.0965 332.494 60.0491C332.465 60.0253 332.435 60.003 332.404 59.9822C332.219 59.8567 331.995 59.7834 331.754 59.7834H296.324C296.083 59.7834 295.859 59.8567 295.674 59.9822C295.643 60.003 295.613 60.0253 295.584 60.0491C295.527 60.0965 295.474 60.1494 295.426 60.2068C295.379 60.2642 295.337 60.3263 295.301 60.3923C295.229 60.5242 295.182 60.6715 295.167 60.8279C295.163 60.8671 295.161 60.9067 295.161 60.9469C295.161 61.0272 295.169 61.1056 295.184 61.1814C295.231 61.4086 295.343 61.6117 295.501 61.7696Z" fill="white" fill-opacity="0.15" stroke="black" stroke-width="0.5" stroke-linejoin="round"/>
<path fill-rule="evenodd" clip-rule="evenodd" d="M295.501 61.7696C295.712 61.9802 296.003 62.1103 296.324 62.1103H331.754C332.076 62.1103 332.366 61.9802 332.577 61.7696C332.734 61.6117 332.847 61.4086 332.893 61.1814C332.909 61.1056 332.917 61.0272 332.917 60.9469C332.917 60.9067 332.915 60.8671 332.911 60.8279C332.895 60.6715 332.848 60.5242 332.777 60.3923C332.741 60.3263 332.699 60.2642 332.652 60.2068C332.604 60.1494 332.551 60.0965 332.494 60.0491C332.465 60.0253 332.435 60.003 332.404 59.9822C332.219 59.8567 331.995 59.7834 331.754 59.7834H296.324C296.083 59.7834 295.859 59.8567 295.674 59.9822C295.643 60.003 295.613 60.0253 295.584 60.0491C295.527 60.0965 295.474 60.1494 295.426 60.2068C295.379 60.2642 295.337 60.3263 295.301 60.3923C295.229 60.5242 295.182 60.6715 295.167 60.8279C295.163 60.8671 295.161 60.9067 295.161 60.9469C295.161 61.0272 295.169 61.1056 295.184 61.1814C295.231 61.4086 295.343 61.6117 295.501 61.7696Z" fill="white" fill-opacity="0.15" stroke="black" stroke-width="0.5" stroke-linejoin="round"/>
<mask id="mask0_430_2847" style="mask-type:alpha" maskUnits="userSpaceOnUse" x="203" y="66" width="222" height="481">
<path d="M421.883 81.4234C421.783 81.2284 421.68 81.0346 421.576 80.8422C421.367 80.4576 421.149 80.0785 420.922 79.7054C420.809 79.5188 420.693 79.3338 420.575 79.1502C420.104 78.4157 419.599 77.7057 419.062 77.0219C418.927 76.851 418.791 76.6817 418.652 76.5141C418.237 76.0114 417.805 75.5238 417.355 75.0522C416.756 74.4237 416.126 73.8238 415.469 73.2549C415.141 72.9705 414.806 72.6938 414.464 72.4252C414.122 72.1564 413.773 71.8959 413.418 71.6435C413.063 71.3912 412.702 71.1473 412.335 70.9118C411.967 70.6764 411.594 70.4497 411.215 70.2317C411.026 70.1228 410.835 70.016 410.642 69.9116C409.68 69.3892 408.683 68.9231 407.656 68.518C406.834 68.1939 405.992 67.9088 405.133 67.6648C402.77 66.994 400.277 66.635 397.699 66.635H363.174C362.783 66.635 362.409 66.7042 362.062 66.8311C361.963 66.8673 361.867 66.9083 361.772 66.9537C361.631 67.0217 361.496 67.0998 361.367 67.187C361.238 67.2741 361.115 67.3703 361 67.4745C360.924 67.5441 360.851 67.6172 360.781 67.6938C360.712 67.7703 360.646 67.8502 360.584 67.9331C360.522 68.0161 360.464 68.1021 360.409 68.191C360.113 68.6797 359.942 69.2533 359.942 69.8669V72.9695C359.942 74.9171 359.497 76.7612 358.705 78.4057C358.617 78.5885 358.524 78.7687 358.428 78.9465C358.186 79.3906 357.919 79.8185 357.627 80.2283C357.511 80.3921 357.39 80.5531 357.266 80.7111C357.142 80.8689 357.014 81.0238 356.883 81.1755C356.752 81.3271 356.617 81.4756 356.478 81.6209C356.34 81.766 356.198 81.9079 356.053 82.0462C355.69 82.3922 355.306 82.7167 354.903 83.0177C354.742 83.1379 354.578 83.2545 354.412 83.3672C354.078 83.5926 353.733 83.8023 353.378 83.9953C353.2 84.0919 353.02 84.1843 352.837 84.2722C351.192 85.0646 349.347 85.5088 347.399 85.5088H280.548C278.6 85.5088 276.755 85.0646 275.11 84.2722C274.927 84.1843 274.747 84.0919 274.569 83.9953C274.214 83.8023 273.869 83.5926 273.535 83.3672C273.368 83.2545 273.204 83.1379 273.043 83.0177C272.641 82.7167 272.257 82.3922 271.894 82.0462C271.749 81.9079 271.607 81.766 271.469 81.6209C271.33 81.4756 271.195 81.3271 271.064 81.1755C270.932 81.0238 270.805 80.8689 270.68 80.7111C270.556 80.5531 270.436 80.3921 270.319 80.2283C270.028 79.8185 269.76 79.3906 269.519 78.9465C269.423 78.7687 269.33 78.5885 269.242 78.4057C268.449 76.7612 268.005 74.9171 268.005 72.9695V69.8669C268.005 69.2533 267.834 68.6797 267.537 68.191C267.483 68.1021 267.425 68.0161 267.363 67.9331C267.301 67.8502 267.235 67.7703 267.165 67.6938C267.096 67.6172 267.023 67.5441 266.946 67.4745C266.831 67.3703 266.709 67.2741 266.58 67.187C266.451 67.0998 266.315 67.0217 266.174 66.9537C266.08 66.9083 265.983 66.8673 265.884 66.8311C265.538 66.7042 265.163 66.635 264.773 66.635H230.377C227.8 66.635 225.306 66.994 222.944 67.6648C222.084 67.9088 221.243 68.1939 220.421 68.518C219.393 68.9231 218.396 69.3892 217.434 69.9116C217.242 70.016 217.051 70.1228 216.861 70.2317C216.482 70.4497 216.109 70.6764 215.742 70.9118C215.374 71.1473 215.013 71.3912 214.658 71.6435C214.303 71.8959 213.955 72.1564 213.613 72.4252C213.271 72.6938 212.935 72.9705 212.607 73.2549C211.95 73.8238 211.321 74.4237 210.721 75.0522C210.272 75.5238 209.839 76.0114 209.424 76.5141C209.285 76.6817 209.149 76.851 209.015 77.0219C208.477 77.7057 207.972 78.4157 207.501 79.1502C207.383 79.3338 207.268 79.5188 207.154 79.7054C206.928 80.0785 206.709 80.4576 206.501 80.8422C206.396 81.0346 206.294 81.2284 206.194 81.4234C205.894 82.0087 205.615 82.6064 205.357 83.2153C203.983 86.4632 203.223 90.034 203.223 93.7823V519.477C203.223 521.351 203.413 523.181 203.775 524.948C203.91 525.611 204.07 526.265 204.253 526.909C204.375 527.338 204.508 527.763 204.65 528.184C204.792 528.604 204.945 529.02 205.107 529.431C205.269 529.842 205.441 530.248 205.622 530.649C205.803 531.05 205.994 531.445 206.194 531.836C206.294 532.031 206.396 532.224 206.501 532.417C206.709 532.801 206.928 533.18 207.154 533.554C207.495 534.113 207.854 534.66 208.233 535.192C213.154 542.111 221.239 546.624 230.377 546.624H397.699C406.838 546.624 414.922 542.111 419.843 535.192C420.222 534.66 420.582 534.113 420.922 533.554C421.149 533.18 421.367 532.801 421.576 532.417C421.68 532.224 421.783 532.031 421.883 531.836C422.082 531.445 422.273 531.05 422.455 530.649C422.636 530.248 422.808 529.842 422.97 529.431C423.132 529.02 423.284 528.604 423.427 528.184C423.569 527.763 423.701 527.338 423.823 526.909C424.006 526.265 424.166 525.611 424.302 524.948C424.663 523.181 424.853 521.351 424.853 519.477V93.7823C424.853 90.034 424.093 86.4632 422.719 83.2153C422.462 82.6064 422.182 82.0087 421.883 81.4234Z" fill="black"/>
</mask>
<g mask="url(#mask0_430_2847)">
<path d="M421.883 81.4234C421.783 81.2284 421.68 81.0346 421.576 80.8422C421.367 80.4576 421.149 80.0785 420.922 79.7054C420.809 79.5188 420.693 79.3338 420.575 79.1502C420.104 78.4157 419.599 77.7057 419.062 77.0219C418.927 76.851 418.791 76.6817 418.652 76.5141C418.237 76.0114 417.805 75.5238 417.355 75.0522C416.756 74.4237 416.126 73.8238 415.469 73.2549C415.141 72.9705 414.806 72.6938 414.464 72.4252C414.122 72.1564 413.773 71.8959 413.418 71.6435C413.063 71.3912 412.702 71.1473 412.335 70.9118C411.967 70.6764 411.594 70.4497 411.215 70.2317C411.026 70.1228 410.835 70.016 410.642 69.9116C409.68 69.3892 408.683 68.9231 407.656 68.518C406.834 68.1939 405.992 67.9088 405.133 67.6648C402.77 66.994 400.277 66.635 397.699 66.635H363.174C362.783 66.635 362.409 66.7042 362.062 66.8311C361.963 66.8673 361.867 66.9083 361.772 66.9537C361.631 67.0217 361.496 67.0998 361.367 67.187C361.238 67.2741 361.115 67.3703 361 67.4745C360.924 67.5441 360.851 67.6172 360.781 67.6938C360.712 67.7703 360.646 67.8502 360.584 67.9331C360.522 68.0161 360.464 68.1021 360.409 68.191C360.113 68.6797 359.942 69.2533 359.942 69.8669V72.9695C359.942 74.9171 359.497 76.7612 358.705 78.4057C358.617 78.5885 358.524 78.7687 358.428 78.9465C358.186 79.3906 357.919 79.8185 357.627 80.2283C357.511 80.3921 357.39 80.5531 357.266 80.7111C357.142 80.8689 357.014 81.0238 356.883 81.1755C356.752 81.3271 356.617 81.4756 356.478 81.6209C356.34 81.766 356.198 81.9079 356.053 82.0462C355.69 82.3922 355.306 82.7167 354.903 83.0177C354.742 83.1379 354.578 83.2545 354.412 83.3672C354.078 83.5926 353.733 83.8023 353.378 83.9953C353.2 84.0919 353.02 84.1843 352.837 84.2722C351.192 85.0646 349.347 85.5088 347.399 85.5088H280.548C278.6 85.5088 276.755 85.0646 275.11 84.2722C274.927 84.1843 274.747 84.0919 274.569 83.9953C274.214 83.8023 273.869 83.5926 273.535 83.3672C273.368 83.2545 273.204 83.1379 273.043 83.0177C272.641 82.7167 272.257 82.3922 271.894 82.0462C271.749 81.9079 271.607 81.766 271.469 81.6209C271.33 81.4756 271.195 81.3271 271.064 81.1755C270.932 81.0238 270.805 80.8689 270.68 80.7111C270.556 80.5531 270.436 80.3921 270.319 80.2283C270.028 79.8185 269.76 79.3906 269.519 78.9465C269.423 78.7687 269.33 78.5885 269.242 78.4057C268.449 76.7612 268.005 74.9171 268.005 72.9695V69.8669C268.005 69.2533 267.834 68.6797 267.537 68.191C267.483 68.1021 267.425 68.0161 267.363 67.9331C267.301 67.8502 267.235 67.7703 267.165 67.6938C267.096 67.6172 267.023 67.5441 266.946 67.4745C266.831 67.3703 266.709 67.2741 266.58 67.187C266.451 67.0998 266.315 67.0217 266.174 66.9537C266.08 66.9083 265.983 66.8673 265.884 66.8311C265.538 66.7042 265.163 66.635 264.773 66.635H230.377C227.8 66.635 225.306 66.994 222.944 67.6648C222.084 67.9088 221.243 68.1939 220.421 68.518C219.393 68.9231 218.396 69.3892 217.434 69.9116C217.242 70.016 217.051 70.1228 216.861 70.2317C216.482 70.4497 216.109 70.6764 215.742 70.9118C215.374 71.1473 215.013 71.3912 214.658 71.6435C214.303 71.8959 213.955 72.1564 213.613 72.4252C213.271 72.6938 212.935 72.9705 212.607 73.2549C211.95 73.8238 211.321 74.4237 210.721 75.0522C210.272 75.5238 209.839 76.0114 209.424 76.5141C209.285 76.6817 209.149 76.851 209.015 77.0219C208.477 77.7057 207.972 78.4157 207.501 79.1502C207.383 79.3338 207.268 79.5188 207.154 79.7054C206.928 80.0785 206.709 80.4576 206.501 80.8422C206.396 81.0346 206.294 81.2284 206.194 81.4234C205.894 82.0087 205.615 82.6064 205.357 83.2153C203.983 86.4632 203.223 90.034 203.223 93.7823V519.477C203.223 521.351 203.413 523.181 203.775 524.948C203.91 525.611 204.07 526.265 204.253 526.909C204.375 527.338 204.508 527.763 204.65 528.184C204.792 528.604 204.945 529.02 205.107 529.431C205.269 529.842 205.441 530.248 205.622 530.649C205.803 531.05 205.994 531.445 206.194 531.836C206.294 532.031 206.396 532.224 206.501 532.417C206.709 532.801 206.928 533.18 207.154 533.554C207.495 534.113 207.854 534.66 208.233 535.192C213.154 542.111 221.239 546.624 230.377 546.624H397.699C406.838 546.624 414.922 542.111 419.843 535.192C420.222 534.66 420.582 534.113 420.922 533.554C421.149 533.18 421.367 532.801 421.576 532.417C421.68 532.224 421.783 532.031 421.883 531.836C422.082 531.445 422.273 531.05 422.455 530.649C422.636 530.248 422.808 529.842 422.97 529.431C423.132 529.02 423.284 528.604 423.427 528.184C423.569 527.763 423.701 527.338 423.823 526.909C424.006 526.265 424.166 525.611 424.302 524.948C424.663 523.181 424.853 521.351 424.853 519.477V93.7823C424.853 90.034 424.093 86.4632 422.719 83.2153C422.462 82.6064 422.182 82.0087 421.883 81.4234Z" fill="white" stroke="black" stroke-width="0.5" stroke-linejoin="round"/>
</g>
<path fill-rule="evenodd" clip-rule="evenodd" d="M421.883 81.4234C421.783 81.2284 421.68 81.0346 421.576 80.8422C421.367 80.4576 421.149 80.0785 420.922 79.7053C420.809 79.5188 420.693 79.3338 420.575 79.1502C420.104 78.4157 419.599 77.7057 419.062 77.0219C418.927 76.851 418.791 76.6817 418.652 76.5141C418.237 76.0114 417.805 75.5238 417.355 75.0522C416.756 74.4237 416.126 73.8238 415.469 73.2549C415.141 72.9705 414.806 72.6938 414.464 72.4252C414.122 72.1564 413.773 71.8958 413.418 71.6435C413.063 71.3911 412.702 71.1473 412.335 70.9118C411.967 70.6764 411.594 70.4497 411.215 70.2317C411.026 70.1228 410.835 70.016 410.642 69.9116C409.68 69.3892 408.683 68.9231 407.656 68.518C406.834 68.1939 405.992 67.9088 405.133 67.6648C402.77 66.994 400.277 66.635 397.699 66.635H363.174C362.783 66.635 362.409 66.7042 362.062 66.8311C361.963 66.8673 361.867 66.9083 361.772 66.9537C361.631 67.0217 361.496 67.0998 361.367 67.1869C361.238 67.2741 361.115 67.3703 361 67.4745C360.924 67.5441 360.851 67.6172 360.781 67.6938C360.712 67.7703 360.646 67.8502 360.584 67.9331C360.522 68.0161 360.464 68.1021 360.409 68.191C360.113 68.6797 359.942 69.2533 359.942 69.8669V72.9695C359.942 74.9171 359.497 76.7612 358.705 78.4057C358.617 78.5885 358.524 78.7687 358.428 78.9465C358.186 79.3906 357.919 79.8185 357.627 80.2283C357.511 80.3921 357.39 80.5531 357.266 80.7111C357.142 80.8689 357.014 81.0238 356.883 81.1755C356.752 81.3271 356.617 81.4756 356.478 81.6209C356.34 81.766 356.198 81.9079 356.053 82.0462C355.69 82.3922 355.306 82.7167 354.903 83.0177C354.742 83.1379 354.578 83.2545 354.412 83.3672C354.078 83.5926 353.733 83.8023 353.378 83.9953C353.2 84.0919 353.02 84.1843 352.837 84.2722C351.192 85.0646 349.347 85.5088 347.399 85.5088H280.548C278.6 85.5088 276.755 85.0646 275.11 84.2722C274.927 84.1843 274.747 84.0919 274.569 83.9953C274.214 83.8023 273.869 83.5926 273.535 83.3672C273.368 83.2545 273.204 83.1379 273.043 83.0177C272.641 82.7167 272.257 82.3922 271.894 82.0462C271.749 81.9079 271.607 81.766 271.469 81.6209C271.33 81.4756 271.195 81.3271 271.064 81.1755C270.932 81.0238 270.805 80.8689 270.68 80.7111C270.556 80.5531 270.436 80.3921 270.319 80.2283C270.028 79.8185 269.76 79.3906 269.519 78.9465C269.423 78.7687 269.33 78.5885 269.242 78.4057C268.449 76.7612 268.005 74.9171 268.005 72.9695V69.8669C268.005 69.2533 267.834 68.6797 267.537 68.191C267.483 68.1021 267.425 68.0161 267.363 67.9331C267.301 67.8502 267.235 67.7703 267.165 67.6938C267.096 67.6172 267.023 67.5441 266.946 67.4745C266.831 67.3703 266.709 67.2741 266.58 67.1869C266.451 67.0998 266.315 67.0217 266.174 66.9537C266.08 66.9083 265.983 66.8673 265.884 66.8311C265.538 66.7042 265.163 66.635 264.773 66.635H230.377C227.8 66.635 225.306 66.994 222.944 67.6648C222.084 67.9088 221.243 68.1939 220.421 68.518C219.393 68.9231 218.396 69.3892 217.434 69.9116C217.242 70.016 217.051 70.1228 216.861 70.2317C216.482 70.4497 216.109 70.6764 215.742 70.9118C215.374 71.1473 215.013 71.3911 214.658 71.6435C214.303 71.8958 213.955 72.1564 213.613 72.4252C213.271 72.6938 212.935 72.9705 212.607 73.2549C211.95 73.8238 211.321 74.4237 210.721 75.0522C210.272 75.5238 209.839 76.0114 209.424 76.5141C209.285 76.6817 209.149 76.851 209.015 77.0219C208.477 77.7057 207.972 78.4157 207.501 79.1502C207.383 79.3338 207.268 79.5188 207.154 79.7053C206.928 80.0785 206.709 80.4576 206.501 80.8422C206.396 81.0346 206.294 81.2284 206.194 81.4234C205.894 82.0087 205.615 82.6064 205.357 83.2153C203.983 86.4632 203.223 90.034 203.223 93.7823V519.477C203.223 521.351 203.413 523.181 203.775 524.948C203.91 525.611 204.07 526.265 204.253 526.909C204.375 527.338 204.508 527.763 204.65 528.184C204.792 528.604 204.945 529.02 205.107 529.431C205.269 529.842 205.441 530.248 205.622 530.649C205.803 531.05 205.994 531.445 206.194 531.836C206.294 532.031 206.396 532.224 206.501 532.417C206.709 532.801 206.928 533.18 207.154 533.554C207.495 534.113 207.854 534.66 208.233 535.192C213.154 542.111 221.239 546.624 230.377 546.624H397.699C406.838 546.624 414.922 542.111 419.843 535.192C420.222 534.66 420.582 534.113 420.922 533.554C421.149 533.18 421.367 532.801 421.576 532.417C421.68 532.224 421.783 532.031 421.883 531.836C422.082 531.445 422.273 531.05 422.455 530.649C422.636 530.248 422.808 529.842 422.97 529.431C423.132 529.02 423.284 528.604 423.427 528.184C423.569 527.763 423.701 527.338 423.823 526.909C424.006 526.265 424.166 525.611 424.302 524.948C424.663 523.181 424.853 521.351 424.853 519.477V93.7823C424.853 90.034 424.093 86.4632 422.719 83.2153C422.462 82.6064 422.182 82.0087 421.883 81.4234Z" stroke="black" stroke-width="0.5" stroke-linejoin="round"/>
</svg>
