<svg width="628" height="664" viewBox="0 0 628 664" fill="none" xmlns="http://www.w3.org/2000/svg">
<rect width="628" height="664" fill="#F9F9F9"/>
<mask id="mask0_66_23210" style="mask-type:alpha" maskUnits="userSpaceOnUse" x="0" y="0" width="628" height="664">
<rect width="628" height="664" fill="#33885B"/>
</mask>
<g mask="url(#mask0_66_23210)">
<path fill-rule="evenodd" clip-rule="evenodd" d="M498.114 166.967C521.031 153.723 549.263 153.675 572.223 166.839L584.289 173.756L583.725 173.942L584.289 173.756L732.653 258.816C742.012 264.181 747.783 274.143 747.783 284.929V287.088L747.995 298.738C748.199 309.922 742.311 320.334 732.624 325.927L720.714 332.804L717.466 334.679L342.189 551.349L338.724 553.35L329.215 558.839C304.499 573.11 274.031 573.032 249.389 558.636L243.118 554.972L239.978 553.137L106.584 475.206L103.444 473.372L90.1265 465.591C82.6166 461.204 78 453.159 78 444.463V425.383C78 415.716 83.1549 406.784 91.5243 401.946L106.693 393.18L109.69 391.448L109.984 391.277L485.296 174.376L485.296 174.376L488.296 172.642L498.114 166.967ZM720.689 292.536L720.173 292.826L322.842 522.631L720.173 292.826L720.689 292.536ZM623.821 381.788C623.709 381.862 623.596 381.934 623.48 382.002L574.902 410.365C574.881 410.378 574.86 410.39 574.838 410.402L574.902 410.365L623.48 382.002C623.567 381.951 623.653 381.898 623.737 381.843L623.821 381.788ZM498.151 169.551L490.414 174.024L490.077 174.219L489.805 174.376L487.419 175.756C487.419 175.756 487.419 175.756 487.419 175.756L487.418 175.756L488.927 174.884L487.418 175.755C487.377 175.604 487.313 175.462 487.23 175.333L487.204 175.295C487.3 175.433 487.373 175.589 487.418 175.756L111.855 392.868L111.855 392.868L109.455 394.255L111.855 392.868L487.419 175.756L490.061 174.228L498.151 169.551ZM264.883 526.938C264.556 526.758 264.23 526.575 263.905 526.387L105.177 434.664C102.427 432.997 100.175 431.195 98.45 429.305L98.1952 429.021C99.9505 431.014 102.289 432.913 105.177 434.664L263.905 526.387C264.392 526.668 264.882 526.941 265.375 527.205L264.883 526.938Z" fill="black"/>
<path fill-rule="evenodd" clip-rule="evenodd" d="M316.322 526.402C300.102 535.764 280.119 535.759 263.905 526.387L105.176 434.664C91.4256 426.327 90.1263 414.633 104.96 405.322L509.502 171.37C525.758 161.977 545.795 161.998 562.032 171.424L594.791 190.452C595.722 190.993 595.809 192.304 594.956 192.962L589.094 197.494C585.309 200.418 585.709 206.249 589.858 208.628L654.526 245.715C655.666 246.369 656.847 246.924 658.055 247.381C658.538 247.563 659.026 247.73 659.517 247.881C661.729 248.56 664.016 248.918 666.308 248.955C666.562 248.959 666.817 248.959 667.072 248.955C670.892 248.897 674.705 247.945 678.188 246.093L681.469 244.348C681.841 244.151 682.227 243.992 682.621 243.871C682.753 243.831 682.885 243.795 683.019 243.763C683.552 243.637 684.097 243.579 684.64 243.589C685.048 243.597 685.455 243.643 685.856 243.727C686.123 243.783 686.388 243.856 686.647 243.947C687.037 244.082 687.417 244.255 687.781 244.467L722.013 264.35C731.803 270.034 737.605 283.19 720.172 292.826L316.322 526.402ZM603.089 197.764C607.228 197.745 610.593 199.554 610.604 201.806C610.614 204.058 607.269 205.899 603.128 205.919C598.988 205.939 595.623 204.13 595.612 201.878C595.601 199.626 598.949 197.785 603.089 197.764ZM717.899 304.9L719.034 304.246L720.17 303.593C724.485 301.186 728.14 298.807 731.17 296.458C731.527 296.181 731.875 295.905 732.214 295.63C732.384 295.492 732.551 295.354 732.717 295.217C733.047 294.942 733.37 294.667 733.683 294.392C734.467 293.706 735.198 293.023 735.877 292.342C736.284 291.933 736.672 291.526 737.042 291.119C737.165 290.983 737.286 290.848 737.406 290.712C737.644 290.441 737.874 290.171 738.095 289.901C738.206 289.766 738.315 289.631 738.422 289.496C738.849 288.957 739.243 288.419 739.605 287.883C739.786 287.615 739.959 287.347 740.124 287.08C740.289 286.813 740.446 286.546 740.596 286.279C740.893 285.746 741.16 285.215 741.395 284.685C743.156 280.711 743.152 276.825 741.572 273.023C741.519 272.896 741.465 272.769 741.409 272.643C740.96 271.63 740.398 270.624 739.729 269.624C739.478 269.249 739.212 268.875 738.931 268.501C738.837 268.377 738.742 268.252 738.645 268.128C738.451 267.879 738.25 267.631 738.042 267.383C737.731 267.011 737.406 266.641 737.065 266.27C736.724 265.9 736.369 265.531 736 265.163C735.014 264.18 733.925 263.203 732.738 262.233C732.441 261.99 732.138 261.748 731.828 261.506C731.364 261.143 730.886 260.781 730.395 260.419C727.446 258.251 724.007 256.113 720.116 254.003L666.765 223.48L664.925 224.761C663.37 225.817 661.349 225.895 659.717 224.961L626.21 205.792C625.067 205.138 625.056 203.49 626.191 202.822L628.376 201.517L582.232 175.118L579.139 173.349V173.349V173.349L572.21 169.384C549.253 156.251 521.046 156.315 498.15 169.551L490.06 174.228L487.418 175.756L111.855 392.868L109.041 394.494L108.858 394.601L96.1032 401.974C77.9996 412.36 79.8403 428.817 96.0315 438.679L106.305 444.671L106.306 444.671L109.507 446.54L242.839 524.315L246.041 526.184L254.792 531.288C276.101 543.72 302.43 543.8 323.816 531.504L335.367 524.863L338.724 522.931L714.759 306.705L717.899 304.9Z" fill="black"/>
<path fill-rule="evenodd" clip-rule="evenodd" d="M632.83 205.062C632.913 205.108 633.329 205.347 634.006 205.736C634.2 205.847 634.415 205.97 634.649 206.105C635.587 206.644 636.838 207.363 638.293 208.199C638.657 208.409 639.034 208.625 639.422 208.848C640.197 209.294 641.017 209.765 641.868 210.254C642.293 210.499 642.726 210.748 643.165 211C643.384 211.126 643.605 211.253 643.827 211.381C644.272 211.637 644.721 211.895 645.174 212.155C645.401 212.286 645.628 212.416 645.856 212.547C646.312 212.81 646.77 213.073 647.229 213.337C647.459 213.469 647.689 213.602 647.919 213.734C648.608 214.13 649.298 214.527 649.982 214.92C650.438 215.182 650.891 215.443 651.34 215.701C651.565 215.83 651.788 215.959 652.011 216.086C652.455 216.342 652.894 216.595 653.327 216.843C653.543 216.968 653.758 217.091 653.97 217.213C654.395 217.458 654.813 217.698 655.221 217.932C657.466 219.223 659.428 220.351 660.822 221.152C661.076 221.298 661.31 221.433 661.525 221.556C662.382 222.048 662.912 222.353 663.006 222.406C663.17 222.491 663.354 222.602 663.527 222.731C663.7 222.859 663.862 223.003 663.981 223.156C664.05 223.243 664.105 223.333 664.14 223.424C664.264 223.741 664.15 224.069 663.552 224.335C663.231 224.477 662.929 224.563 662.646 224.606C662.457 224.635 662.277 224.645 662.106 224.64C661.165 224.613 660.491 224.142 660.122 223.922C659.874 223.775 652.699 219.684 644.655 215.101C644.221 214.853 643.783 214.604 643.344 214.354C642.686 213.979 642.024 213.602 641.362 213.225C640.258 212.596 639.154 211.966 638.063 211.345C637.627 211.097 637.193 210.849 636.762 210.604C636.331 210.359 635.904 210.115 635.48 209.874C635.057 209.633 634.638 209.394 634.224 209.158C631.946 207.86 629.823 206.651 628.014 205.621C627.713 205.447 627.499 205.224 627.369 204.988C626.944 204.215 627.416 203.289 628.646 203.365C629.933 203.444 630.899 203.967 632.83 205.062ZM626.191 202.822C625.056 203.49 625.067 205.138 626.21 205.792L659.717 224.961C661.349 225.895 663.37 225.817 664.925 224.761L666.765 223.48L628.376 201.518L626.191 202.822Z" fill="white" fill-opacity="0.15"/>
<path fill-rule="evenodd" clip-rule="evenodd" d="M632.83 205.062C632.913 205.108 633.329 205.347 634.006 205.736C634.2 205.847 634.415 205.97 634.649 206.105C635.587 206.644 636.838 207.363 638.293 208.199C638.657 208.409 639.034 208.625 639.422 208.848C640.197 209.294 641.017 209.765 641.868 210.254C642.293 210.499 642.726 210.748 643.165 211C643.384 211.126 643.605 211.253 643.827 211.381C644.272 211.637 644.721 211.895 645.174 212.155C645.401 212.286 645.628 212.416 645.856 212.547C646.312 212.81 646.77 213.073 647.229 213.337C647.459 213.469 647.689 213.602 647.919 213.734C648.608 214.13 649.298 214.527 649.982 214.92C650.438 215.182 650.891 215.443 651.34 215.701C651.565 215.83 651.788 215.959 652.011 216.086C652.455 216.342 652.894 216.595 653.327 216.843C653.543 216.968 653.758 217.091 653.97 217.213C654.395 217.458 654.813 217.698 655.221 217.932C657.466 219.223 659.428 220.351 660.822 221.152C661.076 221.298 661.31 221.433 661.525 221.556C662.382 222.048 662.912 222.353 663.006 222.406C663.17 222.491 663.354 222.602 663.527 222.731C663.7 222.859 663.862 223.003 663.981 223.156C664.05 223.243 664.105 223.333 664.14 223.424C664.264 223.741 664.15 224.069 663.552 224.335C663.231 224.477 662.929 224.563 662.646 224.606C662.457 224.635 662.277 224.645 662.106 224.64C661.165 224.613 660.491 224.142 660.122 223.922C659.874 223.775 652.699 219.684 644.655 215.101C644.221 214.853 643.783 214.604 643.344 214.354C642.686 213.979 642.024 213.602 641.362 213.225C640.258 212.596 639.154 211.966 638.063 211.345C637.627 211.097 637.193 210.849 636.762 210.604C636.331 210.359 635.904 210.115 635.48 209.874C635.057 209.633 634.638 209.394 634.224 209.158C631.946 207.86 629.823 206.651 628.014 205.621C627.713 205.447 627.499 205.224 627.369 204.988C626.944 204.215 627.416 203.289 628.646 203.365C629.933 203.444 630.899 203.967 632.83 205.062ZM626.191 202.822C625.056 203.49 625.067 205.138 626.21 205.792L659.717 224.961C661.349 225.895 663.37 225.817 664.925 224.761L666.765 223.48L628.376 201.518L626.191 202.822Z" fill="white" fill-opacity="0.15"/>
<path fill-rule="evenodd" clip-rule="evenodd" d="M340.17 524.098L338.724 522.931L335.367 524.863L336.907 525.961C338.046 526.773 338.724 528.087 338.724 529.486V553.35L342.188 551.349V528.314C342.188 526.675 341.446 525.127 340.17 524.098Z" fill="black"/>
<path fill-rule="evenodd" clip-rule="evenodd" d="M108.858 394.601L109.041 394.494L111.854 392.868C111.72 392.366 111.338 391.967 110.842 391.811L109.69 391.448L106.692 393.18L107.845 393.544C108.341 393.7 108.723 394.098 108.858 394.601Z" fill="black"/>
<path fill-rule="evenodd" clip-rule="evenodd" d="M490.413 174.024C490.279 173.523 489.896 173.126 489.398 172.976L488.296 172.642L485.296 174.376L486.401 174.709C486.899 174.859 487.282 175.255 487.418 175.755L490.077 174.219L490.413 174.024Z" fill="black"/>
<path fill-rule="evenodd" clip-rule="evenodd" d="M627.369 204.988C627.506 204.527 627.98 204.174 628.757 204.223C630.044 204.302 631.01 204.825 632.943 205.919C633.695 206.345 662.366 222.838 663.117 223.264C663.587 223.529 664.234 223.988 663.553 224.335C664.15 224.069 664.264 223.741 664.14 223.424C664.105 223.333 664.05 223.243 663.982 223.156C663.862 223.003 663.701 222.858 663.528 222.73C663.355 222.602 663.171 222.491 663.007 222.406C662.913 222.353 662.383 222.048 661.525 221.556C661.311 221.433 661.076 221.298 660.823 221.152C659.428 220.351 657.467 219.223 655.222 217.932C654.814 217.698 654.396 217.458 653.971 217.213C653.758 217.091 653.544 216.967 653.327 216.843C652.895 216.595 652.456 216.342 652.011 216.086C651.789 215.959 651.566 215.83 651.341 215.701C650.892 215.443 650.438 215.182 649.983 214.92C649.299 214.527 648.609 214.13 647.92 213.734C647.69 213.601 647.46 213.469 647.23 213.337C646.771 213.073 646.312 212.81 645.856 212.547C645.628 212.416 645.401 212.286 645.175 212.155C644.722 211.895 644.272 211.637 643.828 211.381C643.606 211.253 643.385 211.126 643.165 211C642.726 210.748 642.293 210.499 641.868 210.254C641.018 209.765 640.198 209.294 639.422 208.848C639.035 208.625 638.658 208.409 638.294 208.199C636.838 207.363 635.587 206.644 634.65 206.105C634.415 205.97 634.2 205.847 634.007 205.736C633.33 205.347 632.913 205.108 632.831 205.061C630.899 203.967 629.933 203.444 628.647 203.365C627.417 203.289 626.945 204.215 627.369 204.988Z" fill="black"/>
<path fill-rule="evenodd" clip-rule="evenodd" d="M663.552 224.335C664.234 223.988 663.587 223.529 663.117 223.264C662.366 222.838 633.694 206.345 632.943 205.919C631.009 204.825 630.044 204.302 628.757 204.223C627.98 204.174 627.506 204.527 627.369 204.988C627.499 205.224 627.714 205.446 628.014 205.621C629.823 206.651 631.946 207.861 634.224 209.158C634.638 209.394 635.057 209.633 635.481 209.874C635.904 210.115 636.332 210.359 636.763 210.604C637.193 210.849 637.627 211.097 638.064 211.345C639.154 211.967 640.259 212.596 641.362 213.225C642.025 213.602 642.686 213.979 643.345 214.354C643.784 214.604 644.221 214.853 644.656 215.101C652.699 219.684 659.874 223.774 660.122 223.922C660.491 224.142 661.166 224.613 662.107 224.64C662.278 224.645 662.458 224.635 662.646 224.606C662.929 224.563 663.231 224.477 663.552 224.335Z" fill="white" fill-opacity="0.15"/>
<path fill-rule="evenodd" clip-rule="evenodd" d="M663.552 224.335C664.234 223.988 663.587 223.529 663.117 223.264C662.366 222.838 633.694 206.345 632.943 205.919C631.009 204.825 630.044 204.302 628.757 204.223C627.98 204.174 627.506 204.527 627.369 204.988C627.499 205.224 627.714 205.446 628.014 205.621C629.823 206.651 631.946 207.861 634.224 209.158C634.638 209.394 635.057 209.633 635.481 209.874C635.904 210.115 636.332 210.359 636.763 210.604C637.193 210.849 637.627 211.097 638.064 211.345C639.154 211.967 640.259 212.596 641.362 213.225C642.025 213.602 642.686 213.979 643.345 214.354C643.784 214.604 644.221 214.853 644.656 215.101C652.699 219.684 659.874 223.774 660.122 223.922C660.491 224.142 661.166 224.613 662.107 224.64C662.278 224.645 662.458 224.635 662.646 224.606C662.929 224.563 663.231 224.477 663.552 224.335Z" fill="white" fill-opacity="0.15"/>
<path fill-rule="evenodd" clip-rule="evenodd" d="M663.552 224.335C664.234 223.988 663.587 223.529 663.117 223.264C662.366 222.838 633.694 206.345 632.943 205.919C631.009 204.825 630.044 204.302 628.757 204.223C627.98 204.174 627.506 204.527 627.369 204.988C627.499 205.224 627.714 205.446 628.014 205.621C629.823 206.651 631.946 207.861 634.224 209.158C634.638 209.394 635.057 209.633 635.481 209.874C635.904 210.115 636.332 210.359 636.763 210.604C637.193 210.849 637.627 211.097 638.064 211.345C639.154 211.967 640.259 212.596 641.362 213.225C642.025 213.602 642.686 213.979 643.345 214.354C643.784 214.604 644.221 214.853 644.656 215.101C652.699 219.684 659.874 223.774 660.122 223.922C660.491 224.142 661.166 224.613 662.107 224.64C662.278 224.645 662.458 224.635 662.646 224.606C662.929 224.563 663.231 224.477 663.552 224.335Z" fill="white" fill-opacity="0.15"/>
<path fill-rule="evenodd" clip-rule="evenodd" d="M104.738 446.215C103.91 447.029 103.444 448.14 103.444 449.3V473.372L106.584 475.206V451.182C106.584 449.998 107.069 448.865 107.926 448.047L109.508 446.539L106.305 444.672L104.738 446.215Z" fill="black"/>
<path fill-rule="evenodd" clip-rule="evenodd" d="M623.48 382.002L574.901 410.365C574.377 410.673 573.678 410.967 572.963 411.104C570.657 412.035 569.464 411.602 568.944 411.212C567.929 410.454 567.533 409.12 567.633 407.611C567.648 407.331 567.686 407.031 567.746 406.712C567.748 406.7 567.75 406.688 567.753 406.675C567.776 406.557 567.8 406.437 567.829 406.314C568.381 403.955 569.975 401.452 572.208 400.14L620.777 371.924C622.62 370.839 624.248 370.575 625.504 371.513C626.394 372.179 626.834 373.216 626.89 374.401C627.847 376.608 626.377 380.298 623.48 382.002ZM492.953 457.237L438.972 488.79C437.552 489.63 435.122 490.386 433.656 489.284C430.65 487.025 433.899 479.147 438.312 476.536L491.71 445.6C495.08 443.716 497.412 444.578 497.769 446.981C498.369 451.007 496.628 455.063 492.953 457.237ZM717.466 311.254C717.466 310.129 717.028 309.049 716.246 308.241L714.759 306.705L338.724 522.931L340.17 524.098C341.446 525.127 342.188 526.675 342.188 528.314V551.349L717.466 334.679V311.254Z" fill="white" fill-opacity="0.15"/>
<path d="M340.17 524.098L338.724 522.931L335.367 524.863L336.907 525.961C338.046 526.773 338.724 528.087 338.724 529.486V553.35L342.188 551.349V528.314C342.188 526.675 341.446 525.127 340.17 524.098Z" fill="white" fill-opacity="0.3"/>
<path d="M108.858 394.601L109.041 394.494L111.854 392.868C111.72 392.366 111.338 391.967 110.842 391.811L109.69 391.448L106.692 393.18L107.845 393.544C108.341 393.7 108.723 394.098 108.858 394.601Z" fill="white" fill-opacity="0.3"/>
<path d="M490.413 174.024C490.279 173.523 489.896 173.126 489.398 172.976L488.296 172.642L485.296 174.376L486.401 174.709C486.899 174.859 487.282 175.255 487.418 175.755L490.077 174.219L490.413 174.024Z" fill="white" fill-opacity="0.3"/>
<path d="M104.738 446.215C103.91 447.029 103.444 448.14 103.444 449.3V473.372L106.584 475.206V451.182C106.584 449.998 107.069 448.865 107.926 448.047L109.508 446.539L106.305 444.672L104.738 446.215Z" fill="white" fill-opacity="0.3"/>
<path fill-rule="evenodd" clip-rule="evenodd" d="M489.398 172.976C489.896 173.126 490.279 173.523 490.414 174.024L498.151 169.551C521.047 156.315 549.254 156.251 572.21 169.384L579.14 173.349C579.14 172.94 579.404 172.577 579.792 172.449L581.197 171.987L579.792 172.449C579.404 172.577 579.14 172.94 579.14 173.349L582.232 175.118C582.232 174.709 582.494 174.346 582.884 174.218L584.289 173.756L572.223 166.839C549.263 153.675 521.031 153.723 498.114 166.967L488.296 172.642L489.398 172.976Z" fill="white" fill-opacity="0.15"/>
<path fill-rule="evenodd" clip-rule="evenodd" d="M579.792 172.449L581.197 171.987L579.792 172.449C579.404 172.577 579.14 172.94 579.14 173.349L582.232 175.118C582.232 174.709 582.494 174.346 582.884 174.218L584.289 173.756L581.197 171.987" fill="black"/>
<path d="M579.792 172.449L581.197 171.987L579.792 172.449C579.404 172.577 579.14 172.94 579.14 173.349L582.232 175.118C582.232 174.709 582.494 174.346 582.884 174.218L584.289 173.756L581.197 171.987" fill="white" fill-opacity="0.3"/>
<path fill-rule="evenodd" clip-rule="evenodd" d="M582.232 175.118L628.376 201.518V201.517V201.518L666.765 223.48L666.766 223.48L666.765 223.48L720.117 254.003C724.007 256.113 727.447 258.251 730.395 260.419C730.887 260.78 731.365 261.143 731.829 261.506C732.138 261.748 732.441 261.99 732.738 262.233C733.926 263.203 735.014 264.18 736 265.163C736.37 265.531 736.725 265.9 737.065 266.27C737.406 266.64 737.732 267.011 738.043 267.383C738.25 267.631 738.451 267.879 738.645 268.128C738.742 268.252 738.838 268.377 738.931 268.501C739.213 268.875 739.479 269.249 739.73 269.624C740.399 270.624 740.96 271.631 741.409 272.643C741.466 272.769 741.52 272.896 741.573 273.023C743.153 276.824 743.156 280.711 741.395 284.685C741.16 285.215 740.894 285.746 740.596 286.279C740.447 286.546 740.29 286.813 740.125 287.08C739.96 287.347 739.787 287.615 739.606 287.883C739.244 288.419 738.849 288.957 738.422 289.496C738.315 289.631 738.207 289.766 738.096 289.901C737.874 290.171 737.644 290.441 737.406 290.712C737.287 290.847 737.166 290.983 737.043 291.119C736.673 291.525 736.285 291.933 735.877 292.342C735.199 293.023 734.468 293.706 733.684 294.392C733.37 294.667 733.048 294.942 732.717 295.217C732.552 295.354 732.384 295.492 732.215 295.63C731.875 295.905 731.528 296.181 731.171 296.458C728.141 298.807 724.485 301.185 720.171 303.593L719.035 304.246L717.899 304.899L719.508 306.579C720.281 307.385 720.714 308.459 720.714 309.576V332.804L732.624 325.927C742.311 320.334 748.199 309.922 747.995 298.738L747.783 287.088V284.929C747.783 274.143 742.012 264.181 732.653 258.816L584.289 173.756L582.884 174.218C582.494 174.346 582.232 174.709 582.232 175.118Z" fill="white" fill-opacity="0.15"/>
<path fill-rule="evenodd" clip-rule="evenodd" d="M111.855 392.868L487.419 175.756C487.282 175.255 486.899 174.859 486.401 174.709L485.297 174.376L109.985 391.277L109.69 391.448L110.843 391.811C111.339 391.967 111.72 392.366 111.855 392.868Z" fill="white" fill-opacity="0.15"/>
<path fill-rule="evenodd" clip-rule="evenodd" d="M103.444 449.301C103.444 448.14 103.91 447.029 104.738 446.215L106.305 444.672L96.0319 438.679C79.8407 428.817 78 412.36 96.1036 401.974L108.858 394.601C108.724 394.098 108.342 393.7 107.846 393.544L106.693 393.18L91.5243 401.946C83.1549 406.784 78 415.716 78 425.383V444.463C78 453.159 82.6166 461.204 90.1265 465.591L103.444 473.372V449.301Z" fill="white" fill-opacity="0.15"/>
<path fill-rule="evenodd" clip-rule="evenodd" d="M225.173 530.755C224.666 529.874 224.43 528.955 224.466 528.204C223.869 527.884 223.277 527.819 222.819 528.083C221.862 528.637 221.858 530.424 222.809 532.076C223.76 533.726 225.307 534.616 226.264 534.062C226.711 533.804 226.95 533.278 226.981 532.622C226.329 532.271 225.67 531.617 225.173 530.755Z" fill="black"/>
<path fill-rule="evenodd" clip-rule="evenodd" d="M224.467 528.204C224.43 528.955 224.666 529.874 225.173 530.755C225.67 531.617 226.329 532.271 226.981 532.622C227.018 531.87 226.782 530.952 226.275 530.071C225.778 529.209 225.119 528.555 224.467 528.204Z" fill="white" fill-opacity="0.15"/>
<path fill-rule="evenodd" clip-rule="evenodd" d="M217.114 523.856C217.078 524.607 217.313 525.525 217.821 526.407C218.318 527.269 218.977 527.923 219.629 528.273C219.666 527.524 219.43 526.604 218.923 525.722C218.426 524.861 217.767 524.207 217.114 523.856Z" fill="white" fill-opacity="0.15"/>
<path fill-rule="evenodd" clip-rule="evenodd" d="M217.821 526.407C217.313 525.525 217.078 524.607 217.114 523.856C216.517 523.535 215.925 523.47 215.467 523.735C214.51 524.289 214.506 526.075 215.457 527.728C216.408 529.378 217.955 530.268 218.912 529.713C219.359 529.456 219.598 528.93 219.629 528.273C218.977 527.923 218.318 527.269 217.821 526.407Z" fill="black"/>
<path fill-rule="evenodd" clip-rule="evenodd" d="M209.763 519.507C209.727 520.259 209.962 521.179 210.47 522.058C210.966 522.92 211.625 523.576 212.278 523.925C212.314 523.176 212.079 522.255 211.571 521.374C211.074 520.512 210.415 519.858 209.763 519.507Z" fill="white" fill-opacity="0.15"/>
<path fill-rule="evenodd" clip-rule="evenodd" d="M210.469 522.058C209.961 521.179 209.726 520.259 209.762 519.507C209.165 519.187 208.573 519.122 208.115 519.386C207.158 519.941 207.154 521.727 208.105 523.379C209.056 525.029 210.603 525.919 211.56 525.365C212.006 525.107 212.246 524.581 212.277 523.925C211.625 523.576 210.966 522.92 210.469 522.058Z" fill="black"/>
<path fill-rule="evenodd" clip-rule="evenodd" d="M193.678 510.185C193.238 509.949 192.801 509.843 192.412 509.893C191.663 510.642 191.746 512.353 192.664 513.947C193.528 515.445 194.854 516.357 195.859 516.227C196.166 515.921 196.333 515.452 196.36 514.895C196.398 514.094 196.147 513.115 195.606 512.175C195.076 511.255 194.374 510.558 193.678 510.185Z" fill="white" fill-opacity="0.15"/>
<path fill-rule="evenodd" clip-rule="evenodd" d="M192.664 513.947C191.746 512.353 191.663 510.642 192.411 509.893C192.237 509.914 192.072 509.969 191.921 510.055C190.9 510.646 190.896 512.552 191.91 514.313C192.924 516.073 194.574 517.022 195.594 516.43C195.691 516.374 195.779 516.307 195.858 516.227C194.853 516.357 193.528 515.445 192.664 513.947Z" fill="black"/>
<path fill-rule="evenodd" clip-rule="evenodd" d="M150.876 489.834C149.958 488.24 149.875 486.529 150.623 485.78C150.449 485.802 150.284 485.856 150.133 485.943C149.112 486.534 149.107 488.439 150.122 490.2C151.136 491.96 152.786 492.909 153.806 492.318C153.846 492.294 153.884 492.27 153.92 492.244C153.973 492.205 154.023 492.162 154.07 492.114C153.065 492.244 151.74 491.332 150.876 489.834Z" fill="black"/>
<path fill-rule="evenodd" clip-rule="evenodd" d="M151.889 486.072C151.449 485.836 151.012 485.73 150.623 485.78C149.875 486.529 149.958 488.24 150.876 489.834C151.74 491.332 153.065 492.244 154.07 492.114C154.377 491.809 154.544 491.339 154.571 490.782C154.61 489.981 154.359 489 153.817 488.063C153.288 487.142 152.585 486.445 151.889 486.072Z" fill="white" fill-opacity="0.15"/>
<path fill-rule="evenodd" clip-rule="evenodd" d="M136.635 479.6C136.127 478.719 135.892 477.798 135.928 477.049C135.331 476.728 134.739 476.664 134.281 476.928C133.324 477.482 133.32 479.269 134.271 480.919C135.222 482.571 136.769 483.459 137.726 482.907C138.173 482.649 138.412 482.121 138.443 481.467C137.791 481.116 137.132 480.462 136.635 479.6Z" fill="black"/>
<path fill-rule="evenodd" clip-rule="evenodd" d="M135.929 477.049C135.893 477.798 136.129 478.719 136.636 479.6C137.133 480.462 137.792 481.116 138.445 481.467C138.481 480.715 138.245 479.795 137.738 478.916C137.241 478.054 136.582 477.398 135.929 477.049Z" fill="white" fill-opacity="0.15"/>
<path fill-rule="evenodd" clip-rule="evenodd" d="M128.577 472.701C128.541 473.45 128.776 474.37 129.284 475.252C129.78 476.113 130.439 476.767 131.092 477.118C131.128 476.367 130.893 475.447 130.385 474.567C129.888 473.705 129.23 473.049 128.577 472.701Z" fill="white" fill-opacity="0.15"/>
<path fill-rule="evenodd" clip-rule="evenodd" d="M129.284 475.252C128.776 474.37 128.541 473.45 128.577 472.701C127.979 472.38 127.387 472.315 126.93 472.579C125.973 473.134 125.968 474.92 126.919 476.57C127.871 478.223 129.418 479.11 130.375 478.558C130.821 478.301 131.06 477.774 131.092 477.118C130.439 476.767 129.78 476.113 129.284 475.252Z" fill="black"/>
<path fill-rule="evenodd" clip-rule="evenodd" d="M121.224 468.352C121.188 469.102 121.424 470.022 121.931 470.903C122.428 471.765 123.087 472.419 123.74 472.77C123.776 472.019 123.54 471.098 123.033 470.219C122.536 469.357 121.877 468.701 121.224 468.352Z" fill="white" fill-opacity="0.15"/>
<path fill-rule="evenodd" clip-rule="evenodd" d="M121.932 470.903C121.424 470.022 121.189 469.102 121.225 468.352C120.628 468.032 120.036 467.967 119.578 468.231C118.621 468.786 118.617 470.572 119.568 472.222C120.519 473.874 122.066 474.764 123.023 474.21C123.469 473.952 123.709 473.426 123.74 472.77C123.088 472.419 122.429 471.765 121.932 470.903Z" fill="black"/>
<path fill-rule="evenodd" clip-rule="evenodd" d="M240.118 539.581C239.611 538.7 239.375 537.782 239.412 537.031C238.814 536.71 238.222 536.645 237.765 536.909C236.808 537.464 236.803 539.25 237.754 540.902C238.706 542.553 240.253 543.443 241.21 542.888C241.656 542.63 241.895 542.104 241.927 541.448C241.274 541.097 240.615 540.443 240.118 539.581Z" fill="black"/>
<path fill-rule="evenodd" clip-rule="evenodd" d="M239.411 537.031C239.375 537.782 239.61 538.7 240.118 539.581C240.615 540.443 241.274 541.097 241.926 541.448C241.963 540.697 241.727 539.779 241.22 538.897C240.723 538.035 240.064 537.381 239.411 537.031Z" fill="white" fill-opacity="0.15"/>
<path fill-rule="evenodd" clip-rule="evenodd" d="M232 532.613C231.964 533.364 232.199 534.283 232.707 535.164C233.204 536.026 233.863 536.68 234.515 537.031C234.552 536.279 234.316 535.361 233.808 534.48C233.312 533.618 232.653 532.964 232 532.613Z" fill="white" fill-opacity="0.15"/>
<path fill-rule="evenodd" clip-rule="evenodd" d="M232.707 535.164C232.199 534.283 231.964 533.364 232 532.613C231.403 532.292 230.81 532.228 230.353 532.492C229.396 533.046 229.391 534.833 230.343 536.485C231.294 538.135 232.841 539.025 233.798 538.471C234.244 538.213 234.483 537.687 234.515 537.031C233.862 536.68 233.204 536.026 232.707 535.164Z" fill="black"/>
<path fill-rule="evenodd" clip-rule="evenodd" d="M568.377 409.564C568.68 409.716 570.06 410.419 570.712 410.753C568.345 408.981 569.767 404.075 573.245 402.028L621.823 373.476C623.326 372.592 624.864 372.495 625.916 373.21C625.15 372.664 623.735 371.658 623.517 371.513C623.233 371.325 622.482 370.933 620.777 371.924L572.208 400.14C569.975 401.452 568.381 403.955 567.829 406.314C567.801 406.435 567.776 406.555 567.753 406.675C567.75 406.688 567.748 406.7 567.746 406.713C567.69 407.017 567.653 407.317 567.634 407.611C567.584 408.57 567.808 409.28 568.377 409.564Z" fill="white" fill-opacity="0.15"/>
<path fill-rule="evenodd" clip-rule="evenodd" d="M626.014 373.278L625.916 373.21C624.864 372.495 623.326 372.592 621.823 373.476L573.245 402.028C569.768 404.075 568.345 408.982 570.712 410.753C571.327 411.212 572.154 411.26 572.964 411.104C573.678 410.967 574.378 410.673 574.902 410.365L623.48 382.002C626.377 380.298 627.848 376.608 626.891 374.401C626.698 373.957 626.408 373.574 626.014 373.278Z" fill="black"/>
<path fill-rule="evenodd" clip-rule="evenodd" d="M623.517 371.513C623.735 371.658 625.149 372.664 625.916 373.21L626.013 373.278C626.408 373.574 626.698 373.957 626.89 374.401C626.834 373.216 626.395 372.179 625.505 371.513C624.249 370.575 622.62 370.839 620.777 371.924C622.482 370.933 623.233 371.325 623.517 371.513Z" fill="white" fill-opacity="0.15"/>
<path fill-rule="evenodd" clip-rule="evenodd" d="M567.746 406.714C567.749 406.701 567.751 406.688 567.753 406.675C567.751 406.688 567.749 406.701 567.746 406.714Z" fill="black"/>
<path fill-rule="evenodd" clip-rule="evenodd" d="M570.711 410.753C570.06 410.419 568.68 409.716 568.377 409.564C567.808 409.28 567.584 408.57 567.634 407.611C567.534 409.12 567.929 410.454 568.944 411.212C569.464 411.602 570.657 412.035 572.964 411.104C572.154 411.26 571.326 411.212 570.711 410.753Z" fill="white" fill-opacity="0.15"/>
<path fill-rule="evenodd" clip-rule="evenodd" d="M568.377 409.564C568.68 409.716 570.06 410.419 570.712 410.753C568.345 408.981 569.767 404.075 573.245 402.028L621.823 373.476C623.326 372.592 624.864 372.495 625.916 373.21C625.15 372.664 623.735 371.658 623.517 371.513C623.233 371.325 622.482 370.933 620.777 371.924L572.208 400.14C569.975 401.452 568.381 403.955 567.829 406.314C567.801 406.435 567.776 406.555 567.753 406.675C567.75 406.688 567.748 406.7 567.746 406.713C567.69 407.017 567.653 407.317 567.634 407.611C567.584 408.57 567.808 409.28 568.377 409.564Z" fill="white" fill-opacity="0.15"/>
<path fill-rule="evenodd" clip-rule="evenodd" d="M623.517 371.513C623.735 371.658 625.149 372.664 625.916 373.21L626.013 373.278C626.408 373.574 626.698 373.957 626.89 374.401C626.834 373.216 626.395 372.179 625.505 371.513C624.249 370.575 622.62 370.839 620.777 371.924C622.482 370.933 623.233 371.325 623.517 371.513Z" fill="white" fill-opacity="0.15"/>
<path fill-rule="evenodd" clip-rule="evenodd" d="M570.711 410.753C570.06 410.419 568.68 409.716 568.377 409.564C567.808 409.28 567.584 408.57 567.634 407.611C567.534 409.12 567.929 410.454 568.944 411.212C569.464 411.602 570.657 412.035 572.964 411.104C572.154 411.26 571.326 411.212 570.711 410.753Z" fill="white" fill-opacity="0.15"/>
<path fill-rule="evenodd" clip-rule="evenodd" d="M623.517 371.513C623.735 371.658 625.149 372.664 625.916 373.21L626.013 373.278C626.408 373.574 626.698 373.957 626.89 374.401C626.834 373.216 626.395 372.179 625.505 371.513C624.249 370.575 622.62 370.839 620.777 371.924C622.482 370.933 623.233 371.325 623.517 371.513Z" fill="white" fill-opacity="0.15"/>
<path fill-rule="evenodd" clip-rule="evenodd" d="M570.711 410.753C570.06 410.419 568.68 409.716 568.377 409.564C567.808 409.28 567.584 408.57 567.634 407.611C567.534 409.12 567.929 410.454 568.944 411.212C569.464 411.602 570.657 412.035 572.964 411.104C572.154 411.26 571.326 411.212 570.711 410.753Z" fill="white" fill-opacity="0.15"/>
<path fill-rule="evenodd" clip-rule="evenodd" d="M567.753 406.675C567.776 406.555 567.801 406.435 567.829 406.314C567.801 406.437 567.776 406.557 567.753 406.675Z" fill="black"/>
<path fill-rule="evenodd" clip-rule="evenodd" d="M567.634 407.611C567.653 407.317 567.69 407.017 567.746 406.713C567.686 407.031 567.648 407.331 567.634 407.611Z" fill="black"/>
<path fill-rule="evenodd" clip-rule="evenodd" d="M182.658 509.161L165.105 498.637C163.653 497.766 162.681 496.276 162.467 494.598L162.448 494.444C162.284 493.158 163.051 492.097 164.092 491.69L163.798 491.512C161.938 490.39 159.605 491.908 159.877 494.063L160.06 495.507C160.272 497.184 161.239 498.671 162.686 499.544L182.004 511.198C183.857 512.316 186.18 510.813 185.928 508.671C185.147 509.529 183.812 509.852 182.658 509.161Z" fill="black"/>
<path fill-rule="evenodd" clip-rule="evenodd" d="M162.448 494.444L162.467 494.598C162.681 496.276 163.653 497.766 165.106 498.637L182.658 509.161C183.812 509.852 185.147 509.529 185.928 508.671C185.927 508.663 185.926 508.654 185.925 508.648L185.742 507.203C185.688 506.77 185.583 506.352 185.432 505.952L169.695 496.517C168.592 495.854 167.765 494.836 167.338 493.65L164.093 491.69C163.051 492.097 162.284 493.158 162.448 494.444Z" fill="white" fill-opacity="0.15"/>
<path fill-rule="evenodd" clip-rule="evenodd" d="M169.695 496.517L185.432 505.952C184.999 504.802 184.19 503.816 183.116 503.167L167.338 493.65C167.765 494.836 168.591 495.854 169.695 496.517Z" fill="white" fill-opacity="0.15"/>
<path fill-rule="evenodd" clip-rule="evenodd" d="M224.467 528.204C224.43 528.955 224.666 529.874 225.173 530.755C225.67 531.617 226.329 532.271 226.981 532.622C227.018 531.87 226.782 530.952 226.275 530.071C225.778 529.209 225.119 528.555 224.467 528.204Z" fill="white" fill-opacity="0.15"/>
<path fill-rule="evenodd" clip-rule="evenodd" d="M217.114 523.856C217.078 524.607 217.313 525.525 217.821 526.407C218.318 527.269 218.977 527.923 219.629 528.273C219.666 527.524 219.43 526.604 218.923 525.722C218.426 524.861 217.767 524.207 217.114 523.856Z" fill="white" fill-opacity="0.15"/>
<path fill-rule="evenodd" clip-rule="evenodd" d="M209.763 519.507C209.727 520.259 209.962 521.179 210.47 522.058C210.966 522.92 211.625 523.576 212.278 523.925C212.314 523.176 212.079 522.255 211.571 521.374C211.074 520.512 210.415 519.858 209.763 519.507Z" fill="white" fill-opacity="0.15"/>
<path fill-rule="evenodd" clip-rule="evenodd" d="M193.678 510.185C193.238 509.949 192.801 509.843 192.412 509.893C191.663 510.642 191.746 512.353 192.664 513.947C193.528 515.445 194.854 516.357 195.859 516.227C196.166 515.921 196.333 515.452 196.36 514.895C196.398 514.094 196.147 513.115 195.606 512.175C195.076 511.255 194.374 510.558 193.678 510.185Z" fill="white" fill-opacity="0.15"/>
<path fill-rule="evenodd" clip-rule="evenodd" d="M151.889 486.072C151.449 485.836 151.012 485.73 150.623 485.78C149.875 486.529 149.958 488.24 150.876 489.834C151.74 491.332 153.065 492.244 154.07 492.114C154.377 491.809 154.544 491.339 154.571 490.782C154.61 489.981 154.359 489 153.817 488.063C153.288 487.142 152.585 486.445 151.889 486.072Z" fill="white" fill-opacity="0.15"/>
<path fill-rule="evenodd" clip-rule="evenodd" d="M135.929 477.049C135.893 477.798 136.129 478.719 136.636 479.6C137.133 480.462 137.792 481.116 138.445 481.467C138.481 480.715 138.245 479.795 137.738 478.916C137.241 478.054 136.582 477.398 135.929 477.049Z" fill="white" fill-opacity="0.15"/>
<path fill-rule="evenodd" clip-rule="evenodd" d="M128.577 472.701C128.541 473.45 128.776 474.37 129.284 475.252C129.78 476.113 130.439 476.767 131.092 477.118C131.128 476.367 130.893 475.447 130.385 474.567C129.888 473.705 129.23 473.049 128.577 472.701Z" fill="white" fill-opacity="0.15"/>
<path fill-rule="evenodd" clip-rule="evenodd" d="M121.224 468.352C121.188 469.102 121.424 470.022 121.931 470.903C122.428 471.765 123.087 472.419 123.74 472.77C123.776 472.019 123.54 471.098 123.033 470.219C122.536 469.357 121.877 468.701 121.224 468.352Z" fill="white" fill-opacity="0.15"/>
<path fill-rule="evenodd" clip-rule="evenodd" d="M239.411 537.031C239.375 537.782 239.61 538.7 240.118 539.581C240.615 540.443 241.274 541.097 241.926 541.448C241.963 540.697 241.727 539.779 241.22 538.897C240.723 538.035 240.064 537.381 239.411 537.031Z" fill="white" fill-opacity="0.15"/>
<path fill-rule="evenodd" clip-rule="evenodd" d="M232 532.613C231.964 533.364 232.199 534.283 232.707 535.164C233.204 536.026 233.863 536.68 234.515 537.031C234.552 536.279 234.316 535.361 233.808 534.48C233.312 533.618 232.653 532.964 232 532.613Z" fill="white" fill-opacity="0.15"/>
<path fill-rule="evenodd" clip-rule="evenodd" d="M162.448 494.444L162.467 494.598C162.681 496.276 163.653 497.766 165.106 498.637L182.658 509.161C183.812 509.852 185.147 509.529 185.928 508.671C185.927 508.663 185.926 508.654 185.925 508.648L185.742 507.203C185.688 506.77 185.583 506.352 185.432 505.952L169.695 496.517C168.592 495.854 167.765 494.836 167.338 493.65L164.093 491.69C163.051 492.097 162.284 493.158 162.448 494.444Z" fill="white" fill-opacity="0.15"/>
<path fill-rule="evenodd" clip-rule="evenodd" d="M169.695 496.517L185.432 505.952C184.999 504.802 184.19 503.816 183.116 503.167L167.338 493.65C167.765 494.836 168.591 495.854 169.695 496.517Z" fill="white" fill-opacity="0.15"/>
<path fill-rule="evenodd" clip-rule="evenodd" d="M169.695 496.517L185.432 505.952C184.999 504.802 184.19 503.816 183.116 503.167L167.338 493.65C167.765 494.836 168.591 495.854 169.695 496.517Z" fill="white" fill-opacity="0.15"/>
<path fill-rule="evenodd" clip-rule="evenodd" d="M162.448 494.444L162.467 494.598C162.681 496.276 163.653 497.766 165.106 498.637L182.658 509.161C183.812 509.852 185.147 509.529 185.928 508.671C185.927 508.663 185.926 508.654 185.925 508.648L185.742 507.203C185.688 506.77 185.583 506.352 185.432 505.952L169.695 496.517C168.592 495.854 167.765 494.836 167.338 493.65L164.093 491.69C163.051 492.097 162.284 493.158 162.448 494.444Z" fill="white" fill-opacity="0.15"/>
<path fill-rule="evenodd" clip-rule="evenodd" d="M169.695 496.517L185.432 505.952C184.999 504.802 184.19 503.816 183.116 503.167L167.338 493.65C167.765 494.836 168.591 495.854 169.695 496.517Z" fill="white" fill-opacity="0.15"/>
<path fill-rule="evenodd" clip-rule="evenodd" d="M241.926 541.448C241.895 542.104 241.655 542.63 241.209 542.888C240.252 543.443 238.705 542.553 237.754 540.902C236.803 539.25 236.807 537.464 237.764 536.909C238.222 536.645 238.814 536.71 239.411 537.031C240.064 537.381 240.723 538.035 241.22 538.897C241.727 539.779 241.963 540.697 241.926 541.448ZM234.515 537.031C234.483 537.687 234.244 538.213 233.798 538.471C232.841 539.025 231.294 538.135 230.343 536.485C229.391 534.833 229.396 533.046 230.353 532.492C230.81 532.228 231.403 532.292 232 532.613C232.652 532.964 233.312 533.618 233.808 534.48C234.316 535.361 234.551 536.279 234.515 537.031ZM226.981 532.622C226.949 533.278 226.71 533.804 226.264 534.062C225.307 534.616 223.76 533.726 222.809 532.076C221.858 530.424 221.862 528.637 222.819 528.083C223.276 527.819 223.869 527.884 224.466 528.204C225.119 528.555 225.778 529.209 226.274 530.071C226.782 530.952 227.017 531.87 226.981 532.622ZM219.629 528.273C219.597 528.93 219.358 529.456 218.912 529.713C217.955 530.268 216.408 529.378 215.457 527.728C214.505 526.075 214.51 524.289 215.467 523.735C215.924 523.47 216.517 523.535 217.114 523.856C217.767 524.207 218.426 524.861 218.922 525.722C219.43 526.604 219.665 527.524 219.629 528.273ZM212.277 523.925C212.246 524.581 212.006 525.107 211.56 525.365C210.603 525.919 209.056 525.029 208.105 523.379C207.154 521.727 207.158 519.941 208.115 519.386C208.573 519.122 209.165 519.187 209.762 519.507C210.415 519.858 211.074 520.512 211.57 521.374C212.078 522.255 212.314 523.176 212.277 523.925ZM196.359 514.895C196.332 515.452 196.165 515.921 195.858 516.227C195.779 516.307 195.691 516.374 195.594 516.43C194.574 517.022 192.924 516.073 191.91 514.313C190.896 512.552 190.9 510.646 191.921 510.055C192.072 509.969 192.237 509.914 192.411 509.893C192.8 509.843 193.237 509.949 193.677 510.185C194.373 510.558 195.076 511.255 195.605 512.175C196.147 513.115 196.398 514.094 196.359 514.895ZM182.004 511.199L162.685 499.544C161.238 498.671 160.271 497.184 160.059 495.508L159.877 494.063C159.604 491.908 161.938 490.39 163.797 491.512L164.092 491.69L167.337 493.65L183.116 503.167C184.189 503.816 184.999 504.802 185.431 505.952C185.582 506.352 185.687 506.77 185.742 507.203L185.924 508.648C185.925 508.654 185.926 508.663 185.927 508.671C186.179 510.813 183.856 512.316 182.004 511.199ZM154.57 490.782C154.543 491.339 154.377 491.809 154.069 492.114C154.023 492.162 153.973 492.205 153.92 492.244C153.883 492.27 153.845 492.294 153.806 492.318C152.785 492.909 151.136 491.96 150.121 490.2C149.107 488.439 149.112 486.534 150.132 485.943C150.283 485.856 150.448 485.802 150.623 485.78C151.012 485.73 151.449 485.836 151.889 486.073C152.585 486.445 153.287 487.142 153.817 488.063C154.358 489 154.609 489.981 154.57 490.782ZM138.444 481.467C138.412 482.121 138.173 482.649 137.727 482.907C136.769 483.459 135.223 482.571 134.271 480.919C133.32 479.269 133.325 477.482 134.282 476.928C134.739 476.664 135.331 476.728 135.929 477.049C136.581 477.398 137.24 478.054 137.737 478.916C138.245 479.795 138.48 480.715 138.444 481.467ZM131.092 477.118C131.06 477.774 130.821 478.301 130.374 478.558C129.417 479.11 127.87 478.223 126.919 476.57C125.968 474.92 125.972 473.134 126.93 472.579C127.387 472.315 127.979 472.38 128.576 472.701C129.229 473.049 129.888 473.705 130.385 474.567C130.892 475.447 131.128 476.367 131.092 477.118ZM123.74 472.77C123.708 473.426 123.469 473.952 123.022 474.21C122.065 474.764 120.518 473.874 119.567 472.222C118.616 470.572 118.62 468.786 119.577 468.231C120.035 467.967 120.627 468.032 121.224 468.352C121.877 468.701 122.536 469.357 123.033 470.219C123.54 471.098 123.776 472.019 123.74 472.77ZM336.907 525.961L335.367 524.863L323.816 531.504C302.43 543.8 276.101 543.72 254.792 531.288L246.041 526.184L242.839 524.315L109.507 446.54L107.926 448.047C107.069 448.865 106.584 449.998 106.584 451.182V475.206L239.977 553.137L243.117 554.972L249.388 558.636C274.03 573.032 304.498 573.11 329.215 558.839L338.724 553.35V529.486C338.724 528.087 338.046 526.773 336.907 525.961Z" fill="white" fill-opacity="0.15"/>
<path fill-rule="evenodd" clip-rule="evenodd" d="M603.129 205.919C607.269 205.899 610.615 204.058 610.604 201.806C610.593 199.554 607.228 197.745 603.09 197.764C598.949 197.785 595.602 199.626 595.612 201.878C595.623 204.13 598.988 205.939 603.129 205.919Z" fill="white" fill-opacity="0.15"/>
<path fill-rule="evenodd" clip-rule="evenodd" d="M491.711 445.6L438.312 476.536C433.899 479.147 430.651 487.025 433.656 489.284C435.122 490.386 437.552 489.63 438.973 488.79L492.954 457.237C496.628 455.063 498.369 451.007 497.77 446.981C497.412 444.578 495.08 443.716 491.711 445.6Z" fill="white" fill-opacity="0.15"/>
<path fill-rule="evenodd" clip-rule="evenodd" d="M491.711 445.6L438.312 476.536C433.899 479.147 430.651 487.025 433.656 489.284C435.122 490.386 437.552 489.63 438.973 488.79L492.954 457.237C496.628 455.063 498.369 451.007 497.77 446.981C497.412 444.578 495.08 443.716 491.711 445.6Z" fill="black"/>
<mask id="mask1_66_23210" style="mask-type:alpha" maskUnits="userSpaceOnUse" x="94" y="164" width="638" height="370">
<path d="M722.013 264.35L687.782 244.467C687.417 244.255 687.038 244.082 686.648 243.947C686.388 243.856 686.124 243.783 685.856 243.727C685.456 243.643 685.049 243.597 684.641 243.589C684.097 243.579 683.552 243.637 683.019 243.763C682.886 243.795 682.753 243.831 682.622 243.871C682.227 243.992 681.841 244.151 681.469 244.348L678.189 246.093C674.706 247.945 670.892 248.897 667.072 248.955C666.817 248.959 666.563 248.959 666.308 248.955C664.016 248.918 661.729 248.56 659.518 247.881C659.026 247.73 658.538 247.563 658.055 247.381C656.847 246.924 655.667 246.369 654.526 245.715L589.859 208.628C585.71 206.249 585.309 200.418 589.094 197.494L594.956 192.962C595.809 192.304 595.723 190.993 594.792 190.452L562.032 171.424C545.796 161.998 525.758 161.977 509.502 171.37L104.96 405.322C90.1266 414.633 91.4259 426.327 105.177 434.664L263.905 526.387C280.12 535.759 300.103 535.764 316.322 526.402L720.173 292.826C737.605 283.19 731.804 270.034 722.013 264.35Z" fill="black"/>
</mask>
<g mask="url(#mask1_66_23210)">
<path d="M722.013 264.35L687.782 244.467C687.417 244.255 687.038 244.082 686.648 243.947C686.388 243.856 686.124 243.783 685.856 243.727C685.456 243.643 685.049 243.597 684.641 243.589C684.097 243.579 683.552 243.637 683.019 243.763C682.886 243.795 682.753 243.831 682.622 243.871C682.227 243.992 681.841 244.151 681.469 244.348L678.189 246.093C674.706 247.945 670.892 248.897 667.072 248.955C666.817 248.959 666.563 248.959 666.308 248.955C664.016 248.918 661.729 248.56 659.518 247.881C659.026 247.73 658.538 247.563 658.055 247.381C656.847 246.924 655.667 246.369 654.526 245.715L589.859 208.628C585.71 206.249 585.309 200.418 589.094 197.494L594.956 192.962C595.809 192.304 595.723 190.993 594.792 190.452L562.032 171.424C545.796 161.998 525.758 161.977 509.502 171.37L104.96 405.322C90.1266 414.633 91.4259 426.327 105.177 434.664L263.905 526.387C280.12 535.759 300.103 535.764 316.322 526.402L720.173 292.826C737.605 283.19 731.804 270.034 722.013 264.35Z" fill="black"/>
<rect x="77.709" y="154.471" width="670.29" height="388.582" fill="white"/>
</g>
</g>
</svg>
